%TF.GenerationSoftware,KiCad,Pcbnew,7.0.7*%
%TF.CreationDate,2024-03-04T21:22:26-05:00*%
%TF.ProjectId,AngelsBox_PCB,416e6765-6c73-4426-9f78-5f5043422e6b,rev?*%
%TF.SameCoordinates,Original*%
%TF.FileFunction,Legend,Top*%
%TF.FilePolarity,Positive*%
%FSLAX46Y46*%
G04 Gerber Fmt 4.6, Leading zero omitted, Abs format (unit mm)*
G04 Created by KiCad (PCBNEW 7.0.7) date 2024-03-04 21:22:26*
%MOMM*%
%LPD*%
G01*
G04 APERTURE LIST*
G04 Aperture macros list*
%AMRoundRect*
0 Rectangle with rounded corners*
0 $1 Rounding radius*
0 $2 $3 $4 $5 $6 $7 $8 $9 X,Y pos of 4 corners*
0 Add a 4 corners polygon primitive as box body*
4,1,4,$2,$3,$4,$5,$6,$7,$8,$9,$2,$3,0*
0 Add four circle primitives for the rounded corners*
1,1,$1+$1,$2,$3*
1,1,$1+$1,$4,$5*
1,1,$1+$1,$6,$7*
1,1,$1+$1,$8,$9*
0 Add four rect primitives between the rounded corners*
20,1,$1+$1,$2,$3,$4,$5,0*
20,1,$1+$1,$4,$5,$6,$7,0*
20,1,$1+$1,$6,$7,$8,$9,0*
20,1,$1+$1,$8,$9,$2,$3,0*%
G04 Aperture macros list end*
%ADD10C,0.750000*%
%ADD11C,0.100000*%
%ADD12C,1.900000*%
%ADD13C,1.200000*%
%ADD14C,2.950000*%
%ADD15C,3.400000*%
%ADD16RoundRect,0.381000X-0.999000X-0.381000X0.999000X-0.381000X0.999000X0.381000X-0.999000X0.381000X0*%
%ADD17RoundRect,0.381000X-0.381000X0.999000X-0.381000X-0.999000X0.381000X-0.999000X0.381000X0.999000X0*%
G04 APERTURE END LIST*
D10*
G36*
X131419290Y-223230886D02*
G01*
X131434055Y-223306028D01*
X131449773Y-223376482D01*
X131466444Y-223442247D01*
X131484068Y-223503324D01*
X131502645Y-223559713D01*
X131528897Y-223627604D01*
X131556844Y-223687162D01*
X131586485Y-223738384D01*
X131625920Y-223790691D01*
X131671221Y-223834733D01*
X131725611Y-223875270D01*
X131789088Y-223912300D01*
X131846412Y-223939399D01*
X131909553Y-223964255D01*
X131978509Y-223986866D01*
X132053282Y-224007234D01*
X132072884Y-224011975D01*
X132033317Y-224199554D01*
X129637294Y-224199554D01*
X129676862Y-224011975D01*
X129735174Y-224005372D01*
X129808836Y-223995686D01*
X129877827Y-223984993D01*
X129942147Y-223973292D01*
X130001795Y-223960584D01*
X130069787Y-223943282D01*
X130130481Y-223924405D01*
X130163393Y-223912324D01*
X130222057Y-223883267D01*
X130271654Y-223845554D01*
X130312183Y-223799186D01*
X130343645Y-223744163D01*
X130366039Y-223680484D01*
X130371488Y-223657334D01*
X130380779Y-223591629D01*
X130383405Y-223531365D01*
X130381380Y-223466092D01*
X130374704Y-223395810D01*
X130366014Y-223335979D01*
X130354348Y-223272941D01*
X130343645Y-223223559D01*
X130138481Y-222042401D01*
X128233386Y-222042401D01*
X127820128Y-222744355D01*
X127781407Y-222811720D01*
X127745847Y-222879726D01*
X127713447Y-222948374D01*
X127684206Y-223017662D01*
X127658126Y-223087592D01*
X127635205Y-223158163D01*
X127615444Y-223229375D01*
X127598844Y-223301228D01*
X127587440Y-223369441D01*
X127581808Y-223435592D01*
X127581945Y-223499683D01*
X127587853Y-223561713D01*
X127599530Y-223621683D01*
X127616979Y-223679591D01*
X127640197Y-223735439D01*
X127669185Y-223789226D01*
X127703807Y-223838868D01*
X127743924Y-223882282D01*
X127789536Y-223919468D01*
X127840644Y-223950426D01*
X127897247Y-223975155D01*
X127959346Y-223993657D01*
X128026940Y-224005930D01*
X128100030Y-224011975D01*
X128060463Y-224199554D01*
X126194936Y-224199554D01*
X126234503Y-224011975D01*
X126665347Y-224011975D01*
X127439109Y-224011975D01*
X127390314Y-223959814D01*
X127350174Y-223904447D01*
X127318689Y-223845875D01*
X127295860Y-223784096D01*
X127281687Y-223719113D01*
X127276168Y-223650923D01*
X127279305Y-223579528D01*
X127291098Y-223504927D01*
X127304493Y-223445232D01*
X127320641Y-223388612D01*
X127327734Y-223368639D01*
X127290136Y-223419335D01*
X127252812Y-223468107D01*
X127215764Y-223514956D01*
X127169840Y-223570812D01*
X127124345Y-223623663D01*
X127079279Y-223673509D01*
X127034643Y-223720349D01*
X126988532Y-223765336D01*
X126938128Y-223810538D01*
X126883431Y-223855954D01*
X126836583Y-223892441D01*
X126786986Y-223929066D01*
X126734642Y-223965829D01*
X126679550Y-224002729D01*
X126665347Y-224011975D01*
X126234503Y-224011975D01*
X126314720Y-223996508D01*
X126394535Y-223973919D01*
X126473951Y-223944209D01*
X126552965Y-223907378D01*
X126631579Y-223863426D01*
X126709792Y-223812352D01*
X126787604Y-223754158D01*
X126865016Y-223688842D01*
X126942027Y-223616405D01*
X127018637Y-223536846D01*
X127094847Y-223450167D01*
X127132801Y-223404157D01*
X127170655Y-223356366D01*
X127208409Y-223306795D01*
X127246063Y-223255444D01*
X127283617Y-223202313D01*
X127321071Y-223147401D01*
X127358424Y-223090709D01*
X127395677Y-223032237D01*
X127432830Y-222971984D01*
X127469883Y-222909951D01*
X128142665Y-221761033D01*
X128387259Y-221761033D01*
X130095982Y-221761033D01*
X129704705Y-219508625D01*
X128387259Y-221761033D01*
X128142665Y-221761033D01*
X129635829Y-219211138D01*
X129613375Y-219153306D01*
X129583974Y-219092032D01*
X129551894Y-219039619D01*
X129511082Y-218989670D01*
X129459974Y-218947355D01*
X129407351Y-218919326D01*
X129343087Y-218895503D01*
X129278738Y-218878433D01*
X129218581Y-218866569D01*
X129152486Y-218856852D01*
X129124384Y-218853566D01*
X129136440Y-218796413D01*
X129476094Y-218796413D01*
X129538330Y-218828253D01*
X129593147Y-218864420D01*
X129640546Y-218904914D01*
X129680525Y-218949737D01*
X129713086Y-218998887D01*
X129722291Y-219016232D01*
X129747587Y-219071839D01*
X129770720Y-219134247D01*
X129788344Y-219191448D01*
X129804465Y-219253373D01*
X129819084Y-219320019D01*
X129832200Y-219391389D01*
X130474070Y-223164941D01*
X130485259Y-223225752D01*
X130494644Y-223283986D01*
X130504353Y-223357626D01*
X130510856Y-223426685D01*
X130514153Y-223491165D01*
X130514244Y-223551066D01*
X130509851Y-223619502D01*
X130500449Y-223680782D01*
X130483885Y-223743160D01*
X130459499Y-223800232D01*
X130425401Y-223848136D01*
X130418383Y-223855171D01*
X130373990Y-223893782D01*
X130324668Y-223931472D01*
X130271444Y-223969409D01*
X130218344Y-224005611D01*
X130208823Y-224011975D01*
X130298215Y-224011975D01*
X130366840Y-224008369D01*
X130430931Y-223997549D01*
X130490488Y-223979517D01*
X130545511Y-223954273D01*
X130596001Y-223921815D01*
X130611823Y-223909393D01*
X130655186Y-223869087D01*
X130697311Y-223818808D01*
X130730319Y-223765023D01*
X130754212Y-223707731D01*
X130765696Y-223664662D01*
X130776365Y-223596848D01*
X130781139Y-223535952D01*
X130782571Y-223469148D01*
X130780659Y-223396436D01*
X130775404Y-223317816D01*
X130769268Y-223254975D01*
X130761253Y-223188810D01*
X130751357Y-223119323D01*
X130743714Y-223071152D01*
X130090121Y-219294669D01*
X130078076Y-219227235D01*
X130064658Y-219164884D01*
X130049866Y-219107617D01*
X130029444Y-219043181D01*
X130006876Y-218986688D01*
X129976960Y-218929381D01*
X129955299Y-218897530D01*
X129911000Y-218851849D01*
X129856323Y-218817388D01*
X129801197Y-218796780D01*
X129738445Y-218784415D01*
X129668069Y-218780293D01*
X129606078Y-218781568D01*
X129544540Y-218785976D01*
X129485774Y-218794461D01*
X129476094Y-218796413D01*
X129136440Y-218796413D01*
X129163952Y-218665988D01*
X130201495Y-218327467D01*
X130572256Y-218327467D01*
X131419290Y-223230886D01*
G37*
G36*
X134515801Y-221032701D02*
G01*
X134587972Y-220988655D01*
X134658855Y-220946645D01*
X134728450Y-220906670D01*
X134796757Y-220868730D01*
X134863775Y-220832825D01*
X134929506Y-220798955D01*
X134993949Y-220767120D01*
X135057104Y-220737320D01*
X135118971Y-220709555D01*
X135179550Y-220683825D01*
X135219220Y-220667802D01*
X135279031Y-220645279D01*
X135340309Y-220624972D01*
X135403057Y-220606880D01*
X135467272Y-220591003D01*
X135532956Y-220577341D01*
X135600108Y-220565895D01*
X135668728Y-220556665D01*
X135738816Y-220549649D01*
X135810373Y-220544850D01*
X135883399Y-220542265D01*
X135932898Y-220541773D01*
X136002895Y-220542912D01*
X136070187Y-220546329D01*
X136134775Y-220552025D01*
X136196657Y-220559999D01*
X136255835Y-220570252D01*
X136366076Y-220597592D01*
X136465499Y-220634045D01*
X136554101Y-220679611D01*
X136631885Y-220734291D01*
X136698850Y-220798084D01*
X136754995Y-220870991D01*
X136800321Y-220953011D01*
X136834828Y-221044144D01*
X136858516Y-221144390D01*
X136871384Y-221253750D01*
X136873434Y-221372223D01*
X136870401Y-221434877D01*
X136864664Y-221499809D01*
X136856222Y-221567020D01*
X136845075Y-221636509D01*
X136831223Y-221708276D01*
X136438481Y-223601647D01*
X136427146Y-223665944D01*
X136420255Y-223737557D01*
X136421450Y-223799438D01*
X136433558Y-223860850D01*
X136462399Y-223914785D01*
X136492703Y-223941633D01*
X136548231Y-223969042D01*
X136606655Y-223987177D01*
X136675073Y-224000366D01*
X136739724Y-224007579D01*
X136811315Y-224011357D01*
X136857601Y-224011975D01*
X136818034Y-224199554D01*
X134874838Y-224199554D01*
X134914405Y-224011975D01*
X135402402Y-224011975D01*
X135478606Y-224011975D01*
X135541482Y-224008039D01*
X135599134Y-223996233D01*
X135661422Y-223971675D01*
X135716188Y-223935783D01*
X135763432Y-223888556D01*
X135790749Y-223850775D01*
X135821947Y-223796006D01*
X135851428Y-223733366D01*
X135873776Y-223677587D01*
X135895025Y-223616771D01*
X135915175Y-223550917D01*
X135934226Y-223480026D01*
X135952178Y-223404097D01*
X135960742Y-223364243D01*
X136346157Y-221504578D01*
X136358771Y-221438229D01*
X136368036Y-221374919D01*
X136373952Y-221314650D01*
X136376631Y-221239018D01*
X136373357Y-221168791D01*
X136364129Y-221103967D01*
X136348948Y-221044547D01*
X136321599Y-220977872D01*
X136308055Y-220953566D01*
X136265751Y-220898289D01*
X136210282Y-220851528D01*
X136156426Y-220820250D01*
X136094144Y-220794421D01*
X136023436Y-220774042D01*
X135964875Y-220762334D01*
X135901574Y-220753691D01*
X135833533Y-220748114D01*
X135809800Y-220746937D01*
X135868683Y-220777298D01*
X135920768Y-220811594D01*
X135966055Y-220849826D01*
X136011427Y-220900900D01*
X136047010Y-220957640D01*
X136069185Y-221009253D01*
X136085450Y-221065804D01*
X136095775Y-221128293D01*
X136100162Y-221196722D01*
X136099395Y-221255741D01*
X136094827Y-221318561D01*
X136086458Y-221385182D01*
X136074287Y-221455604D01*
X136070651Y-221473803D01*
X135636876Y-223559149D01*
X135623503Y-223620698D01*
X135609773Y-223679431D01*
X135593630Y-223740430D01*
X135589981Y-223752589D01*
X135568987Y-223808274D01*
X135538976Y-223862670D01*
X135534294Y-223869826D01*
X135497886Y-223916606D01*
X135455583Y-223961571D01*
X135408210Y-224006690D01*
X135402402Y-224011975D01*
X134914405Y-224011975D01*
X134976985Y-224010624D01*
X135035763Y-224006571D01*
X135103891Y-223997705D01*
X135166080Y-223984618D01*
X135222330Y-223967309D01*
X135281990Y-223940965D01*
X135308613Y-223925513D01*
X135356990Y-223886289D01*
X135399907Y-223833464D01*
X135431498Y-223779053D01*
X135459298Y-223715197D01*
X135478807Y-223657311D01*
X135495888Y-223593381D01*
X135503519Y-223559149D01*
X135928502Y-221516302D01*
X135940730Y-221447952D01*
X135949024Y-221383037D01*
X135953381Y-221321556D01*
X135953416Y-221252313D01*
X135947783Y-221188016D01*
X135938760Y-221138214D01*
X135920227Y-221074400D01*
X135894121Y-221017600D01*
X135860441Y-220967811D01*
X135819188Y-220925035D01*
X135792214Y-220903741D01*
X135739981Y-220872335D01*
X135680736Y-220848643D01*
X135614479Y-220832664D01*
X135552105Y-220825108D01*
X135496192Y-220823140D01*
X135423513Y-220826181D01*
X135364906Y-220832994D01*
X135305887Y-220843698D01*
X135246456Y-220858296D01*
X135186613Y-220876786D01*
X135126357Y-220899168D01*
X135065689Y-220925443D01*
X135019918Y-220947704D01*
X134957568Y-220980860D01*
X134892881Y-221018046D01*
X134842834Y-221048580D01*
X134791473Y-221081381D01*
X134738798Y-221116449D01*
X134684809Y-221153784D01*
X134629507Y-221193386D01*
X134572891Y-221235254D01*
X134514961Y-221279390D01*
X134455717Y-221325792D01*
X133991167Y-223559149D01*
X133979060Y-223627499D01*
X133972414Y-223689666D01*
X133971563Y-223754381D01*
X133979691Y-223818037D01*
X133989702Y-223852240D01*
X134020156Y-223907996D01*
X134066879Y-223952137D01*
X134121375Y-223976638D01*
X134127455Y-223978269D01*
X134190103Y-223991008D01*
X134249088Y-223999152D01*
X134317048Y-224005754D01*
X134382444Y-224010185D01*
X134417615Y-224011975D01*
X134378048Y-224199554D01*
X132431921Y-224199554D01*
X132471488Y-224011975D01*
X132974140Y-224011975D01*
X133046934Y-224001443D01*
X133114189Y-223984137D01*
X133175905Y-223960056D01*
X133232083Y-223929200D01*
X133282723Y-223891569D01*
X133327825Y-223847163D01*
X133367388Y-223795982D01*
X133401412Y-223738026D01*
X133429899Y-223673296D01*
X133452847Y-223601790D01*
X133465068Y-223550356D01*
X133885654Y-221529491D01*
X133895601Y-221464626D01*
X133897962Y-221402837D01*
X133892738Y-221344126D01*
X133876458Y-221277734D01*
X133849256Y-221215773D01*
X133818243Y-221167523D01*
X133773747Y-221116226D01*
X133723790Y-221075542D01*
X133668372Y-221045472D01*
X133607492Y-221026015D01*
X133541152Y-221017170D01*
X133517825Y-221016581D01*
X133458165Y-221024927D01*
X133441621Y-221028304D01*
X133382768Y-221037751D01*
X133371279Y-221038563D01*
X133428947Y-221072969D01*
X133479402Y-221111343D01*
X133522645Y-221153684D01*
X133558674Y-221199992D01*
X133595494Y-221267907D01*
X133614694Y-221323471D01*
X133626681Y-221383002D01*
X133631455Y-221446501D01*
X133629016Y-221513966D01*
X133619365Y-221585398D01*
X133614545Y-221610091D01*
X133211544Y-223550356D01*
X133196552Y-223618088D01*
X133181250Y-223678400D01*
X133163008Y-223739389D01*
X133141644Y-223796725D01*
X133128013Y-223825862D01*
X133094096Y-223880559D01*
X133057688Y-223926583D01*
X133013038Y-223974623D01*
X132974140Y-224011975D01*
X132471488Y-224011975D01*
X132531137Y-224010899D01*
X132601383Y-224006527D01*
X132666835Y-223998792D01*
X132727493Y-223987693D01*
X132793953Y-223969936D01*
X132853510Y-223947336D01*
X132862765Y-223943099D01*
X132914921Y-223910383D01*
X132960379Y-223864994D01*
X132999139Y-223806931D01*
X133026323Y-223748864D01*
X133048856Y-223681995D01*
X133063533Y-223622163D01*
X133453345Y-221749309D01*
X133465412Y-221681051D01*
X133473037Y-221616227D01*
X133476219Y-221554839D01*
X133473951Y-221482932D01*
X133464742Y-221416393D01*
X133448592Y-221355220D01*
X133425501Y-221299414D01*
X133394861Y-221247837D01*
X133356063Y-221200267D01*
X133309109Y-221156704D01*
X133253997Y-221117148D01*
X133190727Y-221081599D01*
X133134238Y-221056045D01*
X133088446Y-221038563D01*
X133117755Y-220899344D01*
X134467441Y-220541773D01*
X134618383Y-220541773D01*
X134515801Y-221032701D01*
G37*
G36*
X139748370Y-220543713D02*
G01*
X139836395Y-220549535D01*
X139922164Y-220559238D01*
X140005678Y-220572822D01*
X140086936Y-220590287D01*
X140165939Y-220611634D01*
X140242687Y-220636861D01*
X140317179Y-220665970D01*
X140389416Y-220698960D01*
X140459397Y-220735831D01*
X140527123Y-220776583D01*
X140592594Y-220821217D01*
X140655809Y-220869732D01*
X140716768Y-220922127D01*
X140775472Y-220978404D01*
X140831921Y-221038563D01*
X140860104Y-221016581D01*
X141095703Y-221016581D01*
X141155917Y-221010999D01*
X141176303Y-221010719D01*
X141238668Y-221023934D01*
X141291342Y-221052484D01*
X141339393Y-221089682D01*
X141390123Y-221138626D01*
X141425431Y-221177781D01*
X141454118Y-221237730D01*
X141490525Y-221296257D01*
X141535735Y-221346045D01*
X141591011Y-221378560D01*
X141634991Y-221385876D01*
X141695662Y-221377737D01*
X141753158Y-221350294D01*
X141790330Y-221316999D01*
X141827938Y-221269127D01*
X141855931Y-221215718D01*
X141867999Y-221174850D01*
X141872762Y-221114766D01*
X141864583Y-221053114D01*
X141863603Y-221048821D01*
X141812976Y-221079183D01*
X141751221Y-221095532D01*
X141703868Y-221098646D01*
X141644236Y-221087910D01*
X141586173Y-221063155D01*
X141535243Y-221033963D01*
X141495773Y-221007788D01*
X141440685Y-220972385D01*
X141388262Y-220945678D01*
X141331613Y-220925803D01*
X141272043Y-220917018D01*
X141265696Y-220916930D01*
X141207828Y-220934246D01*
X141179234Y-220953566D01*
X141130445Y-220990815D01*
X141095703Y-221016581D01*
X140860104Y-221016581D01*
X140888571Y-220994377D01*
X140945866Y-220953412D01*
X141003805Y-220915666D01*
X141062387Y-220881140D01*
X141121614Y-220849835D01*
X141181484Y-220821749D01*
X141205613Y-220811417D01*
X141265805Y-220787775D01*
X141324566Y-220768140D01*
X141381897Y-220752512D01*
X141448804Y-220739048D01*
X141513650Y-220731355D01*
X141566115Y-220729351D01*
X141635402Y-220732321D01*
X141699466Y-220741229D01*
X141758306Y-220756077D01*
X141822019Y-220781734D01*
X141878210Y-220815943D01*
X141919290Y-220850984D01*
X141960283Y-220898812D01*
X141989838Y-220951070D01*
X142007956Y-221007759D01*
X142014636Y-221068879D01*
X142009879Y-221134430D01*
X142005752Y-221157265D01*
X141987251Y-221218539D01*
X141958125Y-221276333D01*
X141923924Y-221324048D01*
X141881589Y-221369098D01*
X141867999Y-221381480D01*
X141817870Y-221419737D01*
X141764936Y-221448599D01*
X141709197Y-221468063D01*
X141650654Y-221478131D01*
X141615941Y-221479665D01*
X141555490Y-221473277D01*
X141497445Y-221451937D01*
X141469395Y-221434236D01*
X141423027Y-221392264D01*
X141384072Y-221346898D01*
X141348768Y-221297993D01*
X141344831Y-221292087D01*
X141311369Y-221242447D01*
X141273619Y-221192481D01*
X141236387Y-221151403D01*
X141186949Y-221117743D01*
X141126564Y-221104691D01*
X141117685Y-221104508D01*
X141058039Y-221116601D01*
X141002283Y-221142361D01*
X140951496Y-221173273D01*
X140944761Y-221177781D01*
X140978138Y-221246474D01*
X141006826Y-221315168D01*
X141030825Y-221383861D01*
X141050137Y-221452554D01*
X141064760Y-221521247D01*
X141074695Y-221589941D01*
X141079941Y-221658634D01*
X141080499Y-221727327D01*
X141076369Y-221796021D01*
X141067550Y-221864714D01*
X141059067Y-221910510D01*
X141044607Y-221972012D01*
X141027056Y-222032869D01*
X141006413Y-222093083D01*
X140982680Y-222152653D01*
X140955855Y-222211579D01*
X140925939Y-222269861D01*
X140892932Y-222327499D01*
X140856834Y-222384493D01*
X140817644Y-222440843D01*
X140775364Y-222496549D01*
X140745459Y-222533329D01*
X140698945Y-222586888D01*
X140650628Y-222638206D01*
X140600508Y-222687283D01*
X140548584Y-222734119D01*
X140494857Y-222778714D01*
X140439327Y-222821068D01*
X140381994Y-222861180D01*
X140322858Y-222899052D01*
X140261918Y-222934682D01*
X140199176Y-222968072D01*
X140156345Y-222989086D01*
X140100749Y-223014022D01*
X140046070Y-223036805D01*
X139979008Y-223062257D01*
X139913377Y-223084346D01*
X139849177Y-223103072D01*
X139786409Y-223118435D01*
X139737225Y-223128304D01*
X139675916Y-223138759D01*
X139612890Y-223148140D01*
X139548146Y-223156447D01*
X139481685Y-223163681D01*
X139413507Y-223169842D01*
X139343612Y-223174930D01*
X139315173Y-223176664D01*
X139229469Y-223183461D01*
X139147115Y-223191210D01*
X139068109Y-223199913D01*
X138992452Y-223209569D01*
X138920143Y-223220177D01*
X138851184Y-223231739D01*
X138785573Y-223244254D01*
X138723311Y-223257723D01*
X138664398Y-223272144D01*
X138591057Y-223292855D01*
X138573652Y-223298297D01*
X138508301Y-223322271D01*
X138450004Y-223350962D01*
X138398758Y-223384370D01*
X138344620Y-223432763D01*
X138301500Y-223488526D01*
X138269400Y-223551660D01*
X138248320Y-223622163D01*
X138241405Y-223693261D01*
X138252167Y-223754879D01*
X138280606Y-223807017D01*
X138326722Y-223849676D01*
X138390515Y-223882854D01*
X138449961Y-223901518D01*
X138519350Y-223914848D01*
X138598682Y-223922847D01*
X138687957Y-223925513D01*
X138750468Y-223923967D01*
X138810506Y-223922628D01*
X138877425Y-223921326D01*
X138940978Y-223920304D01*
X138992772Y-223919651D01*
X139056886Y-223919080D01*
X139118985Y-223918702D01*
X139187678Y-223918428D01*
X139249960Y-223918277D01*
X139316822Y-223918199D01*
X139359137Y-223918186D01*
X139456143Y-223919050D01*
X139549692Y-223921643D01*
X139639783Y-223925965D01*
X139726417Y-223932016D01*
X139809593Y-223939796D01*
X139889312Y-223949304D01*
X139965573Y-223960541D01*
X140038376Y-223973507D01*
X140107722Y-223988201D01*
X140173610Y-224004625D01*
X140236041Y-224022777D01*
X140295014Y-224042658D01*
X140350530Y-224064268D01*
X140427320Y-224099924D01*
X140496331Y-224139470D01*
X140557447Y-224183339D01*
X140610551Y-224232515D01*
X140655644Y-224286997D01*
X140692725Y-224346786D01*
X140721796Y-224411882D01*
X140742854Y-224482284D01*
X140755902Y-224557992D01*
X140760938Y-224639007D01*
X140757963Y-224725329D01*
X140751528Y-224785825D01*
X140741533Y-224848679D01*
X140735201Y-224880991D01*
X140719081Y-224949936D01*
X140699297Y-225017553D01*
X140675850Y-225083842D01*
X140648739Y-225148803D01*
X140617964Y-225212436D01*
X140583526Y-225274741D01*
X140545424Y-225335718D01*
X140503659Y-225395366D01*
X140458207Y-225453664D01*
X140409045Y-225509855D01*
X140356174Y-225563940D01*
X140299594Y-225615918D01*
X140239304Y-225665789D01*
X140191652Y-225701810D01*
X140141914Y-225736646D01*
X140090089Y-225770297D01*
X140036178Y-225802764D01*
X139980326Y-225834255D01*
X139922130Y-225864433D01*
X139861589Y-225893297D01*
X139798705Y-225920847D01*
X139733476Y-225947084D01*
X139665904Y-225972007D01*
X139595987Y-225995616D01*
X139523726Y-226017911D01*
X139449121Y-226038892D01*
X139372171Y-226058560D01*
X139319569Y-226070942D01*
X139239207Y-226088489D01*
X139156938Y-226104310D01*
X139072763Y-226118405D01*
X138986682Y-226130774D01*
X138928235Y-226138061D01*
X138868941Y-226144581D01*
X138808800Y-226150334D01*
X138747812Y-226155320D01*
X138685977Y-226159539D01*
X138623294Y-226162991D01*
X138559764Y-226165676D01*
X138495387Y-226167594D01*
X138430163Y-226168744D01*
X138364091Y-226169128D01*
X138268447Y-226168258D01*
X138176055Y-226165647D01*
X138086914Y-226161297D01*
X138001024Y-226155206D01*
X137918386Y-226147375D01*
X137839000Y-226137804D01*
X137762865Y-226126492D01*
X137689981Y-226113440D01*
X137620349Y-226098648D01*
X137553968Y-226082116D01*
X137490839Y-226063844D01*
X137430961Y-226043831D01*
X137374335Y-226022078D01*
X137295493Y-225986186D01*
X137223966Y-225946378D01*
X137160210Y-225903600D01*
X137104130Y-225858245D01*
X137055727Y-225810314D01*
X137015001Y-225759807D01*
X136981951Y-225706725D01*
X136956577Y-225651066D01*
X136938880Y-225592831D01*
X136928859Y-225532020D01*
X136926515Y-225468634D01*
X136930863Y-225414845D01*
X137065580Y-225414845D01*
X137066332Y-225477678D01*
X137076743Y-225538436D01*
X137096814Y-225597119D01*
X137126546Y-225653726D01*
X137165937Y-225708259D01*
X137184398Y-225729491D01*
X137237171Y-225780467D01*
X137286137Y-225818157D01*
X137341103Y-225853099D01*
X137402069Y-225885293D01*
X137469033Y-225914739D01*
X137541997Y-225941438D01*
X137600657Y-225959659D01*
X137662691Y-225976334D01*
X137684119Y-225981549D01*
X137633664Y-225949607D01*
X137565237Y-225900062D01*
X137505517Y-225848559D01*
X137454503Y-225795099D01*
X137412197Y-225739680D01*
X137378597Y-225682304D01*
X137353704Y-225622970D01*
X137337519Y-225561679D01*
X137331597Y-225511596D01*
X137665160Y-225511596D01*
X137673334Y-225571153D01*
X137690347Y-225627275D01*
X137716199Y-225679963D01*
X137750889Y-225729216D01*
X137794418Y-225775034D01*
X137846785Y-225817418D01*
X137907670Y-225855886D01*
X137976020Y-225889226D01*
X138032181Y-225910864D01*
X138092541Y-225929617D01*
X138157100Y-225945485D01*
X138225857Y-225958468D01*
X138298814Y-225968566D01*
X138375969Y-225975779D01*
X138457324Y-225980107D01*
X138542877Y-225981549D01*
X138629328Y-225980764D01*
X138713923Y-225978407D01*
X138796664Y-225974478D01*
X138877551Y-225968978D01*
X138956582Y-225961907D01*
X139033759Y-225953265D01*
X139109082Y-225943051D01*
X139182549Y-225931266D01*
X139254162Y-225917909D01*
X139323920Y-225902981D01*
X139369395Y-225892156D01*
X139435765Y-225874648D01*
X139499689Y-225855646D01*
X139561165Y-225835150D01*
X139620194Y-225813159D01*
X139676776Y-225789675D01*
X139730910Y-225764696D01*
X139799283Y-225729067D01*
X139863305Y-225690782D01*
X139922977Y-225649841D01*
X139951181Y-225628374D01*
X140003732Y-225584479D01*
X140050741Y-225539256D01*
X140092209Y-225492705D01*
X140128135Y-225444826D01*
X140165251Y-225383109D01*
X140193709Y-225319317D01*
X140213508Y-225253450D01*
X140216429Y-225240028D01*
X140224707Y-225154651D01*
X140212170Y-225077671D01*
X140178819Y-225009090D01*
X140124655Y-224948906D01*
X140076982Y-224913449D01*
X140020058Y-224881724D01*
X139953883Y-224853731D01*
X139878458Y-224829471D01*
X139793782Y-224808943D01*
X139699855Y-224792148D01*
X139596678Y-224779085D01*
X139484250Y-224769754D01*
X139424567Y-224766488D01*
X139362571Y-224764155D01*
X139298263Y-224762756D01*
X139231642Y-224762289D01*
X139171667Y-224762495D01*
X139113009Y-224763113D01*
X139027490Y-224764813D01*
X138944933Y-224767441D01*
X138865339Y-224770996D01*
X138788707Y-224775478D01*
X138715038Y-224780888D01*
X138644331Y-224787225D01*
X138576587Y-224794489D01*
X138511805Y-224802681D01*
X138449985Y-224811800D01*
X138430037Y-224815045D01*
X138371755Y-224825697D01*
X138297371Y-224842264D01*
X138226789Y-224861532D01*
X138160008Y-224883503D01*
X138097027Y-224908175D01*
X138037848Y-224935549D01*
X137982470Y-224965625D01*
X137930893Y-224998404D01*
X137918592Y-225007020D01*
X137872476Y-225043336D01*
X137821142Y-225092981D01*
X137776821Y-225147349D01*
X137739512Y-225206440D01*
X137709215Y-225270253D01*
X137685931Y-225338789D01*
X137675326Y-225382177D01*
X137665824Y-225448604D01*
X137665160Y-225511596D01*
X137331597Y-225511596D01*
X137330040Y-225498429D01*
X137331267Y-225433222D01*
X137341202Y-225366057D01*
X137357774Y-225302709D01*
X137380930Y-225242724D01*
X137410668Y-225186102D01*
X137446990Y-225132844D01*
X137489895Y-225082948D01*
X137539382Y-225036415D01*
X137561021Y-225018744D01*
X137619904Y-224975768D01*
X137672008Y-224941490D01*
X137728554Y-224907303D01*
X137789542Y-224873209D01*
X137854972Y-224839205D01*
X137924845Y-224805294D01*
X137980164Y-224779920D01*
X138037983Y-224754598D01*
X138057811Y-224746169D01*
X137979372Y-224754107D01*
X137903972Y-224764184D01*
X137831612Y-224776398D01*
X137762292Y-224790751D01*
X137696012Y-224807242D01*
X137632771Y-224825870D01*
X137572570Y-224846637D01*
X137515408Y-224869542D01*
X137461287Y-224894585D01*
X137393853Y-224931302D01*
X137377839Y-224941075D01*
X137317961Y-224982405D01*
X137264357Y-225026529D01*
X137217028Y-225073447D01*
X137175972Y-225123158D01*
X137141190Y-225175662D01*
X137112682Y-225230961D01*
X137090449Y-225289052D01*
X137074489Y-225349937D01*
X137065580Y-225414845D01*
X136930863Y-225414845D01*
X136931847Y-225402671D01*
X136939667Y-225357265D01*
X136956130Y-225293311D01*
X136978410Y-225231144D01*
X137006506Y-225170762D01*
X137040417Y-225112167D01*
X137080145Y-225055358D01*
X137125688Y-225000334D01*
X137177048Y-224947097D01*
X137234224Y-224895646D01*
X137280837Y-224859547D01*
X137329999Y-224826540D01*
X137381713Y-224796624D01*
X137435976Y-224769799D01*
X137492790Y-224746066D01*
X137552154Y-224725424D01*
X137614068Y-224707872D01*
X137678532Y-224693413D01*
X137745547Y-224682044D01*
X137815112Y-224673766D01*
X137862905Y-224669965D01*
X137806290Y-224640605D01*
X137754049Y-224609675D01*
X137683887Y-224560341D01*
X137623566Y-224507477D01*
X137573085Y-224451084D01*
X137532444Y-224391162D01*
X137501644Y-224327711D01*
X137480684Y-224260731D01*
X137469564Y-224190221D01*
X137468285Y-224116183D01*
X137470188Y-224098941D01*
X137599191Y-224098941D01*
X137599397Y-224158338D01*
X137612213Y-224228848D01*
X137638982Y-224295209D01*
X137670443Y-224345309D01*
X137710835Y-224392753D01*
X137760157Y-224437541D01*
X137788167Y-224458939D01*
X137849785Y-224498507D01*
X137918134Y-224532945D01*
X137973815Y-224555408D01*
X138033281Y-224574985D01*
X138096535Y-224591678D01*
X138163576Y-224605485D01*
X138234403Y-224616407D01*
X138309016Y-224624444D01*
X138387417Y-224629596D01*
X138469604Y-224631863D01*
X138579222Y-224632997D01*
X138684225Y-224634199D01*
X138784614Y-224635470D01*
X138880390Y-224636809D01*
X138971552Y-224638217D01*
X139058100Y-224639694D01*
X139140034Y-224641240D01*
X139217354Y-224642854D01*
X139290060Y-224644537D01*
X139358152Y-224646289D01*
X139421630Y-224648109D01*
X139480495Y-224649998D01*
X139560140Y-224652961D01*
X139629405Y-224656078D01*
X139669814Y-224658242D01*
X139744964Y-224664401D01*
X139817275Y-224674087D01*
X139886747Y-224687299D01*
X139953379Y-224704037D01*
X140017173Y-224724302D01*
X140078126Y-224748092D01*
X140136241Y-224775409D01*
X140191516Y-224806253D01*
X140241365Y-224841905D01*
X140291375Y-224894004D01*
X140327718Y-224954476D01*
X140350394Y-225023319D01*
X140358694Y-225084422D01*
X140358248Y-225150883D01*
X140349054Y-225222702D01*
X140345389Y-225241493D01*
X140328096Y-225298840D01*
X140308638Y-225354236D01*
X140304356Y-225366057D01*
X140339505Y-225318819D01*
X140378223Y-225261897D01*
X140411146Y-225207336D01*
X140438273Y-225155136D01*
X140463174Y-225095613D01*
X140481677Y-225030468D01*
X140492736Y-224957172D01*
X140494408Y-224888227D01*
X140486691Y-224823632D01*
X140469587Y-224763388D01*
X140443094Y-224707495D01*
X140407213Y-224655952D01*
X140361944Y-224608759D01*
X140307287Y-224565918D01*
X140243723Y-224527953D01*
X140190039Y-224502545D01*
X140131204Y-224479765D01*
X140067216Y-224459612D01*
X139998076Y-224442087D01*
X139923784Y-224427189D01*
X139844340Y-224414918D01*
X139759744Y-224405276D01*
X139700485Y-224400307D01*
X139638936Y-224396506D01*
X139575097Y-224393873D01*
X139542319Y-224392994D01*
X139470916Y-224391594D01*
X139399591Y-224390143D01*
X139328343Y-224388640D01*
X139257173Y-224387086D01*
X139186080Y-224385481D01*
X139115064Y-224383823D01*
X139044125Y-224382115D01*
X138973263Y-224380354D01*
X138902479Y-224378542D01*
X138831772Y-224376679D01*
X138784677Y-224375408D01*
X138715606Y-224373214D01*
X138649626Y-224370480D01*
X138586738Y-224367204D01*
X138526940Y-224363387D01*
X138452019Y-224357457D01*
X138382593Y-224350564D01*
X138318662Y-224342710D01*
X138260227Y-224333895D01*
X138207287Y-224324117D01*
X138147760Y-224310214D01*
X138083601Y-224289469D01*
X138027375Y-224264293D01*
X137971807Y-224229321D01*
X137927037Y-224188318D01*
X137921523Y-224181968D01*
X137890298Y-224132240D01*
X137870994Y-224074097D01*
X137863610Y-224007539D01*
X137866770Y-223943791D01*
X137876094Y-223885946D01*
X137891081Y-223829085D01*
X137911677Y-223773907D01*
X137937884Y-223720412D01*
X137969700Y-223668600D01*
X137990400Y-223639749D01*
X138031102Y-223588548D01*
X138070566Y-223542764D01*
X138114255Y-223495228D01*
X138162169Y-223445941D01*
X138205324Y-223403530D01*
X138223407Y-223386225D01*
X138158172Y-223422930D01*
X138096554Y-223459772D01*
X138038554Y-223496752D01*
X137984172Y-223533870D01*
X137933407Y-223571124D01*
X137886261Y-223608516D01*
X137832415Y-223655450D01*
X137802821Y-223683713D01*
X137757877Y-223732134D01*
X137718300Y-223783060D01*
X137684089Y-223836491D01*
X137655245Y-223892426D01*
X137631768Y-223950865D01*
X137613657Y-224011809D01*
X137607915Y-224036888D01*
X137599191Y-224098941D01*
X137470188Y-224098941D01*
X137476846Y-224038615D01*
X137481886Y-224011975D01*
X137500181Y-223942274D01*
X137525758Y-223873856D01*
X137558617Y-223806719D01*
X137598756Y-223740865D01*
X137633640Y-223692316D01*
X137672619Y-223644489D01*
X137715694Y-223597382D01*
X137762865Y-223550997D01*
X137814131Y-223505333D01*
X137832130Y-223490272D01*
X137888695Y-223445617D01*
X137948480Y-223402328D01*
X138011484Y-223360403D01*
X138077709Y-223319844D01*
X138147154Y-223280650D01*
X138219818Y-223242822D01*
X138295703Y-223206359D01*
X138374807Y-223171261D01*
X138429333Y-223148620D01*
X138485289Y-223126587D01*
X138542677Y-223105160D01*
X138601495Y-223084341D01*
X138547660Y-223057105D01*
X138495879Y-223029071D01*
X138398484Y-222970607D01*
X138309308Y-222908949D01*
X138228353Y-222844097D01*
X138155619Y-222776051D01*
X138091104Y-222704810D01*
X138034810Y-222630375D01*
X137986736Y-222552746D01*
X137946882Y-222471923D01*
X137915249Y-222387905D01*
X137891836Y-222300693D01*
X137876644Y-222210287D01*
X137869671Y-222116687D01*
X137870738Y-222033950D01*
X138005183Y-222033950D01*
X138006016Y-222104477D01*
X138011640Y-222173329D01*
X138022056Y-222240506D01*
X138037263Y-222306010D01*
X138057261Y-222369839D01*
X138082051Y-222431993D01*
X138111632Y-222492473D01*
X138134014Y-222531863D01*
X138171774Y-222588595D01*
X138214712Y-222642288D01*
X138262827Y-222692941D01*
X138316120Y-222740554D01*
X138374591Y-222785127D01*
X138438240Y-222826661D01*
X138507066Y-222865155D01*
X138581070Y-222900609D01*
X138660252Y-222933024D01*
X138715917Y-222952945D01*
X138773883Y-222971515D01*
X138803728Y-222980293D01*
X138747049Y-222939260D01*
X139586282Y-222939260D01*
X139672670Y-222908154D01*
X139754879Y-222872353D01*
X139832909Y-222831858D01*
X139906760Y-222786670D01*
X139976432Y-222736787D01*
X140041925Y-222682210D01*
X140103240Y-222622939D01*
X140160375Y-222558974D01*
X140213332Y-222490315D01*
X140262110Y-222416962D01*
X140306709Y-222338915D01*
X140347129Y-222256174D01*
X140383371Y-222168739D01*
X140415434Y-222076610D01*
X140443317Y-221979787D01*
X140467022Y-221878269D01*
X140479301Y-221815625D01*
X140489760Y-221754639D01*
X140498398Y-221695309D01*
X140510213Y-221581622D01*
X140514747Y-221474563D01*
X140511999Y-221374134D01*
X140501970Y-221280333D01*
X140484659Y-221193161D01*
X140460067Y-221112618D01*
X140428193Y-221038704D01*
X140389038Y-220971419D01*
X140342601Y-220910763D01*
X140288883Y-220856736D01*
X140227884Y-220809337D01*
X140159602Y-220768568D01*
X140084040Y-220734427D01*
X140001196Y-220706916D01*
X139957043Y-220695646D01*
X140011288Y-220742632D01*
X140060449Y-220791999D01*
X140104528Y-220843748D01*
X140143523Y-220897879D01*
X140177434Y-220954390D01*
X140206262Y-221013283D01*
X140230007Y-221074558D01*
X140248669Y-221138214D01*
X140262751Y-221205533D01*
X140272025Y-221277798D01*
X140276490Y-221355010D01*
X140276683Y-221416164D01*
X140274171Y-221480100D01*
X140268955Y-221546819D01*
X140261034Y-221616319D01*
X140250408Y-221688602D01*
X140237077Y-221763666D01*
X140226687Y-221815255D01*
X140205638Y-221908775D01*
X140182059Y-221999193D01*
X140155950Y-222086507D01*
X140127311Y-222170720D01*
X140096141Y-222251829D01*
X140062442Y-222329836D01*
X140026212Y-222404741D01*
X139987451Y-222476542D01*
X139946161Y-222545241D01*
X139902340Y-222610838D01*
X139855990Y-222673331D01*
X139807109Y-222732723D01*
X139755697Y-222789011D01*
X139701756Y-222842197D01*
X139645284Y-222892280D01*
X139586282Y-222939260D01*
X138747049Y-222939260D01*
X138744768Y-222937609D01*
X138689337Y-222893637D01*
X138637435Y-222848376D01*
X138589062Y-222801828D01*
X138544218Y-222753992D01*
X138502903Y-222704867D01*
X138465118Y-222654455D01*
X138430861Y-222602755D01*
X138400134Y-222549767D01*
X138372936Y-222495490D01*
X138356764Y-222458590D01*
X138335619Y-222402605D01*
X138317798Y-222346208D01*
X138303299Y-222289399D01*
X138302110Y-222282985D01*
X138823629Y-222282985D01*
X138826489Y-222358161D01*
X138833109Y-222429576D01*
X138843490Y-222497230D01*
X138857633Y-222561124D01*
X138875536Y-222621256D01*
X138897204Y-222676516D01*
X138931104Y-222741740D01*
X138970729Y-222797301D01*
X139016078Y-222843200D01*
X139067151Y-222879436D01*
X139123949Y-222906009D01*
X139186472Y-222922919D01*
X139254719Y-222930166D01*
X139272675Y-222930468D01*
X139337681Y-222925819D01*
X139401543Y-222911875D01*
X139464260Y-222888633D01*
X139525832Y-222856096D01*
X139586260Y-222814261D01*
X139645542Y-222763131D01*
X139689252Y-222718682D01*
X139732319Y-222669004D01*
X139760672Y-222632980D01*
X139801995Y-222574788D01*
X139841335Y-222512320D01*
X139878691Y-222445576D01*
X139914064Y-222374556D01*
X139947453Y-222299259D01*
X139978859Y-222219687D01*
X139998694Y-222164263D01*
X140017648Y-222106938D01*
X140035720Y-222047713D01*
X140052910Y-221986587D01*
X140069219Y-221923561D01*
X140084647Y-221858635D01*
X140099192Y-221791808D01*
X140111134Y-221730545D01*
X140121312Y-221670953D01*
X140133273Y-221584700D01*
X140141267Y-221502208D01*
X140145294Y-221423477D01*
X140145354Y-221348507D01*
X140141447Y-221277298D01*
X140133573Y-221209849D01*
X140121732Y-221146162D01*
X140105924Y-221086236D01*
X140086149Y-221030070D01*
X140078676Y-221012184D01*
X140046138Y-220945895D01*
X140009342Y-220888445D01*
X139968286Y-220839833D01*
X139922971Y-220800059D01*
X139860339Y-220762772D01*
X139791051Y-220739294D01*
X139730830Y-220730456D01*
X139699123Y-220729351D01*
X139634047Y-220733954D01*
X139569979Y-220747761D01*
X139506919Y-220770773D01*
X139444866Y-220802990D01*
X139383820Y-220844412D01*
X139323782Y-220895039D01*
X139279415Y-220939050D01*
X139235615Y-220988239D01*
X139206729Y-221023908D01*
X139164749Y-221080408D01*
X139125087Y-221140000D01*
X139087744Y-221202682D01*
X139052719Y-221268456D01*
X139020012Y-221337321D01*
X138989624Y-221409277D01*
X138961554Y-221484325D01*
X138935803Y-221562463D01*
X138912370Y-221643693D01*
X138891255Y-221728014D01*
X138878467Y-221785946D01*
X138865747Y-221850689D01*
X138854699Y-221913761D01*
X138845322Y-221975161D01*
X138837617Y-222034890D01*
X138829194Y-222121349D01*
X138824531Y-222204047D01*
X138823629Y-222282985D01*
X138302110Y-222282985D01*
X138289137Y-222213012D01*
X138280882Y-222135892D01*
X138278535Y-222058040D01*
X138280652Y-221999170D01*
X138286091Y-221939887D01*
X138294854Y-221880193D01*
X138302542Y-221840168D01*
X138317861Y-221775853D01*
X138336889Y-221712055D01*
X138359626Y-221648771D01*
X138386073Y-221586002D01*
X138416229Y-221523749D01*
X138450095Y-221462011D01*
X138487671Y-221400788D01*
X138528955Y-221340080D01*
X138573949Y-221279888D01*
X138622653Y-221220211D01*
X138657183Y-221180712D01*
X138712215Y-221122237D01*
X138770698Y-221065513D01*
X138832634Y-221010541D01*
X138898021Y-220957321D01*
X138966861Y-220905853D01*
X139039152Y-220856136D01*
X139089264Y-220823965D01*
X139140909Y-220792572D01*
X139194090Y-220761958D01*
X139248804Y-220732122D01*
X139305052Y-220703064D01*
X139362835Y-220674786D01*
X139422151Y-220647286D01*
X139358739Y-220656100D01*
X139295996Y-220667155D01*
X139233923Y-220680452D01*
X139172520Y-220695989D01*
X139111786Y-220713768D01*
X139051723Y-220733788D01*
X138992329Y-220756048D01*
X138933605Y-220780551D01*
X138875550Y-220807294D01*
X138818165Y-220836278D01*
X138780281Y-220856846D01*
X138724880Y-220889166D01*
X138671333Y-220922929D01*
X138619642Y-220958134D01*
X138569805Y-220994782D01*
X138521823Y-221032872D01*
X138475695Y-221072405D01*
X138431422Y-221113381D01*
X138389004Y-221155799D01*
X138348441Y-221199660D01*
X138309732Y-221244963D01*
X138284957Y-221275967D01*
X138249610Y-221323013D01*
X138206207Y-221386783D01*
X138167063Y-221451744D01*
X138132178Y-221517896D01*
X138101553Y-221585238D01*
X138075186Y-221653771D01*
X138053078Y-221723495D01*
X138035229Y-221794409D01*
X138031432Y-221812324D01*
X138017891Y-221887874D01*
X138009142Y-221961749D01*
X138005183Y-222033950D01*
X137870738Y-222033950D01*
X137870919Y-222019892D01*
X137880387Y-221919903D01*
X137898076Y-221816720D01*
X137913291Y-221751204D01*
X137931461Y-221686913D01*
X137952584Y-221623847D01*
X137976661Y-221562006D01*
X138003692Y-221501389D01*
X138033676Y-221441998D01*
X138066615Y-221383832D01*
X138102507Y-221326891D01*
X138141353Y-221271175D01*
X138183153Y-221216684D01*
X138227907Y-221163418D01*
X138275614Y-221111377D01*
X138326276Y-221060562D01*
X138379891Y-221010971D01*
X138436460Y-220962605D01*
X138495982Y-220915464D01*
X138557881Y-220870212D01*
X138621210Y-220827880D01*
X138685971Y-220788467D01*
X138752163Y-220751974D01*
X138819785Y-220718400D01*
X138888839Y-220687746D01*
X138959324Y-220660011D01*
X139031241Y-220635196D01*
X139104588Y-220613300D01*
X139179366Y-220594323D01*
X139255576Y-220578266D01*
X139333216Y-220565128D01*
X139412288Y-220554910D01*
X139492791Y-220547612D01*
X139574725Y-220543232D01*
X139658090Y-220541773D01*
X139748370Y-220543713D01*
G37*
G36*
X144161580Y-220543151D02*
G01*
X144227946Y-220547285D01*
X144293127Y-220554176D01*
X144357124Y-220563823D01*
X144419935Y-220576227D01*
X144481562Y-220591386D01*
X144542003Y-220609302D01*
X144601260Y-220629975D01*
X144659331Y-220653404D01*
X144716218Y-220679589D01*
X144753484Y-220698577D01*
X144807584Y-220728746D01*
X144858877Y-220761002D01*
X144907361Y-220795344D01*
X144967640Y-220844379D01*
X145022926Y-220897124D01*
X145073221Y-220953579D01*
X145118525Y-221013743D01*
X145158836Y-221077616D01*
X145185794Y-221127955D01*
X145214967Y-221190524D01*
X145240205Y-221253664D01*
X145261507Y-221317377D01*
X145278873Y-221381663D01*
X145292304Y-221446521D01*
X145301800Y-221511951D01*
X145304496Y-221538283D01*
X145309340Y-221605846D01*
X145311966Y-221677559D01*
X145312470Y-221737918D01*
X145311554Y-221800932D01*
X145309219Y-221866603D01*
X145305463Y-221934930D01*
X145300289Y-222005913D01*
X145297169Y-222042401D01*
X142861579Y-222042401D01*
X142849601Y-222119578D01*
X142840044Y-222194488D01*
X142832908Y-222267131D01*
X142828194Y-222337507D01*
X142825901Y-222405617D01*
X142826030Y-222471459D01*
X142828581Y-222535035D01*
X142833552Y-222596343D01*
X142840945Y-222655385D01*
X142854569Y-222730582D01*
X142858648Y-222748751D01*
X142877058Y-222819185D01*
X142898582Y-222886138D01*
X142923220Y-222949610D01*
X142950972Y-223009602D01*
X142981838Y-223066114D01*
X143015818Y-223119145D01*
X143052913Y-223168696D01*
X143093121Y-223214766D01*
X143135597Y-223257173D01*
X143179492Y-223296466D01*
X143236357Y-223341202D01*
X143295440Y-223381073D01*
X143356742Y-223416078D01*
X143420262Y-223446217D01*
X143472675Y-223466825D01*
X143539465Y-223488778D01*
X143606111Y-223507011D01*
X143672615Y-223521522D01*
X143738976Y-223532313D01*
X143805193Y-223539382D01*
X143871268Y-223542731D01*
X143897657Y-223543029D01*
X143961010Y-223541546D01*
X144024305Y-223537098D01*
X144087543Y-223529685D01*
X144150723Y-223519307D01*
X144213847Y-223505963D01*
X144276913Y-223489654D01*
X144339922Y-223470380D01*
X144402874Y-223448140D01*
X144465768Y-223422936D01*
X144528605Y-223394766D01*
X144591385Y-223363630D01*
X144654108Y-223329530D01*
X144716773Y-223292464D01*
X144779382Y-223252433D01*
X144841932Y-223209437D01*
X144904426Y-223163475D01*
X145036317Y-223298297D01*
X144988421Y-223361512D01*
X144939803Y-223422564D01*
X144890464Y-223481451D01*
X144840404Y-223538174D01*
X144789623Y-223592734D01*
X144738120Y-223645130D01*
X144685896Y-223695362D01*
X144632950Y-223743430D01*
X144579284Y-223789334D01*
X144524896Y-223833075D01*
X144488236Y-223861033D01*
X144432762Y-223901257D01*
X144376799Y-223939498D01*
X144320346Y-223975755D01*
X144263403Y-224010029D01*
X144205971Y-224042319D01*
X144148050Y-224072625D01*
X144089639Y-224100949D01*
X144030739Y-224127288D01*
X143971349Y-224151644D01*
X143911470Y-224174017D01*
X143871279Y-224187830D01*
X143810790Y-224206686D01*
X143750224Y-224223688D01*
X143689581Y-224238835D01*
X143628860Y-224252127D01*
X143568062Y-224263564D01*
X143507187Y-224273147D01*
X143446235Y-224280875D01*
X143385205Y-224286748D01*
X143324098Y-224290767D01*
X143262914Y-224292931D01*
X143222081Y-224293343D01*
X143140027Y-224291437D01*
X143059828Y-224285718D01*
X142981483Y-224276187D01*
X142904993Y-224262843D01*
X142830358Y-224245687D01*
X142757577Y-224224718D01*
X142686652Y-224199937D01*
X142617580Y-224171343D01*
X142550364Y-224138937D01*
X142485002Y-224102719D01*
X142442458Y-224076455D01*
X142381025Y-224034114D01*
X142323121Y-223988425D01*
X142268746Y-223939386D01*
X142217900Y-223886999D01*
X142170583Y-223831263D01*
X142126795Y-223772178D01*
X142086537Y-223709745D01*
X142049807Y-223643962D01*
X142016607Y-223574831D01*
X141986936Y-223502351D01*
X141969116Y-223452170D01*
X141945713Y-223374543D01*
X141926612Y-223294983D01*
X141911813Y-223213491D01*
X141901315Y-223130068D01*
X141895120Y-223044712D01*
X141893926Y-222989664D01*
X142017104Y-222989664D01*
X142020017Y-223068335D01*
X142026858Y-223144957D01*
X142037626Y-223219529D01*
X142052320Y-223292052D01*
X142070942Y-223362526D01*
X142093491Y-223430950D01*
X142119966Y-223497325D01*
X142150369Y-223561650D01*
X142184698Y-223623927D01*
X142222955Y-223684153D01*
X142265138Y-223742331D01*
X142310378Y-223797698D01*
X142357439Y-223849492D01*
X142406320Y-223897715D01*
X142457021Y-223942366D01*
X142509543Y-223983444D01*
X142563885Y-224020951D01*
X142620048Y-224054885D01*
X142678031Y-224085248D01*
X142737834Y-224112038D01*
X142799457Y-224135257D01*
X142862901Y-224154903D01*
X142928166Y-224170977D01*
X142995250Y-224183479D01*
X143064156Y-224192409D01*
X143134881Y-224197767D01*
X143207427Y-224199554D01*
X143272020Y-224198188D01*
X143337206Y-224194092D01*
X143402984Y-224187266D01*
X143469354Y-224177709D01*
X143536318Y-224165422D01*
X143603873Y-224150403D01*
X143672021Y-224132655D01*
X143740762Y-224112176D01*
X143810095Y-224088966D01*
X143880020Y-224063026D01*
X143926966Y-224044215D01*
X143997175Y-224013775D01*
X144066019Y-223980708D01*
X144133497Y-223945013D01*
X144199610Y-223906691D01*
X144264358Y-223865741D01*
X144327740Y-223822164D01*
X144389757Y-223775959D01*
X144450409Y-223727127D01*
X144509696Y-223675667D01*
X144567617Y-223621580D01*
X144605473Y-223584062D01*
X144553554Y-223611337D01*
X144484368Y-223646222D01*
X144415228Y-223679412D01*
X144346134Y-223710908D01*
X144277086Y-223740709D01*
X144208084Y-223768816D01*
X144139127Y-223795229D01*
X144070216Y-223819947D01*
X144052996Y-223825862D01*
X143982906Y-223847500D01*
X143910388Y-223866254D01*
X143835444Y-223882122D01*
X143777643Y-223892130D01*
X143718476Y-223900514D01*
X143657945Y-223907276D01*
X143596048Y-223912416D01*
X143532786Y-223915932D01*
X143468158Y-223917825D01*
X143424315Y-223918186D01*
X143350326Y-223916549D01*
X143278570Y-223911637D01*
X143209047Y-223903451D01*
X143141756Y-223891991D01*
X143076698Y-223877256D01*
X143013872Y-223859247D01*
X142953279Y-223837963D01*
X142894918Y-223813406D01*
X142838790Y-223785573D01*
X142784894Y-223754467D01*
X142733231Y-223720086D01*
X142683801Y-223682430D01*
X142636603Y-223641501D01*
X142591637Y-223597296D01*
X142548904Y-223549818D01*
X142508404Y-223499065D01*
X142470972Y-223445685D01*
X142437077Y-223390324D01*
X142406721Y-223332982D01*
X142379902Y-223273659D01*
X142356620Y-223212356D01*
X142336877Y-223149073D01*
X142320671Y-223083808D01*
X142308003Y-223016563D01*
X142298872Y-222947338D01*
X142293279Y-222876131D01*
X142291224Y-222802944D01*
X142292707Y-222727777D01*
X142297727Y-222650628D01*
X142306285Y-222571499D01*
X142318381Y-222490390D01*
X142334014Y-222407299D01*
X142351780Y-222328113D01*
X142371555Y-222250473D01*
X142393340Y-222174378D01*
X142417133Y-222099828D01*
X142442936Y-222026824D01*
X142470749Y-221955366D01*
X142500570Y-221885454D01*
X142532401Y-221817087D01*
X142560788Y-221761033D01*
X142945110Y-221761033D01*
X144353414Y-221761033D01*
X144381258Y-221627676D01*
X144391860Y-221569493D01*
X144400926Y-221499018D01*
X144405341Y-221431047D01*
X144405105Y-221365581D01*
X144400217Y-221302620D01*
X144390679Y-221242162D01*
X144382723Y-221207090D01*
X144362802Y-221140835D01*
X144337111Y-221080557D01*
X144305650Y-221026255D01*
X144268418Y-220977929D01*
X144225416Y-220935580D01*
X144209800Y-220922791D01*
X144160323Y-220888926D01*
X144106416Y-220862067D01*
X144048078Y-220842214D01*
X143985310Y-220829369D01*
X143918111Y-220823530D01*
X143894726Y-220823140D01*
X143818362Y-220827422D01*
X143743143Y-220840268D01*
X143669069Y-220861677D01*
X143614264Y-220883354D01*
X143560104Y-220909848D01*
X143506588Y-220941160D01*
X143453715Y-220977288D01*
X143401487Y-221018234D01*
X143349903Y-221063996D01*
X143315871Y-221097181D01*
X143266794Y-221149581D01*
X143220679Y-221204016D01*
X143177527Y-221260486D01*
X143137337Y-221318992D01*
X143100109Y-221379532D01*
X143065844Y-221442107D01*
X143034542Y-221506717D01*
X143006201Y-221573363D01*
X142980823Y-221642043D01*
X142958408Y-221712759D01*
X142945110Y-221761033D01*
X142560788Y-221761033D01*
X142566241Y-221750265D01*
X142602090Y-221684989D01*
X142627106Y-221642331D01*
X142666291Y-221578820D01*
X142707460Y-221515231D01*
X142750612Y-221451565D01*
X142795748Y-221387822D01*
X142842867Y-221324002D01*
X142891970Y-221260104D01*
X142943056Y-221196129D01*
X142996126Y-221132077D01*
X143051180Y-221067948D01*
X143108217Y-221003741D01*
X143147343Y-220960893D01*
X143093045Y-220999549D01*
X143040061Y-221038946D01*
X142988391Y-221079084D01*
X142938035Y-221119964D01*
X142888992Y-221161585D01*
X142841263Y-221203947D01*
X142794848Y-221247051D01*
X142749746Y-221290896D01*
X142705959Y-221335482D01*
X142663485Y-221380810D01*
X142622325Y-221426879D01*
X142582478Y-221473689D01*
X142543946Y-221521240D01*
X142506727Y-221569533D01*
X142470821Y-221618567D01*
X142436230Y-221668343D01*
X142402953Y-221718860D01*
X142370989Y-221770118D01*
X142340339Y-221822117D01*
X142311002Y-221874858D01*
X142282980Y-221928340D01*
X142256271Y-221982563D01*
X142230876Y-222037528D01*
X142206795Y-222093234D01*
X142184027Y-222149681D01*
X142162573Y-222206870D01*
X142142433Y-222264800D01*
X142123607Y-222323471D01*
X142106094Y-222382883D01*
X142089896Y-222443037D01*
X142075011Y-222503932D01*
X142061439Y-222565569D01*
X142044718Y-222654487D01*
X142031924Y-222741355D01*
X142023057Y-222826174D01*
X142018117Y-222908944D01*
X142017104Y-222989664D01*
X141893926Y-222989664D01*
X141893227Y-222957424D01*
X141894354Y-222898159D01*
X141897394Y-222838035D01*
X141902346Y-222777053D01*
X141909209Y-222715211D01*
X141917985Y-222652512D01*
X141928673Y-222588953D01*
X141941272Y-222524536D01*
X141958304Y-222448312D01*
X141977525Y-222372964D01*
X141998936Y-222298492D01*
X142022536Y-222224896D01*
X142048326Y-222152175D01*
X142076306Y-222080331D01*
X142106475Y-222009362D01*
X142138834Y-221939269D01*
X142173382Y-221870052D01*
X142210120Y-221801711D01*
X142235829Y-221756637D01*
X142275881Y-221689802D01*
X142317454Y-221624488D01*
X142360546Y-221560693D01*
X142405158Y-221498418D01*
X142451290Y-221437663D01*
X142498941Y-221378428D01*
X142548113Y-221320713D01*
X142598804Y-221264518D01*
X142651015Y-221209842D01*
X142704747Y-221156686D01*
X142741412Y-221122094D01*
X142797379Y-221071780D01*
X142854275Y-221023605D01*
X142912097Y-220977567D01*
X142970847Y-220933668D01*
X143030524Y-220891907D01*
X143091129Y-220852284D01*
X143152661Y-220814798D01*
X143181941Y-220798228D01*
X144198076Y-220798228D01*
X144253832Y-220828659D01*
X144304596Y-220861334D01*
X144361032Y-220905333D01*
X144409668Y-220952839D01*
X144450505Y-221003851D01*
X144483542Y-221058369D01*
X144504356Y-221104508D01*
X144523920Y-221168414D01*
X144534109Y-221226495D01*
X144539444Y-221290757D01*
X144539925Y-221361202D01*
X144535552Y-221437830D01*
X144529086Y-221499357D01*
X144519890Y-221564363D01*
X144507963Y-221632845D01*
X144498495Y-221680433D01*
X144482375Y-221761033D01*
X144763742Y-221761033D01*
X144777275Y-221677940D01*
X144787098Y-221599020D01*
X144793212Y-221524273D01*
X144795616Y-221453699D01*
X144794311Y-221387298D01*
X144789296Y-221325071D01*
X144780572Y-221267016D01*
X144763170Y-221196102D01*
X144739173Y-221132607D01*
X144716848Y-221089854D01*
X144680852Y-221037532D01*
X144636614Y-220989745D01*
X144584132Y-220946491D01*
X144523407Y-220907771D01*
X144454439Y-220873584D01*
X144397304Y-220850920D01*
X144335531Y-220830805D01*
X144269122Y-220813241D01*
X144198076Y-220798228D01*
X143181941Y-220798228D01*
X143215121Y-220779451D01*
X143278507Y-220746243D01*
X143342821Y-220715172D01*
X143386213Y-220695646D01*
X143451699Y-220668147D01*
X143517365Y-220643353D01*
X143583212Y-220621264D01*
X143649239Y-220601879D01*
X143715447Y-220585200D01*
X143781835Y-220571225D01*
X143848403Y-220559955D01*
X143915151Y-220551390D01*
X143982080Y-220545529D01*
X144049189Y-220542374D01*
X144094028Y-220541773D01*
X144161580Y-220543151D01*
G37*
G36*
X146862277Y-223443378D02*
G01*
X146850878Y-223501827D01*
X146838685Y-223574390D01*
X146829927Y-223640817D01*
X146824603Y-223701106D01*
X146822778Y-223767839D01*
X146827673Y-223835261D01*
X146840295Y-223888877D01*
X146878397Y-223942732D01*
X146936981Y-223977233D01*
X146993252Y-223994664D01*
X147061545Y-224006085D01*
X147124834Y-224010893D01*
X147177350Y-224011975D01*
X147285794Y-224011975D01*
X147246227Y-224199554D01*
X145238550Y-224199554D01*
X145278118Y-224011975D01*
X145374838Y-224011975D01*
X145789562Y-224011975D01*
X145857798Y-224006571D01*
X145920354Y-223996954D01*
X145990565Y-223979008D01*
X146051902Y-223954479D01*
X146104367Y-223923366D01*
X146155612Y-223877342D01*
X146176443Y-223850775D01*
X146213417Y-223790479D01*
X146241946Y-223732913D01*
X146268400Y-223668692D01*
X146288070Y-223612523D01*
X146306411Y-223552096D01*
X146323424Y-223487410D01*
X146339109Y-223418465D01*
X147121663Y-219650775D01*
X147136592Y-219578280D01*
X147149873Y-219509541D01*
X147161505Y-219444557D01*
X147171488Y-219383329D01*
X147181649Y-219312074D01*
X147189234Y-219246686D01*
X147194243Y-219187166D01*
X147194936Y-219175967D01*
X147194970Y-219111532D01*
X147187379Y-219051220D01*
X147168887Y-218986064D01*
X147140015Y-218926518D01*
X147107008Y-218879944D01*
X147064659Y-218839106D01*
X147010151Y-218806717D01*
X146943484Y-218782778D01*
X146878640Y-218769282D01*
X146805353Y-218761654D01*
X146740644Y-218759777D01*
X146677080Y-218760326D01*
X146613015Y-218762258D01*
X146551076Y-218766036D01*
X146523756Y-218768570D01*
X146586606Y-218789830D01*
X146643815Y-218812945D01*
X146711318Y-218846651D01*
X146768791Y-218883654D01*
X146816235Y-218923954D01*
X146861437Y-218978966D01*
X146890968Y-219039130D01*
X146903310Y-219090970D01*
X146910387Y-219160665D01*
X146912390Y-219221161D01*
X146911142Y-219285870D01*
X146906643Y-219354792D01*
X146898892Y-219427928D01*
X146887889Y-219505277D01*
X146877504Y-219566053D01*
X146865289Y-219629199D01*
X146860811Y-219650775D01*
X146047483Y-223565011D01*
X146030630Y-223634185D01*
X146009381Y-223699558D01*
X145983735Y-223761130D01*
X145953693Y-223818901D01*
X145919255Y-223872871D01*
X145880421Y-223923040D01*
X145837190Y-223969408D01*
X145789562Y-224011975D01*
X145374838Y-224011975D01*
X145446694Y-224009471D01*
X145512969Y-224001957D01*
X145573662Y-223989435D01*
X145639127Y-223967797D01*
X145696554Y-223938945D01*
X145738271Y-223909393D01*
X145782647Y-223866666D01*
X145821253Y-223816520D01*
X145854088Y-223758955D01*
X145881153Y-223693971D01*
X145899300Y-223634150D01*
X145908264Y-223595785D01*
X146720128Y-219691808D01*
X146731123Y-219634204D01*
X146742377Y-219561126D01*
X146749739Y-219492306D01*
X146753208Y-219427746D01*
X146752784Y-219367445D01*
X146746781Y-219298058D01*
X146734695Y-219235325D01*
X146724524Y-219200879D01*
X146699344Y-219146576D01*
X146661355Y-219094491D01*
X146610557Y-219044624D01*
X146560698Y-219006327D01*
X146502640Y-218969450D01*
X146436386Y-218933993D01*
X146381315Y-218908332D01*
X146342040Y-218891668D01*
X146375745Y-218731933D01*
X147776722Y-218290831D01*
X147933526Y-218290831D01*
X146862277Y-223443378D01*
G37*
G36*
X149669268Y-220542620D02*
G01*
X149741534Y-220545161D01*
X149812150Y-220549398D01*
X149881118Y-220555328D01*
X149948438Y-220562953D01*
X150014109Y-220572272D01*
X150078131Y-220583286D01*
X150140504Y-220595995D01*
X150203107Y-220609939D01*
X150267083Y-220625395D01*
X150332433Y-220642363D01*
X150399158Y-220660841D01*
X150467256Y-220680831D01*
X150536727Y-220702332D01*
X150607573Y-220725344D01*
X150679793Y-220749868D01*
X150518592Y-221725862D01*
X150320756Y-221725862D01*
X150292557Y-221665080D01*
X150264015Y-221606198D01*
X150235129Y-221549217D01*
X150205900Y-221494137D01*
X150176328Y-221440956D01*
X150146412Y-221389677D01*
X150100894Y-221316321D01*
X150054603Y-221247241D01*
X150007540Y-221182438D01*
X149959704Y-221121910D01*
X149911095Y-221065659D01*
X149861713Y-221013684D01*
X149828362Y-220981410D01*
X149777705Y-220936364D01*
X149726301Y-220895749D01*
X149674150Y-220859565D01*
X149621252Y-220827812D01*
X149567607Y-220800489D01*
X149513214Y-220777597D01*
X149439529Y-220753966D01*
X149364516Y-220738213D01*
X149288175Y-220730336D01*
X149249506Y-220729351D01*
X149190022Y-220732535D01*
X149121192Y-220744763D01*
X149055143Y-220766161D01*
X148991877Y-220796729D01*
X148941280Y-220829208D01*
X148902193Y-220859777D01*
X148857464Y-220900757D01*
X148811439Y-220951727D01*
X148773761Y-221004655D01*
X148744429Y-221059541D01*
X148723443Y-221116385D01*
X148716080Y-221145541D01*
X148707479Y-221206664D01*
X148708303Y-221274533D01*
X148721286Y-221336425D01*
X148746428Y-221392342D01*
X148783729Y-221442282D01*
X148806938Y-221465011D01*
X148856097Y-221504438D01*
X148906861Y-221539998D01*
X148967792Y-221579130D01*
X149020162Y-221610824D01*
X149078251Y-221644526D01*
X149142059Y-221680238D01*
X149211585Y-221717959D01*
X149286830Y-221757690D01*
X149340170Y-221785293D01*
X149396052Y-221813789D01*
X149452718Y-221842486D01*
X149508412Y-221871057D01*
X149563131Y-221899501D01*
X149616878Y-221927820D01*
X149669652Y-221956013D01*
X149721452Y-221984080D01*
X149797328Y-222025944D01*
X149871015Y-222067525D01*
X149942512Y-222108823D01*
X150011819Y-222149837D01*
X150078937Y-222190568D01*
X150143865Y-222231015D01*
X150185934Y-222257823D01*
X150236835Y-222291666D01*
X150284028Y-222328714D01*
X150327510Y-222368969D01*
X150367284Y-222412429D01*
X150403348Y-222459094D01*
X150435702Y-222508966D01*
X150464347Y-222562043D01*
X150489283Y-222618325D01*
X150510051Y-222676852D01*
X150526194Y-222736661D01*
X150537712Y-222797752D01*
X150544604Y-222860126D01*
X150546871Y-222923782D01*
X150544513Y-222988720D01*
X150537529Y-223054940D01*
X150525920Y-223122443D01*
X150512061Y-223181643D01*
X150495214Y-223239994D01*
X150475378Y-223297495D01*
X150452555Y-223354145D01*
X150426744Y-223409945D01*
X150397944Y-223464896D01*
X150366156Y-223518996D01*
X150331380Y-223572246D01*
X150293616Y-223624646D01*
X150252864Y-223676196D01*
X150224035Y-223710091D01*
X150179054Y-223759408D01*
X150132038Y-223806794D01*
X150082987Y-223852247D01*
X150031900Y-223895769D01*
X149978779Y-223937358D01*
X149923622Y-223977016D01*
X149866431Y-224014741D01*
X149807204Y-224050535D01*
X149745943Y-224084396D01*
X149682646Y-224116326D01*
X149639318Y-224136539D01*
X149573523Y-224164561D01*
X149506929Y-224189828D01*
X149439536Y-224212338D01*
X149371345Y-224232091D01*
X149302356Y-224249089D01*
X149232568Y-224263330D01*
X149161981Y-224274814D01*
X149090596Y-224283543D01*
X149018412Y-224289515D01*
X148945430Y-224292730D01*
X148896331Y-224293343D01*
X148825915Y-224292083D01*
X148754617Y-224288305D01*
X148682438Y-224282008D01*
X148609376Y-224273193D01*
X148535434Y-224261858D01*
X148460610Y-224248005D01*
X148384904Y-224231633D01*
X148308317Y-224212743D01*
X148230848Y-224191333D01*
X148152497Y-224167405D01*
X148073265Y-224140958D01*
X147993152Y-224111992D01*
X147912157Y-224080508D01*
X147830280Y-224046505D01*
X147747522Y-224009983D01*
X147663882Y-223970942D01*
X147705922Y-223768709D01*
X147855857Y-223768709D01*
X147919398Y-223797997D01*
X147979299Y-223822715D01*
X148047259Y-223848578D01*
X148103519Y-223868727D01*
X148164313Y-223889519D01*
X148229640Y-223910956D01*
X148299501Y-223933036D01*
X148373896Y-223955761D01*
X148452824Y-223979130D01*
X148480142Y-223987062D01*
X148428553Y-223943327D01*
X148380765Y-223900783D01*
X148336779Y-223859430D01*
X148287141Y-223809413D01*
X148243442Y-223761256D01*
X148205682Y-223714959D01*
X148173861Y-223670523D01*
X148138759Y-223612976D01*
X148107933Y-223557699D01*
X148075675Y-223495768D01*
X148048839Y-223441431D01*
X148021087Y-223382836D01*
X147992419Y-223319982D01*
X147962835Y-223252868D01*
X147855857Y-223768709D01*
X147705922Y-223768709D01*
X147888097Y-222892366D01*
X148106450Y-222892366D01*
X148130773Y-222960727D01*
X148155749Y-223026959D01*
X148181377Y-223091061D01*
X148207658Y-223153034D01*
X148234592Y-223212877D01*
X148262178Y-223270591D01*
X148290416Y-223326175D01*
X148319308Y-223379630D01*
X148348851Y-223430956D01*
X148394391Y-223503951D01*
X148441398Y-223572155D01*
X148489874Y-223635567D01*
X148539819Y-223694188D01*
X148573931Y-223730607D01*
X148625975Y-223780891D01*
X148678791Y-223826228D01*
X148732380Y-223866620D01*
X148786743Y-223902066D01*
X148841878Y-223932566D01*
X148897785Y-223958119D01*
X148954466Y-223978727D01*
X149011919Y-223994390D01*
X149070145Y-224005106D01*
X149129144Y-224010876D01*
X149168906Y-224011975D01*
X149232627Y-224008683D01*
X149295560Y-223998809D01*
X149357706Y-223982351D01*
X149419064Y-223959310D01*
X149479636Y-223929686D01*
X149539421Y-223893479D01*
X149563114Y-223877153D01*
X149618470Y-223833669D01*
X149666383Y-223788395D01*
X149706855Y-223741333D01*
X149739885Y-223692482D01*
X149769698Y-223631500D01*
X149788795Y-223567941D01*
X149799800Y-223500393D01*
X149803506Y-223439714D01*
X149798320Y-223375967D01*
X149778986Y-223314097D01*
X149745346Y-223265691D01*
X149733107Y-223254334D01*
X149684221Y-223216249D01*
X149635380Y-223179298D01*
X149586584Y-223143480D01*
X149537835Y-223108795D01*
X149489132Y-223075245D01*
X149416162Y-223027043D01*
X149343296Y-222981392D01*
X149270532Y-222938292D01*
X149197872Y-222897741D01*
X149125315Y-222859741D01*
X149052860Y-222824291D01*
X148980509Y-222791391D01*
X148956415Y-222780991D01*
X148893638Y-222754819D01*
X148833168Y-222727960D01*
X148775005Y-222700414D01*
X148719148Y-222672181D01*
X148665599Y-222643261D01*
X148614357Y-222613654D01*
X148518793Y-222552380D01*
X148432457Y-222488358D01*
X148355349Y-222421588D01*
X148287468Y-222352070D01*
X148228816Y-222279805D01*
X148179391Y-222204792D01*
X148139194Y-222127031D01*
X148108225Y-222046522D01*
X148086483Y-221963266D01*
X148073969Y-221877262D01*
X148070684Y-221788510D01*
X148072164Y-221765720D01*
X148213360Y-221765720D01*
X148216726Y-221829978D01*
X148225450Y-221891635D01*
X148239532Y-221950689D01*
X148258972Y-222007142D01*
X148283770Y-222060994D01*
X148313927Y-222112243D01*
X148349441Y-222160891D01*
X148376094Y-222191877D01*
X148420453Y-222237541D01*
X148469448Y-222283308D01*
X148523081Y-222329178D01*
X148581350Y-222375151D01*
X148644256Y-222421227D01*
X148711798Y-222467406D01*
X148783978Y-222513688D01*
X148834673Y-222544600D01*
X148887430Y-222575558D01*
X148942247Y-222606562D01*
X148999125Y-222637611D01*
X149058064Y-222668706D01*
X149088306Y-222684271D01*
X149148378Y-222715057D01*
X149206230Y-222745133D01*
X149261860Y-222774500D01*
X149315269Y-222803156D01*
X149391218Y-222844810D01*
X149462169Y-222884867D01*
X149528124Y-222923326D01*
X149589080Y-222960189D01*
X149645040Y-222995454D01*
X149696001Y-223029123D01*
X149756177Y-223071529D01*
X149782933Y-223091668D01*
X149830102Y-223133136D01*
X149869028Y-223178405D01*
X149906094Y-223240336D01*
X149930280Y-223308206D01*
X149940355Y-223366779D01*
X149942187Y-223429152D01*
X149935775Y-223495327D01*
X149929479Y-223529840D01*
X149912709Y-223591496D01*
X149890406Y-223651557D01*
X149865182Y-223708167D01*
X149834627Y-223768565D01*
X149829827Y-223777502D01*
X149876127Y-223739652D01*
X149924933Y-223697056D01*
X149968130Y-223656144D01*
X150010628Y-223611447D01*
X150029130Y-223589923D01*
X150065451Y-223537476D01*
X150092287Y-223483071D01*
X150113994Y-223421339D01*
X150128781Y-223361312D01*
X150139982Y-223280202D01*
X150139514Y-223202287D01*
X150127377Y-223127566D01*
X150103570Y-223056039D01*
X150068094Y-222987706D01*
X150020949Y-222922568D01*
X149962135Y-222860624D01*
X149916443Y-222821102D01*
X149865564Y-222783000D01*
X149809499Y-222746318D01*
X149748247Y-222711056D01*
X149681809Y-222677213D01*
X149646645Y-222660824D01*
X149583230Y-222631182D01*
X149521578Y-222601976D01*
X149461689Y-222573205D01*
X149403563Y-222544869D01*
X149347200Y-222516968D01*
X149292600Y-222489502D01*
X149239763Y-222462472D01*
X149163814Y-222422741D01*
X149091832Y-222383990D01*
X149023817Y-222346217D01*
X148959770Y-222309423D01*
X148899689Y-222273608D01*
X148843575Y-222238772D01*
X148791316Y-222204322D01*
X148742252Y-222169666D01*
X148681802Y-222123138D01*
X148627031Y-222076244D01*
X148577938Y-222028983D01*
X148534524Y-221981355D01*
X148496788Y-221933362D01*
X148457604Y-221872854D01*
X148450832Y-221860684D01*
X148422325Y-221796992D01*
X148401831Y-221728650D01*
X148391207Y-221670627D01*
X148385711Y-221609627D01*
X148385345Y-221545651D01*
X148390107Y-221478698D01*
X148399999Y-221408768D01*
X148406869Y-221372687D01*
X148424317Y-221304749D01*
X148444524Y-221245930D01*
X148469883Y-221185108D01*
X148500395Y-221122283D01*
X148528513Y-221070579D01*
X148559929Y-221017594D01*
X148585654Y-220977013D01*
X148537191Y-221026421D01*
X148491819Y-221075726D01*
X148449539Y-221124927D01*
X148410349Y-221174026D01*
X148374251Y-221223021D01*
X148362905Y-221239330D01*
X148331632Y-221289803D01*
X148303760Y-221344500D01*
X148279288Y-221403421D01*
X148258216Y-221466568D01*
X148240545Y-221533939D01*
X148235410Y-221557334D01*
X148222702Y-221629398D01*
X148215352Y-221698860D01*
X148213360Y-221765720D01*
X148072164Y-221765720D01*
X148076626Y-221697011D01*
X148091795Y-221602764D01*
X148112425Y-221518910D01*
X148138593Y-221437711D01*
X148170299Y-221359164D01*
X148207544Y-221283271D01*
X148250327Y-221210031D01*
X148298648Y-221139444D01*
X148352508Y-221071511D01*
X148391491Y-221027696D01*
X148432936Y-220985061D01*
X148476843Y-220943604D01*
X148523211Y-220903327D01*
X148572040Y-220864229D01*
X148597378Y-220845122D01*
X148649362Y-220808388D01*
X148702731Y-220774025D01*
X148757485Y-220742031D01*
X148813625Y-220712407D01*
X148836631Y-220701507D01*
X149549925Y-220701507D01*
X149617863Y-220728779D01*
X149681725Y-220757103D01*
X149741511Y-220786481D01*
X149797221Y-220816912D01*
X149848856Y-220848397D01*
X149907667Y-220889233D01*
X149960110Y-220931716D01*
X149979304Y-220949170D01*
X150026903Y-220996389D01*
X150075360Y-221050120D01*
X150114744Y-221097793D01*
X150154678Y-221149634D01*
X150195161Y-221205642D01*
X150236194Y-221265817D01*
X150277776Y-221330160D01*
X150298774Y-221363894D01*
X150361788Y-220890551D01*
X150302552Y-220864517D01*
X150246475Y-220840634D01*
X150180823Y-220813808D01*
X150120108Y-220790345D01*
X150064331Y-220770245D01*
X150003915Y-220750564D01*
X149976373Y-220742540D01*
X149918516Y-220728596D01*
X149850458Y-220717536D01*
X149785951Y-220710523D01*
X149714360Y-220705515D01*
X149651986Y-220702950D01*
X149585079Y-220701668D01*
X149549925Y-220701507D01*
X148836631Y-220701507D01*
X148871149Y-220685153D01*
X148930060Y-220660269D01*
X148990355Y-220637754D01*
X149052036Y-220617610D01*
X149115102Y-220599836D01*
X149179554Y-220584431D01*
X149245391Y-220571397D01*
X149312613Y-220560732D01*
X149381220Y-220552437D01*
X149451213Y-220546512D01*
X149522591Y-220542958D01*
X149595354Y-220541773D01*
X149669268Y-220542620D01*
G37*
G36*
X155201094Y-218385624D02*
G01*
X155277481Y-218388638D01*
X155352219Y-218393662D01*
X155425309Y-218400694D01*
X155496750Y-218409736D01*
X155566542Y-218420787D01*
X155634686Y-218433847D01*
X155701181Y-218448917D01*
X155766028Y-218465996D01*
X155829226Y-218485084D01*
X155870442Y-218498925D01*
X155930608Y-218520843D01*
X155988560Y-218544280D01*
X156044296Y-218569237D01*
X156097816Y-218595714D01*
X156165731Y-218633381D01*
X156229708Y-218673750D01*
X156289745Y-218716821D01*
X156345845Y-218762593D01*
X156398006Y-218811068D01*
X156446275Y-218861970D01*
X156490696Y-218915024D01*
X156531271Y-218970230D01*
X156567999Y-219027589D01*
X156600880Y-219087100D01*
X156629915Y-219148764D01*
X156655102Y-219212580D01*
X156676443Y-219278549D01*
X156693983Y-219346280D01*
X156707034Y-219415386D01*
X156715598Y-219485865D01*
X156719674Y-219557718D01*
X156719262Y-219630945D01*
X156714362Y-219705546D01*
X156704974Y-219781521D01*
X156694987Y-219839404D01*
X156691098Y-219858870D01*
X156676530Y-219921853D01*
X156659207Y-219983857D01*
X156639127Y-220044882D01*
X156616291Y-220104929D01*
X156590698Y-220163997D01*
X156562349Y-220222085D01*
X156531244Y-220279195D01*
X156497382Y-220335326D01*
X156460765Y-220390478D01*
X156421390Y-220444652D01*
X156393610Y-220480223D01*
X156349603Y-220532194D01*
X156302763Y-220582594D01*
X156253089Y-220631422D01*
X156200582Y-220678678D01*
X156145241Y-220724364D01*
X156087066Y-220768478D01*
X156026058Y-220811020D01*
X155962216Y-220851992D01*
X155895540Y-220891391D01*
X155826031Y-220929220D01*
X155778118Y-220953566D01*
X155704496Y-220988269D01*
X155628710Y-221020937D01*
X155550760Y-221051570D01*
X155470647Y-221080168D01*
X155388369Y-221106731D01*
X155303928Y-221131258D01*
X155246432Y-221146480D01*
X155187974Y-221160797D01*
X155128554Y-221174209D01*
X155068173Y-221186717D01*
X155006829Y-221198320D01*
X154944525Y-221209019D01*
X154881258Y-221218814D01*
X154978276Y-221233886D01*
X155071859Y-221251260D01*
X155162008Y-221270935D01*
X155248721Y-221292911D01*
X155332001Y-221317188D01*
X155411845Y-221343767D01*
X155488255Y-221372647D01*
X155561230Y-221403828D01*
X155630771Y-221437310D01*
X155696876Y-221473093D01*
X155759548Y-221511178D01*
X155818784Y-221551564D01*
X155874586Y-221594251D01*
X155926953Y-221639240D01*
X155975886Y-221686529D01*
X156021384Y-221736120D01*
X156063481Y-221787646D01*
X156101846Y-221840740D01*
X156136479Y-221895403D01*
X156167380Y-221951634D01*
X156194548Y-222009434D01*
X156217984Y-222068802D01*
X156237687Y-222129738D01*
X156253659Y-222192244D01*
X156265897Y-222256317D01*
X156274404Y-222321960D01*
X156279178Y-222389170D01*
X156280220Y-222457949D01*
X156277530Y-222528297D01*
X156271107Y-222600213D01*
X156260952Y-222673698D01*
X156247064Y-222748751D01*
X156233617Y-222807127D01*
X156218007Y-222864654D01*
X156200232Y-222921330D01*
X156180294Y-222977156D01*
X156158192Y-223032132D01*
X156133926Y-223086258D01*
X156107496Y-223139534D01*
X156078903Y-223191960D01*
X156048145Y-223243536D01*
X156015224Y-223294262D01*
X155992075Y-223327607D01*
X155956002Y-223376735D01*
X155918126Y-223424653D01*
X155878447Y-223471360D01*
X155836965Y-223516857D01*
X155793680Y-223561142D01*
X155748591Y-223604217D01*
X155701699Y-223646082D01*
X155653004Y-223686735D01*
X155602506Y-223726178D01*
X155550205Y-223764410D01*
X155514336Y-223789226D01*
X155459170Y-223825259D01*
X155402486Y-223859722D01*
X155344281Y-223892613D01*
X155284556Y-223923933D01*
X155223312Y-223953682D01*
X155160548Y-223981859D01*
X155096264Y-224008464D01*
X155030460Y-224033499D01*
X154963136Y-224056962D01*
X154894293Y-224078854D01*
X154847553Y-224092575D01*
X154776524Y-224111693D01*
X154704670Y-224128931D01*
X154631993Y-224144288D01*
X154558491Y-224157765D01*
X154484165Y-224169361D01*
X154409014Y-224179077D01*
X154333040Y-224186913D01*
X154256241Y-224192867D01*
X154178617Y-224196942D01*
X154100169Y-224199136D01*
X154047413Y-224199554D01*
X150757462Y-224199554D01*
X150791156Y-224039819D01*
X154169046Y-224039819D01*
X154234974Y-224030797D01*
X154299403Y-224019485D01*
X154362332Y-224005884D01*
X154423761Y-223989993D01*
X154483690Y-223971812D01*
X154542119Y-223951342D01*
X154599049Y-223928581D01*
X154654479Y-223903531D01*
X154708409Y-223876191D01*
X154760839Y-223846562D01*
X154811769Y-223814642D01*
X154861200Y-223780433D01*
X154909130Y-223743934D01*
X154955561Y-223705145D01*
X155000492Y-223664066D01*
X155043924Y-223620698D01*
X155085947Y-223574988D01*
X155126287Y-223527252D01*
X155164944Y-223477490D01*
X155201918Y-223425701D01*
X155237210Y-223371885D01*
X155270818Y-223316043D01*
X155302743Y-223258175D01*
X155332985Y-223198280D01*
X155361544Y-223136359D01*
X155388421Y-223072411D01*
X155413614Y-223006437D01*
X155437124Y-222938436D01*
X155458952Y-222868409D01*
X155479096Y-222796355D01*
X155497557Y-222722275D01*
X155514336Y-222646169D01*
X155527885Y-222575587D01*
X155538859Y-222506722D01*
X155547257Y-222439574D01*
X155553079Y-222374144D01*
X155556324Y-222310430D01*
X155556994Y-222248435D01*
X155555088Y-222188156D01*
X155550606Y-222129595D01*
X155539052Y-222044974D01*
X155521703Y-221964216D01*
X155498558Y-221887323D01*
X155469616Y-221814293D01*
X155434879Y-221745128D01*
X155422012Y-221722931D01*
X155379946Y-221659480D01*
X155332882Y-221601567D01*
X155280821Y-221549193D01*
X155223763Y-221502357D01*
X155161707Y-221461059D01*
X155094654Y-221425300D01*
X155022603Y-221395079D01*
X154945555Y-221370397D01*
X154863509Y-221351253D01*
X154776466Y-221337647D01*
X154715661Y-221331654D01*
X154782908Y-221362875D01*
X154846161Y-221397187D01*
X154905422Y-221434591D01*
X154960690Y-221475086D01*
X155011966Y-221518671D01*
X155059248Y-221565349D01*
X155102538Y-221615117D01*
X155141835Y-221667976D01*
X155177139Y-221723927D01*
X155208450Y-221782969D01*
X155227106Y-221824048D01*
X155251767Y-221888563D01*
X155271894Y-221956815D01*
X155287487Y-222028801D01*
X155298547Y-222104522D01*
X155305073Y-222183979D01*
X155307065Y-222267171D01*
X155304523Y-222354098D01*
X155300310Y-222414124D01*
X155294082Y-222475811D01*
X155285839Y-222539158D01*
X155275580Y-222604164D01*
X155263307Y-222670831D01*
X155256415Y-222704787D01*
X155242221Y-222769266D01*
X155226751Y-222832276D01*
X155210004Y-222893818D01*
X155191981Y-222953892D01*
X155172681Y-223012497D01*
X155152104Y-223069635D01*
X155130251Y-223125303D01*
X155107122Y-223179504D01*
X155057033Y-223283500D01*
X155001838Y-223381622D01*
X154941536Y-223473872D01*
X154876129Y-223560248D01*
X154805615Y-223640751D01*
X154729995Y-223715380D01*
X154649269Y-223784136D01*
X154563437Y-223847019D01*
X154472499Y-223904029D01*
X154376454Y-223955166D01*
X154275303Y-224000429D01*
X154169046Y-224039819D01*
X150791156Y-224039819D01*
X150797029Y-224011975D01*
X150889353Y-224011975D01*
X151449158Y-224011975D01*
X151566394Y-224011975D01*
X151642140Y-224008952D01*
X151711841Y-223999885D01*
X151775497Y-223984772D01*
X151833107Y-223963615D01*
X151896620Y-223928667D01*
X151950687Y-223884274D01*
X151995309Y-223830436D01*
X152003100Y-223818535D01*
X152040066Y-223755122D01*
X152067475Y-223700786D01*
X152092960Y-223643244D01*
X152105675Y-223610463D01*
X152769563Y-223610463D01*
X152773320Y-223672773D01*
X152776862Y-223696902D01*
X152792707Y-223755337D01*
X152822138Y-223813632D01*
X152863856Y-223864044D01*
X152898495Y-223893273D01*
X152952991Y-223926795D01*
X153007137Y-223951018D01*
X153067314Y-223970473D01*
X153133522Y-223985159D01*
X153163742Y-223989993D01*
X153230323Y-223997464D01*
X153292655Y-224002508D01*
X153361213Y-224006480D01*
X153420541Y-224008884D01*
X153483853Y-224010601D01*
X153551150Y-224011632D01*
X153622430Y-224011975D01*
X153699474Y-224010635D01*
X153774535Y-224006617D01*
X153847611Y-223999919D01*
X153918705Y-223990543D01*
X153987814Y-223978487D01*
X154054941Y-223963752D01*
X154120083Y-223946339D01*
X154183243Y-223926246D01*
X154244418Y-223903474D01*
X154303610Y-223878023D01*
X154341970Y-223859567D01*
X154397895Y-223829780D01*
X154451913Y-223797572D01*
X154504026Y-223762942D01*
X154554232Y-223725890D01*
X154602532Y-223686417D01*
X154648926Y-223644523D01*
X154693413Y-223600207D01*
X154735995Y-223553470D01*
X154776670Y-223504311D01*
X154815438Y-223452731D01*
X154840225Y-223416999D01*
X154875830Y-223361212D01*
X154909554Y-223303209D01*
X154941398Y-223242991D01*
X154971361Y-223180557D01*
X154999443Y-223115908D01*
X155025646Y-223049044D01*
X155049967Y-222979964D01*
X155072409Y-222908669D01*
X155092969Y-222835159D01*
X155111650Y-222759433D01*
X155123058Y-222707718D01*
X155137986Y-222629300D01*
X155149797Y-222552866D01*
X155158491Y-222478416D01*
X155164068Y-222405949D01*
X155166528Y-222335465D01*
X155165872Y-222266965D01*
X155162098Y-222200448D01*
X155155207Y-222135915D01*
X155145199Y-222073366D01*
X155132074Y-222012800D01*
X155121593Y-221973524D01*
X155103690Y-221916260D01*
X155075411Y-221843834D01*
X155042095Y-221775896D01*
X155003741Y-221712447D01*
X154960350Y-221653485D01*
X154911921Y-221599011D01*
X154858455Y-221549025D01*
X154799951Y-221503527D01*
X154784538Y-221492854D01*
X154720310Y-221453012D01*
X154651456Y-221418482D01*
X154596780Y-221396071D01*
X154539503Y-221376648D01*
X154479624Y-221360213D01*
X154417143Y-221346767D01*
X154352061Y-221336308D01*
X154284376Y-221328838D01*
X154214090Y-221324355D01*
X154141202Y-221322861D01*
X153222361Y-221322861D01*
X152798844Y-223359847D01*
X152786715Y-223424103D01*
X152777806Y-223484067D01*
X152771366Y-223550356D01*
X152769563Y-223610463D01*
X152105675Y-223610463D01*
X152116522Y-223582496D01*
X152138160Y-223518542D01*
X152157875Y-223451383D01*
X152175666Y-223381018D01*
X152187748Y-223326141D01*
X152652958Y-221089854D01*
X153270721Y-221089854D01*
X154023966Y-221089854D01*
X154813847Y-221089854D01*
X154873739Y-221073718D01*
X154932148Y-221056085D01*
X154989075Y-221036955D01*
X155044519Y-221016329D01*
X155150959Y-220970585D01*
X155251469Y-220918853D01*
X155346048Y-220861134D01*
X155434697Y-220797426D01*
X155517415Y-220727731D01*
X155594203Y-220652048D01*
X155665060Y-220570378D01*
X155729987Y-220482719D01*
X155788983Y-220389073D01*
X155842048Y-220289439D01*
X155889183Y-220183818D01*
X155910527Y-220128761D01*
X155930388Y-220072208D01*
X155948766Y-220014158D01*
X155965662Y-219954611D01*
X155981075Y-219893567D01*
X155995005Y-219831026D01*
X156006889Y-219769691D01*
X156016713Y-219709336D01*
X156024475Y-219649959D01*
X156030176Y-219591561D01*
X156034573Y-219515220D01*
X156035305Y-219440619D01*
X156032375Y-219367758D01*
X156025780Y-219296638D01*
X156015522Y-219227258D01*
X156001463Y-219160282D01*
X155983465Y-219096374D01*
X155961529Y-219035535D01*
X155935654Y-218977764D01*
X155905842Y-218923061D01*
X155872090Y-218871426D01*
X155834400Y-218822860D01*
X155792772Y-218777362D01*
X155747137Y-218735688D01*
X155697426Y-218698594D01*
X155643639Y-218666079D01*
X155585777Y-218638144D01*
X155523838Y-218614788D01*
X155457824Y-218596012D01*
X155387734Y-218581815D01*
X155313568Y-218572198D01*
X155368445Y-218600603D01*
X155419871Y-218632511D01*
X155467844Y-218667922D01*
X155512366Y-218706837D01*
X155553436Y-218749255D01*
X155591054Y-218795177D01*
X155625221Y-218844602D01*
X155655935Y-218897530D01*
X155683198Y-218953961D01*
X155707009Y-219013896D01*
X155720965Y-219055799D01*
X155738945Y-219120783D01*
X155753319Y-219188240D01*
X155764087Y-219258170D01*
X155771248Y-219330572D01*
X155774803Y-219405448D01*
X155774752Y-219482797D01*
X155771094Y-219562618D01*
X155763830Y-219644913D01*
X155752959Y-219729680D01*
X155743708Y-219787566D01*
X155732855Y-219846551D01*
X155726827Y-219876455D01*
X155701966Y-219984235D01*
X155672811Y-220087756D01*
X155639363Y-220187018D01*
X155601622Y-220282020D01*
X155559587Y-220372764D01*
X155513259Y-220459249D01*
X155462638Y-220541475D01*
X155407723Y-220619442D01*
X155348516Y-220693150D01*
X155285014Y-220762599D01*
X155217220Y-220827789D01*
X155145132Y-220888720D01*
X155068751Y-220945392D01*
X154988076Y-220997805D01*
X154903108Y-221045959D01*
X154813847Y-221089854D01*
X154023966Y-221089854D01*
X154091079Y-221089327D01*
X154156132Y-221087747D01*
X154219123Y-221085114D01*
X154280054Y-221081427D01*
X154338924Y-221076687D01*
X154423366Y-221067603D01*
X154503170Y-221056148D01*
X154578338Y-221042324D01*
X154648869Y-221026129D01*
X154714763Y-221007565D01*
X154776020Y-220986630D01*
X154832640Y-220963326D01*
X154850483Y-220955032D01*
X154914803Y-220920845D01*
X154977337Y-220881301D01*
X155038085Y-220836398D01*
X155097047Y-220786138D01*
X155140096Y-220744926D01*
X155182140Y-220700700D01*
X155223180Y-220653461D01*
X155263216Y-220603207D01*
X155302246Y-220549940D01*
X155315033Y-220531514D01*
X155352381Y-220474778D01*
X155387488Y-220416676D01*
X155420353Y-220357209D01*
X155450977Y-220296377D01*
X155479361Y-220234180D01*
X155505503Y-220170617D01*
X155529404Y-220105689D01*
X155551064Y-220039396D01*
X155570482Y-219971737D01*
X155587660Y-219902713D01*
X155597867Y-219855939D01*
X155612063Y-219781452D01*
X155623146Y-219708202D01*
X155631114Y-219636189D01*
X155635968Y-219565412D01*
X155637709Y-219495871D01*
X155636335Y-219427567D01*
X155631847Y-219360500D01*
X155624245Y-219294669D01*
X155613964Y-219230578D01*
X155600706Y-219169464D01*
X155584471Y-219111326D01*
X155559992Y-219042840D01*
X155530862Y-218979006D01*
X155497081Y-218919822D01*
X155458648Y-218865290D01*
X155415400Y-218809577D01*
X155369003Y-218760590D01*
X155319458Y-218718329D01*
X155266765Y-218682795D01*
X155210923Y-218653986D01*
X155151933Y-218631904D01*
X155127455Y-218624955D01*
X155061946Y-218609756D01*
X155004232Y-218599452D01*
X154941801Y-218590797D01*
X154874653Y-218583790D01*
X154802789Y-218578432D01*
X154726207Y-218574723D01*
X154665676Y-218573023D01*
X154602491Y-218572250D01*
X154580839Y-218572198D01*
X154496905Y-218573486D01*
X154417658Y-218577350D01*
X154343100Y-218583790D01*
X154273231Y-218592806D01*
X154208049Y-218604398D01*
X154147556Y-218618566D01*
X154074192Y-218641464D01*
X154009162Y-218668941D01*
X153952467Y-218700998D01*
X153927245Y-218718744D01*
X153880740Y-218758701D01*
X153837944Y-218805298D01*
X153798858Y-218858535D01*
X153763481Y-218918413D01*
X153731813Y-218984931D01*
X153703855Y-219058089D01*
X153685321Y-219117315D01*
X153668873Y-219180277D01*
X153659067Y-219224327D01*
X153270721Y-221089854D01*
X152652958Y-221089854D01*
X153061160Y-219127607D01*
X153073640Y-219058867D01*
X153081768Y-218994799D01*
X153085546Y-218935403D01*
X153084151Y-218867725D01*
X153075958Y-218807347D01*
X153057153Y-218744527D01*
X153039178Y-218708486D01*
X153001432Y-218662169D01*
X152948641Y-218625436D01*
X152893157Y-218602144D01*
X152827225Y-218585508D01*
X152766958Y-218576990D01*
X152700005Y-218572731D01*
X152664021Y-218572198D01*
X152579025Y-218572198D01*
X152642274Y-218597065D01*
X152695735Y-218627702D01*
X152745734Y-218670739D01*
X152782409Y-218721629D01*
X152803240Y-218771500D01*
X152815914Y-218829838D01*
X152820963Y-218900438D01*
X152819346Y-218968637D01*
X152814239Y-219029328D01*
X152805744Y-219095468D01*
X152793860Y-219167058D01*
X152782723Y-219224327D01*
X151923966Y-223351054D01*
X151911240Y-223409070D01*
X151893151Y-223481415D01*
X151873779Y-223548036D01*
X151853126Y-223608933D01*
X151831190Y-223664105D01*
X151801966Y-223725020D01*
X151770740Y-223776991D01*
X151751042Y-223803880D01*
X151708280Y-223851828D01*
X151659130Y-223895654D01*
X151603592Y-223935359D01*
X151552429Y-223965298D01*
X151496831Y-223992375D01*
X151449158Y-224011975D01*
X150889353Y-224011975D01*
X150958020Y-224011035D01*
X151023339Y-224008214D01*
X151085309Y-224003513D01*
X151143930Y-223996931D01*
X151216883Y-223985230D01*
X151283881Y-223970187D01*
X151344927Y-223951800D01*
X151400019Y-223930070D01*
X151449158Y-223904997D01*
X151504420Y-223869956D01*
X151553886Y-223831695D01*
X151597557Y-223790214D01*
X151642310Y-223736187D01*
X151678718Y-223677523D01*
X151702682Y-223625094D01*
X151724492Y-223565868D01*
X151746874Y-223496266D01*
X151765193Y-223433114D01*
X151783877Y-223363321D01*
X151802928Y-223286889D01*
X151817457Y-223225206D01*
X151832191Y-223159789D01*
X151847132Y-223090636D01*
X151852158Y-223066755D01*
X152621523Y-219362080D01*
X152633416Y-219303308D01*
X152646948Y-219229314D01*
X152657825Y-219160312D01*
X152666045Y-219096301D01*
X152671609Y-219037282D01*
X152674829Y-218970528D01*
X152673899Y-218911573D01*
X152671349Y-218879944D01*
X152657284Y-218813627D01*
X152629194Y-218755724D01*
X152587079Y-218706236D01*
X152539818Y-218670516D01*
X152492563Y-218645471D01*
X152435862Y-218624362D01*
X152367427Y-218606831D01*
X152304229Y-218595382D01*
X152233521Y-218586223D01*
X152155302Y-218579354D01*
X152091709Y-218575705D01*
X152023892Y-218573343D01*
X151951849Y-218572270D01*
X151926897Y-218572198D01*
X151966464Y-218384620D01*
X155123058Y-218384620D01*
X155201094Y-218385624D01*
G37*
G36*
X159284046Y-220542717D02*
G01*
X159345063Y-220545551D01*
X159404992Y-220550273D01*
X159463834Y-220556885D01*
X159550057Y-220570345D01*
X159633833Y-220588055D01*
X159715161Y-220610015D01*
X159794043Y-220636226D01*
X159870477Y-220666687D01*
X159944464Y-220701399D01*
X160016004Y-220740361D01*
X160085096Y-220783573D01*
X160151098Y-220830533D01*
X160213364Y-220880740D01*
X160271895Y-220934192D01*
X160326690Y-220990889D01*
X160377751Y-221050833D01*
X160425076Y-221114022D01*
X160468667Y-221180457D01*
X160508522Y-221250138D01*
X160544641Y-221323064D01*
X160577026Y-221399237D01*
X160596541Y-221451821D01*
X160622563Y-221532343D01*
X160644025Y-221614539D01*
X160660928Y-221698409D01*
X160673271Y-221783954D01*
X160681055Y-221871173D01*
X160683711Y-221930249D01*
X160684341Y-221990069D01*
X160682944Y-222050634D01*
X160679521Y-222111943D01*
X160674071Y-222173996D01*
X160666595Y-222236793D01*
X160657092Y-222300334D01*
X160645563Y-222364619D01*
X160639039Y-222397041D01*
X160622205Y-222471131D01*
X160603026Y-222544474D01*
X160581504Y-222617070D01*
X160557637Y-222688919D01*
X160531427Y-222760021D01*
X160502872Y-222830376D01*
X160471973Y-222899984D01*
X160438729Y-222968844D01*
X160403142Y-223036958D01*
X160365210Y-223104325D01*
X160338620Y-223148821D01*
X160297181Y-223214453D01*
X160254196Y-223278359D01*
X160209666Y-223340539D01*
X160163590Y-223400994D01*
X160115968Y-223459722D01*
X160066801Y-223516725D01*
X160016088Y-223572002D01*
X159963830Y-223625552D01*
X159910026Y-223677377D01*
X159854676Y-223727476D01*
X159816917Y-223759916D01*
X159759314Y-223806709D01*
X159700809Y-223851467D01*
X159641402Y-223894190D01*
X159581093Y-223934878D01*
X159519883Y-223973531D01*
X159457772Y-224010149D01*
X159394759Y-224044732D01*
X159330844Y-224077279D01*
X159266027Y-224107792D01*
X159200309Y-224136270D01*
X159155996Y-224154124D01*
X159089321Y-224179004D01*
X159022285Y-224201437D01*
X158954888Y-224221422D01*
X158887131Y-224238961D01*
X158819013Y-224254052D01*
X158750534Y-224266695D01*
X158681695Y-224276892D01*
X158612495Y-224284642D01*
X158542934Y-224289944D01*
X158473013Y-224292799D01*
X158426199Y-224293343D01*
X158363711Y-224292433D01*
X158302276Y-224289702D01*
X158241895Y-224285151D01*
X158182566Y-224278780D01*
X158124292Y-224270588D01*
X158038854Y-224254887D01*
X157955787Y-224235091D01*
X157875090Y-224211198D01*
X157796762Y-224183210D01*
X157720804Y-224151126D01*
X157647217Y-224114946D01*
X157575999Y-224074671D01*
X157552786Y-224060335D01*
X157485673Y-224014972D01*
X157422269Y-223966260D01*
X157362575Y-223914199D01*
X157306590Y-223858789D01*
X157254314Y-223800030D01*
X157205748Y-223737923D01*
X157160891Y-223672467D01*
X157119744Y-223603662D01*
X157082306Y-223531508D01*
X157048577Y-223456006D01*
X157028153Y-223403810D01*
X157001397Y-223323306D01*
X156979380Y-223240612D01*
X156962104Y-223155729D01*
X156949568Y-223068656D01*
X156943843Y-223009391D01*
X156940225Y-222949152D01*
X156938714Y-222887941D01*
X156939309Y-222825756D01*
X156939826Y-222813666D01*
X157072185Y-222813666D01*
X157072391Y-222883115D01*
X157075299Y-222952335D01*
X157080909Y-223021326D01*
X157089267Y-223089355D01*
X157100418Y-223155690D01*
X157114363Y-223220330D01*
X157131101Y-223283276D01*
X157150633Y-223344528D01*
X157172958Y-223404085D01*
X157198077Y-223461948D01*
X157225989Y-223518116D01*
X157256695Y-223572246D01*
X157290195Y-223624728D01*
X157326488Y-223675561D01*
X157365574Y-223724745D01*
X157407454Y-223772281D01*
X157452128Y-223818168D01*
X157499595Y-223862407D01*
X157549855Y-223904997D01*
X157603299Y-223945251D01*
X157659581Y-223983215D01*
X157718704Y-224018890D01*
X157780665Y-224052275D01*
X157845466Y-224083370D01*
X157913106Y-224112176D01*
X157983585Y-224138691D01*
X158056904Y-224162917D01*
X158001233Y-224121232D01*
X157947796Y-224078607D01*
X157896591Y-224035044D01*
X157847618Y-223990543D01*
X157800878Y-223945102D01*
X157756370Y-223898723D01*
X157714095Y-223851404D01*
X157674053Y-223803147D01*
X157636243Y-223753952D01*
X157600666Y-223703817D01*
X157567321Y-223652743D01*
X157536208Y-223600731D01*
X157507329Y-223547780D01*
X157480681Y-223493890D01*
X157456266Y-223439061D01*
X157434084Y-223383294D01*
X157414112Y-223326719D01*
X157396326Y-223269469D01*
X157380727Y-223211543D01*
X157367314Y-223152942D01*
X157356089Y-223093666D01*
X157353656Y-223077529D01*
X157931338Y-223077529D01*
X157932546Y-223160773D01*
X157936330Y-223241019D01*
X157942689Y-223318264D01*
X157951625Y-223392510D01*
X157963137Y-223463757D01*
X157977225Y-223532003D01*
X157993889Y-223597251D01*
X158012837Y-223658828D01*
X158033777Y-223716434D01*
X158068922Y-223795392D01*
X158108549Y-223865412D01*
X158152659Y-223926493D01*
X158201251Y-223978636D01*
X158254325Y-224021840D01*
X158311882Y-224056105D01*
X158373920Y-224081431D01*
X158440441Y-224097819D01*
X158511444Y-224105268D01*
X158536108Y-224105764D01*
X158599485Y-224101507D01*
X158663219Y-224088734D01*
X158727312Y-224067446D01*
X158791762Y-224037643D01*
X158843579Y-224007670D01*
X158895626Y-223972247D01*
X158908541Y-223962149D01*
X159091516Y-223962149D01*
X159154113Y-223928224D01*
X159214958Y-223890743D01*
X159274052Y-223849707D01*
X159331393Y-223805117D01*
X159386983Y-223756971D01*
X159440822Y-223705271D01*
X159492908Y-223650016D01*
X159543243Y-223591206D01*
X159591827Y-223528841D01*
X159638658Y-223462921D01*
X159668906Y-223416999D01*
X159712587Y-223345451D01*
X159754052Y-223270940D01*
X159793301Y-223193467D01*
X159818237Y-223140173D01*
X159842188Y-223085561D01*
X159865155Y-223029634D01*
X159887136Y-222972389D01*
X159908134Y-222913828D01*
X159928146Y-222853950D01*
X159947174Y-222792756D01*
X159965218Y-222730245D01*
X159982277Y-222666418D01*
X159998351Y-222601274D01*
X160013440Y-222534813D01*
X160020616Y-222501089D01*
X160036968Y-222418555D01*
X160051402Y-222337833D01*
X160063919Y-222258923D01*
X160074517Y-222181825D01*
X160083198Y-222106539D01*
X160089962Y-222033064D01*
X160094808Y-221961401D01*
X160097736Y-221891550D01*
X160098746Y-221823511D01*
X160097839Y-221757283D01*
X160095014Y-221692868D01*
X160090271Y-221630264D01*
X160083611Y-221569472D01*
X160075033Y-221510491D01*
X160052123Y-221397966D01*
X160021543Y-221292688D01*
X159983293Y-221194657D01*
X159937371Y-221103873D01*
X159883779Y-221020336D01*
X159822516Y-220944046D01*
X159753582Y-220875004D01*
X159676978Y-220813208D01*
X159592703Y-220758660D01*
X159632283Y-220815062D01*
X159668591Y-220873807D01*
X159701629Y-220934897D01*
X159731394Y-220998331D01*
X159757888Y-221064109D01*
X159781111Y-221132232D01*
X159801062Y-221202698D01*
X159817742Y-221275509D01*
X159831150Y-221350663D01*
X159841286Y-221428162D01*
X159846227Y-221481131D01*
X159851185Y-221563953D01*
X159852873Y-221651954D01*
X159852180Y-221713497D01*
X159850033Y-221777342D01*
X159846433Y-221843488D01*
X159841378Y-221911935D01*
X159834869Y-221982683D01*
X159826907Y-222055733D01*
X159817490Y-222131084D01*
X159806619Y-222208736D01*
X159794295Y-222288689D01*
X159780516Y-222370944D01*
X159765283Y-222455499D01*
X159748596Y-222542356D01*
X159730456Y-222631514D01*
X159712329Y-222715943D01*
X159693121Y-222797769D01*
X159672830Y-222876994D01*
X159651458Y-222953617D01*
X159629004Y-223027639D01*
X159605468Y-223099058D01*
X159580850Y-223167876D01*
X159555150Y-223234092D01*
X159528368Y-223297706D01*
X159500505Y-223358719D01*
X159481328Y-223397948D01*
X159451755Y-223455200D01*
X159420740Y-223511550D01*
X159388283Y-223566998D01*
X159354383Y-223621545D01*
X159319040Y-223675190D01*
X159282255Y-223727934D01*
X159244027Y-223779776D01*
X159204356Y-223830716D01*
X159163243Y-223880755D01*
X159120688Y-223929892D01*
X159091516Y-223962149D01*
X158908541Y-223962149D01*
X158947901Y-223931375D01*
X159000063Y-223885167D01*
X159051033Y-223833739D01*
X159100813Y-223777090D01*
X159137366Y-223731177D01*
X159173250Y-223682327D01*
X159208464Y-223630541D01*
X159243008Y-223575818D01*
X159276882Y-223518159D01*
X159310087Y-223457563D01*
X159331851Y-223415534D01*
X159363918Y-223350159D01*
X159394723Y-223282080D01*
X159424265Y-223211296D01*
X159452545Y-223137807D01*
X159479563Y-223061613D01*
X159505319Y-222982715D01*
X159529812Y-222901111D01*
X159553044Y-222816803D01*
X159567830Y-222759095D01*
X159582055Y-222700185D01*
X159595719Y-222640072D01*
X159608823Y-222578758D01*
X159630346Y-222471264D01*
X159649489Y-222366770D01*
X159666250Y-222265276D01*
X159680630Y-222166781D01*
X159692628Y-222071286D01*
X159702245Y-221978791D01*
X159709481Y-221889295D01*
X159714336Y-221802798D01*
X159716808Y-221719302D01*
X159716900Y-221638805D01*
X159714610Y-221561307D01*
X159709939Y-221486809D01*
X159702887Y-221415311D01*
X159693453Y-221346812D01*
X159681637Y-221281313D01*
X159667441Y-221218814D01*
X159651166Y-221159543D01*
X159622740Y-221077806D01*
X159589497Y-221004674D01*
X159551436Y-220940145D01*
X159508559Y-220884220D01*
X159460864Y-220836899D01*
X159408353Y-220798182D01*
X159351024Y-220768068D01*
X159288878Y-220746559D01*
X159221915Y-220733653D01*
X159150135Y-220729351D01*
X159078968Y-220732584D01*
X159009451Y-220742283D01*
X158941582Y-220758447D01*
X158875361Y-220781077D01*
X158810790Y-220810173D01*
X158747867Y-220845735D01*
X158686592Y-220887762D01*
X158626966Y-220936255D01*
X158568989Y-220991214D01*
X158512661Y-221052639D01*
X158476024Y-221097181D01*
X158440475Y-221144396D01*
X158406003Y-221194451D01*
X158372607Y-221247344D01*
X158340286Y-221303078D01*
X158309042Y-221361650D01*
X158278874Y-221423062D01*
X158249783Y-221487313D01*
X158221767Y-221554403D01*
X158194828Y-221624333D01*
X158168965Y-221697102D01*
X158144178Y-221772711D01*
X158120468Y-221851159D01*
X158097833Y-221932446D01*
X158076275Y-222016572D01*
X158055793Y-222103538D01*
X158036387Y-222193343D01*
X158014411Y-222303584D01*
X157995011Y-222410826D01*
X157978187Y-222515068D01*
X157963939Y-222616310D01*
X157952266Y-222714553D01*
X157943170Y-222809796D01*
X157936650Y-222902040D01*
X157932706Y-222991284D01*
X157931338Y-223077529D01*
X157353656Y-223077529D01*
X157347050Y-223033714D01*
X157340198Y-222973086D01*
X157335532Y-222911783D01*
X157333054Y-222849805D01*
X157332762Y-222787151D01*
X157334656Y-222723821D01*
X157338738Y-222659816D01*
X157345006Y-222595136D01*
X157353461Y-222529780D01*
X157364103Y-222463748D01*
X157376931Y-222397041D01*
X157393783Y-222321268D01*
X157412463Y-222247273D01*
X157432972Y-222175055D01*
X157455311Y-222104614D01*
X157479478Y-222035951D01*
X157505474Y-221969065D01*
X157533299Y-221903956D01*
X157562953Y-221840626D01*
X157594436Y-221779072D01*
X157627748Y-221719296D01*
X157650972Y-221680433D01*
X157686946Y-221623216D01*
X157723976Y-221567518D01*
X157762062Y-221513341D01*
X157801204Y-221460683D01*
X157841403Y-221409545D01*
X157882657Y-221359927D01*
X157924968Y-221311829D01*
X157968335Y-221265250D01*
X158012758Y-221220192D01*
X158058237Y-221176653D01*
X158089144Y-221148472D01*
X158136808Y-221106578D01*
X158186379Y-221064426D01*
X158237856Y-221022016D01*
X158291239Y-220979349D01*
X158346529Y-220936424D01*
X158403725Y-220893242D01*
X158462827Y-220849802D01*
X158523835Y-220806104D01*
X158586749Y-220762149D01*
X158651570Y-220717937D01*
X158695843Y-220688318D01*
X158614626Y-220717414D01*
X158535289Y-220748648D01*
X158457833Y-220782020D01*
X158382258Y-220817530D01*
X158308563Y-220855179D01*
X158236748Y-220894965D01*
X158166814Y-220936889D01*
X158098761Y-220980952D01*
X158032588Y-221027152D01*
X157968295Y-221075491D01*
X157926478Y-221108905D01*
X157865513Y-221160420D01*
X157806814Y-221213301D01*
X157750383Y-221267547D01*
X157696218Y-221323159D01*
X157644320Y-221380136D01*
X157594689Y-221438478D01*
X157547325Y-221498185D01*
X157502228Y-221559258D01*
X157459398Y-221621696D01*
X157418834Y-221685499D01*
X157393051Y-221728793D01*
X157356464Y-221794262D01*
X157321988Y-221860426D01*
X157289625Y-221927286D01*
X157259374Y-221994842D01*
X157231236Y-222063093D01*
X157205210Y-222132040D01*
X157181296Y-222201682D01*
X157159494Y-222272019D01*
X157139805Y-222343053D01*
X157122228Y-222414781D01*
X157111684Y-222462987D01*
X157098380Y-222533581D01*
X157087778Y-222603946D01*
X157079879Y-222674081D01*
X157074681Y-222743988D01*
X157072185Y-222813666D01*
X156939826Y-222813666D01*
X156942011Y-222762598D01*
X156946820Y-222698467D01*
X156953735Y-222633363D01*
X156962757Y-222567286D01*
X156973885Y-222500236D01*
X156987120Y-222432212D01*
X157001557Y-222366988D01*
X157017757Y-222302474D01*
X157035720Y-222238669D01*
X157055447Y-222175574D01*
X157076936Y-222113189D01*
X157100189Y-222051514D01*
X157125205Y-221990549D01*
X157151984Y-221930293D01*
X157180526Y-221870748D01*
X157210831Y-221811912D01*
X157242899Y-221753786D01*
X157276731Y-221696370D01*
X157312325Y-221639663D01*
X157349683Y-221583667D01*
X157388804Y-221528380D01*
X157429688Y-221473803D01*
X157471997Y-221420131D01*
X157515394Y-221367924D01*
X157559879Y-221317183D01*
X157605451Y-221267907D01*
X157652111Y-221220096D01*
X157699859Y-221173751D01*
X157748694Y-221128871D01*
X157798617Y-221085457D01*
X157849627Y-221043508D01*
X157901725Y-221003025D01*
X157954911Y-220964007D01*
X158009185Y-220926455D01*
X158064546Y-220890368D01*
X158120994Y-220855747D01*
X158178531Y-220822591D01*
X158237155Y-220790900D01*
X158296471Y-220760733D01*
X158356086Y-220732511D01*
X158415998Y-220706236D01*
X158476207Y-220681907D01*
X158536715Y-220659524D01*
X158597520Y-220639088D01*
X158658623Y-220620598D01*
X158720023Y-220604055D01*
X158781721Y-220589457D01*
X158843717Y-220576806D01*
X158906010Y-220566101D01*
X158968601Y-220557343D01*
X159031490Y-220550531D01*
X159094676Y-220545665D01*
X159158160Y-220542746D01*
X159221942Y-220541773D01*
X159284046Y-220542717D01*
G37*
G36*
X163314964Y-220809951D02*
G01*
X163244988Y-220818698D01*
X163183072Y-220832483D01*
X163117012Y-220856797D01*
X163063546Y-220888983D01*
X163016010Y-220937996D01*
X162986610Y-220998343D01*
X162980839Y-221020977D01*
X162974468Y-221084750D01*
X162979277Y-221144994D01*
X162993565Y-221210390D01*
X163012713Y-221268823D01*
X163038444Y-221330833D01*
X163057043Y-221369756D01*
X163336945Y-221925164D01*
X163575815Y-221687760D01*
X163630267Y-221633235D01*
X163680418Y-221579019D01*
X163726266Y-221525111D01*
X163767813Y-221471514D01*
X163805057Y-221418225D01*
X163838000Y-221365245D01*
X163866641Y-221312574D01*
X163883172Y-221275967D01*
X164008125Y-221275967D01*
X164072405Y-221220192D01*
X164135551Y-221167174D01*
X164197564Y-221116912D01*
X164258443Y-221069406D01*
X164318189Y-221024656D01*
X164376802Y-220982663D01*
X164434281Y-220943427D01*
X164490626Y-220906946D01*
X164545839Y-220873222D01*
X164599918Y-220842254D01*
X164635340Y-220823140D01*
X164013987Y-220823140D01*
X164046705Y-220882175D01*
X164067922Y-220943875D01*
X164077640Y-221008239D01*
X164075856Y-221075268D01*
X164069674Y-221114766D01*
X164054467Y-221171501D01*
X164033026Y-221226851D01*
X164008125Y-221275967D01*
X163883172Y-221275967D01*
X163898137Y-221242828D01*
X163921985Y-221173631D01*
X163934852Y-221122094D01*
X163943095Y-221058621D01*
X163938793Y-220994878D01*
X163920117Y-220939249D01*
X163899681Y-220906671D01*
X163857280Y-220865249D01*
X163800969Y-220834956D01*
X163739236Y-220817370D01*
X163685724Y-220809951D01*
X163722361Y-220635562D01*
X165234712Y-220635562D01*
X165198076Y-220809951D01*
X165138702Y-220821492D01*
X165080015Y-220835597D01*
X165022015Y-220852266D01*
X164964702Y-220871500D01*
X164908076Y-220893299D01*
X164852136Y-220917662D01*
X164796884Y-220944590D01*
X164742319Y-220974082D01*
X164688463Y-221005567D01*
X164635340Y-221038471D01*
X164582950Y-221072795D01*
X164531293Y-221108538D01*
X164480368Y-221145701D01*
X164430176Y-221184284D01*
X164380717Y-221224286D01*
X164331991Y-221265708D01*
X164282944Y-221309168D01*
X164231790Y-221355284D01*
X164178530Y-221404057D01*
X164123163Y-221455485D01*
X164080256Y-221495799D01*
X164036163Y-221537608D01*
X163990886Y-221580910D01*
X163944423Y-221625707D01*
X163896776Y-221671998D01*
X163880630Y-221687760D01*
X163438062Y-222121535D01*
X164101914Y-223456567D01*
X164128561Y-223508910D01*
X164154207Y-223565925D01*
X164163463Y-223586992D01*
X164190483Y-223642863D01*
X164218784Y-223694704D01*
X164252156Y-223748207D01*
X164279234Y-223786295D01*
X164317359Y-223830962D01*
X164364071Y-223875155D01*
X164415362Y-223913623D01*
X164431642Y-223924048D01*
X164485635Y-223952925D01*
X164539857Y-223975868D01*
X164599940Y-223996247D01*
X164657322Y-224011975D01*
X164617755Y-224199554D01*
X162610079Y-224199554D01*
X162649646Y-224011975D01*
X162710792Y-224001989D01*
X162784225Y-223984106D01*
X162848407Y-223961002D01*
X162903339Y-223932677D01*
X162958995Y-223889930D01*
X163000197Y-223839025D01*
X163026944Y-223779963D01*
X163033596Y-223754055D01*
X163034356Y-223688521D01*
X163020040Y-223622163D01*
X162997389Y-223554569D01*
X162971192Y-223490684D01*
X162945444Y-223434631D01*
X162938341Y-223419930D01*
X162662835Y-222880642D01*
X162346296Y-223198646D01*
X162301176Y-223243816D01*
X162259422Y-223288285D01*
X162215825Y-223338248D01*
X162176624Y-223387295D01*
X162167511Y-223399414D01*
X162134172Y-223450522D01*
X162105961Y-223508590D01*
X162085485Y-223565111D01*
X162068936Y-223626960D01*
X162064929Y-223645611D01*
X162057505Y-223705267D01*
X162062245Y-223768808D01*
X162081090Y-223827403D01*
X162114040Y-223881053D01*
X162119151Y-223887411D01*
X162167511Y-223932566D01*
X162220645Y-223964412D01*
X162283877Y-223989106D01*
X162346113Y-224004579D01*
X162391726Y-224011975D01*
X162352158Y-224199554D01*
X160694726Y-224199554D01*
X160734294Y-224011975D01*
X161137294Y-224011975D01*
X161880281Y-224011975D01*
X161839494Y-223964090D01*
X161806200Y-223915053D01*
X161785026Y-223869826D01*
X161775613Y-223808971D01*
X161778981Y-223744254D01*
X161787957Y-223689574D01*
X161805935Y-223629691D01*
X161829402Y-223575544D01*
X161856880Y-223523520D01*
X161872954Y-223496134D01*
X161826288Y-223538335D01*
X161779714Y-223579207D01*
X161733232Y-223618752D01*
X161686841Y-223656968D01*
X161640541Y-223693856D01*
X161571264Y-223746699D01*
X161502193Y-223796553D01*
X161433328Y-223843419D01*
X161364669Y-223887297D01*
X161296216Y-223928186D01*
X161227969Y-223966088D01*
X161159929Y-224001001D01*
X161137294Y-224011975D01*
X160734294Y-224011975D01*
X160792118Y-224001900D01*
X160852017Y-223987245D01*
X160913991Y-223968011D01*
X160978040Y-223944198D01*
X161044165Y-223915804D01*
X161098558Y-223889793D01*
X161140225Y-223868360D01*
X161196714Y-223837586D01*
X161254073Y-223804613D01*
X161312302Y-223769442D01*
X161371401Y-223732073D01*
X161431370Y-223692505D01*
X161492210Y-223650740D01*
X161553919Y-223606776D01*
X161616499Y-223560614D01*
X161664056Y-223524108D01*
X161712206Y-223486030D01*
X161760948Y-223446382D01*
X161810283Y-223405161D01*
X161860210Y-223362370D01*
X161910729Y-223318007D01*
X161961841Y-223272072D01*
X162013546Y-223224567D01*
X162065843Y-223175490D01*
X162118733Y-223124841D01*
X162154322Y-223090202D01*
X162561719Y-222684271D01*
X161812870Y-221210021D01*
X161782118Y-221152387D01*
X161752145Y-221100387D01*
X161715773Y-221043307D01*
X161680618Y-220995028D01*
X161640038Y-220948712D01*
X161594908Y-220910694D01*
X161588655Y-220906671D01*
X161537273Y-220876996D01*
X161481310Y-220850984D01*
X161420769Y-220828636D01*
X161364038Y-220812086D01*
X161355647Y-220809951D01*
X161722012Y-220809951D01*
X161767704Y-220852853D01*
X161809527Y-220900592D01*
X161827525Y-220924257D01*
X161863208Y-220974005D01*
X161896227Y-221024334D01*
X161906659Y-221041493D01*
X161937434Y-221094250D01*
X161962347Y-221144075D01*
X161990099Y-221197107D01*
X161996052Y-221207090D01*
X163059974Y-223336399D01*
X163091436Y-223403307D01*
X163117676Y-223466275D01*
X163138697Y-223525306D01*
X163157630Y-223593556D01*
X163168406Y-223655651D01*
X163170570Y-223722043D01*
X163165487Y-223761382D01*
X163145520Y-223825404D01*
X163116929Y-223880672D01*
X163077960Y-223935239D01*
X163036298Y-223981452D01*
X163004287Y-224011975D01*
X163101007Y-224011975D01*
X163162354Y-224005020D01*
X163224397Y-223984154D01*
X163280130Y-223953929D01*
X163322291Y-223924048D01*
X163367311Y-223884598D01*
X163408115Y-223837108D01*
X163440443Y-223780616D01*
X163457113Y-223727676D01*
X163463195Y-223667012D01*
X163458544Y-223596758D01*
X163447095Y-223533652D01*
X163428777Y-223464409D01*
X163410530Y-223408450D01*
X163388420Y-223349039D01*
X163362445Y-223286176D01*
X163332606Y-223219861D01*
X163310567Y-223173734D01*
X162325780Y-221207090D01*
X162292120Y-221145738D01*
X162260750Y-221090827D01*
X162226129Y-221033433D01*
X162189905Y-220978195D01*
X162154001Y-220930522D01*
X162149925Y-220925722D01*
X162107393Y-220884163D01*
X162053334Y-220850349D01*
X161997578Y-220830428D01*
X161991656Y-220829002D01*
X161931815Y-220818016D01*
X161868114Y-220811948D01*
X161804260Y-220809493D01*
X161743501Y-220809510D01*
X161722012Y-220809951D01*
X161355647Y-220809951D01*
X161392284Y-220635562D01*
X163351600Y-220635562D01*
X163314964Y-220809951D01*
G37*
G36*
X167728920Y-222792715D02*
G01*
X165486771Y-222792715D01*
X165506188Y-222698925D01*
X165639178Y-222698925D01*
X167614615Y-222698925D01*
X167673233Y-222417558D01*
X165697797Y-222417558D01*
X165639178Y-222698925D01*
X165506188Y-222698925D01*
X165642109Y-222042401D01*
X167884259Y-222042401D01*
X167728920Y-222792715D01*
G37*
G36*
X170721384Y-220823140D02*
G01*
X170571907Y-220823140D01*
X170507913Y-220827348D01*
X170446725Y-220839970D01*
X170388341Y-220861008D01*
X170332763Y-220890460D01*
X170302263Y-220911068D01*
X170254318Y-220950157D01*
X170210858Y-220997922D01*
X170179488Y-221048984D01*
X170158648Y-221110370D01*
X170156433Y-221172336D01*
X170161653Y-221236701D01*
X170170097Y-221304429D01*
X170179531Y-221367832D01*
X170191346Y-221439434D01*
X170201770Y-221498514D01*
X170205543Y-221519232D01*
X170555787Y-223167872D01*
X171212312Y-222161103D01*
X171247998Y-222104980D01*
X171281784Y-222050552D01*
X171313669Y-221997819D01*
X171343653Y-221946780D01*
X171385067Y-221873398D01*
X171422204Y-221803829D01*
X171455065Y-221738072D01*
X171483650Y-221676128D01*
X171507959Y-221617996D01*
X171533719Y-221546418D01*
X171551877Y-221481617D01*
X171555229Y-221466476D01*
X171566914Y-221397282D01*
X171572660Y-221331665D01*
X171572466Y-221269627D01*
X171566334Y-221211166D01*
X171551136Y-221145736D01*
X171527385Y-221085457D01*
X171495082Y-221031052D01*
X171454227Y-220983242D01*
X171404819Y-220942026D01*
X171346859Y-220907404D01*
X171292026Y-220883590D01*
X171256275Y-220871500D01*
X171266488Y-220823140D01*
X171564021Y-220823140D01*
X171610847Y-220869783D01*
X171648743Y-220923249D01*
X171677709Y-220983539D01*
X171697744Y-221050653D01*
X171708850Y-221124589D01*
X171711319Y-221184520D01*
X171708764Y-221248289D01*
X171701186Y-221315896D01*
X171688585Y-221387341D01*
X171737873Y-221315896D01*
X171787366Y-221248289D01*
X171837066Y-221184520D01*
X171886972Y-221124589D01*
X171937083Y-221068497D01*
X171987401Y-221016243D01*
X172037925Y-220967827D01*
X172088655Y-220923249D01*
X172139591Y-220882510D01*
X172190733Y-220845609D01*
X172224943Y-220823140D01*
X171564021Y-220823140D01*
X171266488Y-220823140D01*
X171306101Y-220635562D01*
X172690958Y-220635562D01*
X172641132Y-220874431D01*
X172574019Y-220904267D01*
X172508967Y-220936622D01*
X172445975Y-220971495D01*
X172385044Y-221008887D01*
X172326174Y-221048798D01*
X172269364Y-221091227D01*
X172214616Y-221136176D01*
X172161928Y-221183643D01*
X172109767Y-221235346D01*
X172056598Y-221293003D01*
X172016061Y-221340152D01*
X171974956Y-221390650D01*
X171933285Y-221444497D01*
X171891047Y-221501693D01*
X171848243Y-221562237D01*
X171804872Y-221626131D01*
X171760934Y-221693373D01*
X171716429Y-221763964D01*
X170100030Y-224293343D01*
X169777629Y-224293343D01*
X169170930Y-221456218D01*
X169157732Y-221396970D01*
X169139254Y-221323422D01*
X169119768Y-221256103D01*
X169099274Y-221195012D01*
X169077773Y-221140149D01*
X169049480Y-221080328D01*
X169013451Y-221021389D01*
X169000937Y-221004857D01*
X168959103Y-220961872D01*
X168909438Y-220927440D01*
X168851941Y-220901560D01*
X168786614Y-220884232D01*
X168726192Y-220876325D01*
X168687329Y-220874431D01*
X168698028Y-220823140D01*
X169072744Y-220823140D01*
X169118174Y-220865089D01*
X169157741Y-220916197D01*
X169187554Y-220968430D01*
X169212879Y-221027675D01*
X169219290Y-221045890D01*
X169237356Y-221101806D01*
X169254186Y-221158547D01*
X169269780Y-221216112D01*
X169284137Y-221274501D01*
X169297257Y-221333715D01*
X169301356Y-221353636D01*
X169878746Y-224199554D01*
X169940295Y-224190761D01*
X170054601Y-224028095D01*
X170080897Y-223972226D01*
X170094168Y-223915255D01*
X170095270Y-223856489D01*
X170086065Y-223793085D01*
X170073632Y-223734112D01*
X170056458Y-223665350D01*
X170053135Y-223652938D01*
X169597378Y-221378549D01*
X169583571Y-221309810D01*
X169568527Y-221245742D01*
X169552247Y-221186345D01*
X169530157Y-221118668D01*
X169506136Y-221058289D01*
X169480183Y-221005209D01*
X169452298Y-220959428D01*
X169413967Y-220913111D01*
X169368217Y-220876378D01*
X169315049Y-220849227D01*
X169254461Y-220831658D01*
X169186455Y-220823673D01*
X169162137Y-220823140D01*
X169072744Y-220823140D01*
X168698028Y-220823140D01*
X168737155Y-220635562D01*
X170760951Y-220635562D01*
X170721384Y-220823140D01*
G37*
G36*
X174581398Y-223131235D02*
G01*
X174567453Y-223199356D01*
X174554928Y-223263035D01*
X174543822Y-223322271D01*
X174531937Y-223390070D01*
X174522270Y-223450928D01*
X174513597Y-223514796D01*
X174509590Y-223551821D01*
X174506293Y-223618042D01*
X174509590Y-223678950D01*
X174521182Y-223741122D01*
X174535968Y-223784829D01*
X174570773Y-223839927D01*
X174617759Y-223881929D01*
X174671981Y-223913230D01*
X174711823Y-223929909D01*
X174776839Y-223950366D01*
X174842166Y-223966783D01*
X174903375Y-223979678D01*
X174970737Y-223991856D01*
X175029058Y-224001084D01*
X175091317Y-224009854D01*
X175107497Y-224011975D01*
X175067929Y-224199554D01*
X172726129Y-224199554D01*
X172765696Y-224011975D01*
X173263952Y-224011975D01*
X173335663Y-224007549D01*
X173402970Y-224000314D01*
X173465871Y-223990272D01*
X173524368Y-223977422D01*
X173595511Y-223955921D01*
X173658824Y-223929429D01*
X173714305Y-223897944D01*
X173761955Y-223861468D01*
X173801774Y-223820000D01*
X173845008Y-223760359D01*
X173877225Y-223705896D01*
X173907336Y-223645435D01*
X173935340Y-223578974D01*
X173961237Y-223506514D01*
X173979278Y-223448232D01*
X173996134Y-223386575D01*
X174011804Y-223321544D01*
X174021593Y-223276316D01*
X174760183Y-219725513D01*
X174771840Y-219663758D01*
X174780431Y-219604888D01*
X174787117Y-219530882D01*
X174788353Y-219462006D01*
X174784140Y-219398258D01*
X174774477Y-219339640D01*
X174754735Y-219273580D01*
X174726478Y-219215534D01*
X174691416Y-219165295D01*
X174641407Y-219116248D01*
X174582743Y-219079463D01*
X174527244Y-219058175D01*
X174465735Y-219045402D01*
X174398215Y-219041145D01*
X174336327Y-219044365D01*
X174275918Y-219052364D01*
X174256066Y-219055799D01*
X174195078Y-219066658D01*
X174144691Y-219074850D01*
X174214827Y-219094176D01*
X174277224Y-219116982D01*
X174331881Y-219143269D01*
X174389318Y-219181021D01*
X174434663Y-219224212D01*
X174467915Y-219272841D01*
X174489074Y-219326909D01*
X174501639Y-219388024D01*
X174508193Y-219457798D01*
X174509109Y-219519851D01*
X174506178Y-219587445D01*
X174499401Y-219660581D01*
X174491793Y-219719069D01*
X174482021Y-219780674D01*
X174470086Y-219845396D01*
X174465626Y-219867662D01*
X173782723Y-223147355D01*
X173765086Y-223229306D01*
X173747346Y-223305899D01*
X173729503Y-223377134D01*
X173711557Y-223443011D01*
X173693508Y-223503530D01*
X173669282Y-223575887D01*
X173644873Y-223638718D01*
X173620281Y-223692024D01*
X173589283Y-223745262D01*
X173547930Y-223798843D01*
X173506542Y-223842234D01*
X173458857Y-223884480D01*
X173404876Y-223925582D01*
X173344598Y-223965538D01*
X173291841Y-223996679D01*
X173263952Y-224011975D01*
X172765696Y-224011975D01*
X172836153Y-224006205D01*
X172902442Y-223999152D01*
X172964563Y-223990817D01*
X173022518Y-223981200D01*
X173089100Y-223967376D01*
X173149171Y-223951548D01*
X173212661Y-223929909D01*
X173269796Y-223903703D01*
X173322501Y-223872344D01*
X173370775Y-223835834D01*
X173414619Y-223794171D01*
X173454032Y-223747357D01*
X173466185Y-223730607D01*
X173500360Y-223675687D01*
X173531443Y-223613142D01*
X173554985Y-223555196D01*
X173576380Y-223491955D01*
X173595629Y-223423419D01*
X173609482Y-223364778D01*
X173612730Y-223349588D01*
X173637643Y-223229421D01*
X174351321Y-219792924D01*
X174362054Y-219734290D01*
X174370435Y-219661761D01*
X174372038Y-219595690D01*
X174366863Y-219536076D01*
X174350863Y-219470638D01*
X174324273Y-219415290D01*
X174278386Y-219362190D01*
X174269255Y-219354752D01*
X174217535Y-219320191D01*
X174155797Y-219289780D01*
X174099194Y-219268439D01*
X174036179Y-219249755D01*
X173966753Y-219233726D01*
X173890915Y-219220354D01*
X173829830Y-219212068D01*
X173765138Y-219205276D01*
X173826687Y-218903392D01*
X173896720Y-218899253D01*
X173965036Y-218894164D01*
X174031634Y-218888125D01*
X174096514Y-218881135D01*
X174159678Y-218873195D01*
X174221124Y-218864305D01*
X174280853Y-218854465D01*
X174338864Y-218843674D01*
X174422662Y-218825707D01*
X174502595Y-218805601D01*
X174578664Y-218783357D01*
X174650869Y-218758975D01*
X174719211Y-218732455D01*
X174741132Y-218723140D01*
X174805700Y-218693692D01*
X174869160Y-218661952D01*
X174931512Y-218627919D01*
X174992756Y-218591593D01*
X175052893Y-218552974D01*
X175111922Y-218512063D01*
X175169843Y-218468859D01*
X175226657Y-218423363D01*
X175282363Y-218375574D01*
X175336961Y-218325492D01*
X175372744Y-218290831D01*
X175586701Y-218290831D01*
X174581398Y-223131235D01*
G37*
G36*
X176967345Y-223265382D02*
G01*
X177025963Y-223276545D01*
X177090260Y-223299763D01*
X177147963Y-223333697D01*
X177199070Y-223378348D01*
X177229479Y-223414069D01*
X177261757Y-223463127D01*
X177290196Y-223525775D01*
X177307404Y-223592545D01*
X177313164Y-223651335D01*
X177311125Y-223712987D01*
X177301286Y-223777502D01*
X177285308Y-223838570D01*
X177263018Y-223897395D01*
X177234417Y-223953975D01*
X177199505Y-224008311D01*
X177176722Y-224038353D01*
X177133365Y-224087330D01*
X177086642Y-224131679D01*
X177036553Y-224171399D01*
X176983099Y-224206492D01*
X176951042Y-224224466D01*
X176894481Y-224251304D01*
X176837641Y-224271550D01*
X176780519Y-224285204D01*
X176714894Y-224292737D01*
X176690190Y-224293343D01*
X176627486Y-224289622D01*
X176569433Y-224278459D01*
X176505909Y-224255241D01*
X176449083Y-224221306D01*
X176398954Y-224176656D01*
X176369255Y-224140935D01*
X176332951Y-224081722D01*
X176307569Y-224018386D01*
X176293109Y-223950930D01*
X176289402Y-223891567D01*
X176293280Y-223829342D01*
X176298038Y-223800543D01*
X176435358Y-223800543D01*
X176437662Y-223860689D01*
X176453691Y-223924620D01*
X176484007Y-223983421D01*
X176493819Y-223997320D01*
X176537783Y-224044765D01*
X176587608Y-224078653D01*
X176643296Y-224098987D01*
X176704845Y-224105764D01*
X176763830Y-224103566D01*
X176811823Y-224096972D01*
X176774433Y-224044421D01*
X176741861Y-223990382D01*
X176716941Y-223936229D01*
X176713638Y-223926978D01*
X176702166Y-223864811D01*
X176703626Y-223801985D01*
X176713505Y-223736877D01*
X176715103Y-223729142D01*
X176729188Y-223669676D01*
X176748376Y-223609959D01*
X176773905Y-223553287D01*
X176800100Y-223512254D01*
X176839913Y-223466745D01*
X176884310Y-223426276D01*
X176936822Y-223386271D01*
X176962765Y-223368639D01*
X176903814Y-223356493D01*
X176870442Y-223355450D01*
X176803946Y-223362411D01*
X176746064Y-223379922D01*
X176688462Y-223408092D01*
X176639312Y-223440722D01*
X176606659Y-223466825D01*
X176561202Y-223510239D01*
X176522647Y-223556951D01*
X176490997Y-223606959D01*
X176466250Y-223660265D01*
X176448407Y-223716869D01*
X176443994Y-223736469D01*
X176435358Y-223800543D01*
X176298038Y-223800543D01*
X176301844Y-223777502D01*
X176318731Y-223711792D01*
X176341915Y-223649303D01*
X176371396Y-223590034D01*
X176407174Y-223533984D01*
X176449249Y-223481155D01*
X176497620Y-223431545D01*
X176518732Y-223412603D01*
X176573737Y-223369119D01*
X176630673Y-223333005D01*
X176689542Y-223304261D01*
X176750343Y-223282887D01*
X176813076Y-223268884D01*
X176877740Y-223262251D01*
X176904147Y-223261661D01*
X176967345Y-223265382D01*
G37*
G36*
X181134092Y-218292634D02*
G01*
X181215682Y-218298043D01*
X181294697Y-218307059D01*
X181371135Y-218319682D01*
X181444998Y-218335911D01*
X181516284Y-218355746D01*
X181584994Y-218379187D01*
X181651129Y-218406235D01*
X181714687Y-218436890D01*
X181775670Y-218471150D01*
X181814894Y-218495995D01*
X181871909Y-218536137D01*
X181926452Y-218579629D01*
X181978521Y-218626469D01*
X182028118Y-218676658D01*
X182075241Y-218730196D01*
X182119892Y-218787082D01*
X182162070Y-218847318D01*
X182201774Y-218910902D01*
X182239006Y-218977835D01*
X182273765Y-219048117D01*
X182295564Y-219096832D01*
X182326059Y-219172163D01*
X182353798Y-219250327D01*
X182378781Y-219331325D01*
X182401008Y-219415157D01*
X182414294Y-219472619D01*
X182426356Y-219531340D01*
X182437192Y-219591321D01*
X182446803Y-219652561D01*
X182455190Y-219715060D01*
X182462351Y-219778819D01*
X182468287Y-219843837D01*
X182472998Y-219910115D01*
X182476485Y-219977652D01*
X182478746Y-220046448D01*
X182479771Y-220116458D01*
X182479547Y-220187636D01*
X182478076Y-220259981D01*
X182475357Y-220333495D01*
X182471390Y-220408176D01*
X182466175Y-220484024D01*
X182459712Y-220561041D01*
X182452001Y-220639226D01*
X182443042Y-220718578D01*
X182432836Y-220799098D01*
X182421381Y-220880786D01*
X182408679Y-220963641D01*
X182394728Y-221047664D01*
X182379530Y-221132856D01*
X182363083Y-221219215D01*
X182345389Y-221306741D01*
X182320849Y-221420480D01*
X182294854Y-221532353D01*
X182267405Y-221642360D01*
X182238502Y-221750500D01*
X182208146Y-221856774D01*
X182176335Y-221961182D01*
X182143070Y-222063724D01*
X182108352Y-222164400D01*
X182072179Y-222263210D01*
X182034552Y-222360153D01*
X181995471Y-222455230D01*
X181954937Y-222548441D01*
X181912948Y-222639786D01*
X181869505Y-222729265D01*
X181824608Y-222816878D01*
X181778257Y-222902624D01*
X181730842Y-222986178D01*
X181682384Y-223067213D01*
X181632885Y-223145730D01*
X181582344Y-223221727D01*
X181530761Y-223295206D01*
X181478136Y-223366166D01*
X181424470Y-223434608D01*
X181369761Y-223500530D01*
X181314011Y-223563934D01*
X181257219Y-223624820D01*
X181199385Y-223683186D01*
X181140509Y-223739034D01*
X181080591Y-223792363D01*
X181019631Y-223843173D01*
X180957630Y-223891464D01*
X180894587Y-223937237D01*
X180830902Y-223980359D01*
X180766611Y-224020699D01*
X180701713Y-224058257D01*
X180636208Y-224093033D01*
X180570097Y-224125027D01*
X180503378Y-224154239D01*
X180436053Y-224180669D01*
X180368121Y-224204316D01*
X180299583Y-224225182D01*
X180230437Y-224243265D01*
X180160685Y-224258567D01*
X180090326Y-224271086D01*
X180019360Y-224280823D01*
X179947787Y-224287779D01*
X179875607Y-224291952D01*
X179802821Y-224293343D01*
X179722283Y-224291514D01*
X179643882Y-224286027D01*
X179567620Y-224276882D01*
X179493495Y-224264079D01*
X179421509Y-224247619D01*
X179351661Y-224227500D01*
X179283951Y-224203724D01*
X179218379Y-224176289D01*
X179154945Y-224145197D01*
X179093649Y-224110447D01*
X179053973Y-224085248D01*
X178996446Y-224044345D01*
X178941470Y-224000223D01*
X178889044Y-223952880D01*
X178839169Y-223902318D01*
X178791843Y-223848535D01*
X178747068Y-223791532D01*
X178704843Y-223731310D01*
X178665169Y-223667867D01*
X178628044Y-223601205D01*
X178593470Y-223531322D01*
X178571837Y-223482945D01*
X178541827Y-223407769D01*
X178514444Y-223330068D01*
X178489689Y-223249843D01*
X178467561Y-223167093D01*
X178448061Y-223081819D01*
X178436520Y-223023567D01*
X178426147Y-222964193D01*
X178416942Y-222903697D01*
X178408905Y-222842079D01*
X178402036Y-222779340D01*
X178396334Y-222715478D01*
X178391801Y-222650494D01*
X178388435Y-222584388D01*
X178387190Y-222550914D01*
X178385610Y-222482988D01*
X178385470Y-222455001D01*
X178510786Y-222455001D01*
X178511271Y-222532260D01*
X178513379Y-222607998D01*
X178517110Y-222682217D01*
X178522464Y-222754916D01*
X178529441Y-222826095D01*
X178538040Y-222895755D01*
X178548263Y-222963894D01*
X178560108Y-223030514D01*
X178568906Y-223074082D01*
X178583418Y-223137753D01*
X178599475Y-223199619D01*
X178617078Y-223259683D01*
X178636226Y-223317944D01*
X178656920Y-223374401D01*
X178679159Y-223429055D01*
X178711216Y-223499122D01*
X178746021Y-223565984D01*
X178783573Y-223629640D01*
X178803379Y-223660265D01*
X178845534Y-223719593D01*
X178890666Y-223776678D01*
X178938774Y-223831518D01*
X178989859Y-223884114D01*
X179043921Y-223934466D01*
X179100959Y-223982574D01*
X179160974Y-224028438D01*
X179223966Y-224072059D01*
X179183022Y-224007901D01*
X179144087Y-223942372D01*
X179107161Y-223875471D01*
X179072245Y-223807200D01*
X179039338Y-223737558D01*
X179008440Y-223666545D01*
X178979552Y-223594161D01*
X178952673Y-223520406D01*
X178927803Y-223445280D01*
X178904943Y-223368782D01*
X178884091Y-223290914D01*
X178865249Y-223211675D01*
X178852163Y-223149004D01*
X179307405Y-223149004D01*
X179307857Y-223216197D01*
X179309672Y-223280941D01*
X179312849Y-223343234D01*
X179317389Y-223403078D01*
X179326752Y-223488249D01*
X179339181Y-223567907D01*
X179354676Y-223642053D01*
X179373236Y-223710686D01*
X179394862Y-223773807D01*
X179402751Y-223793622D01*
X179428593Y-223849405D01*
X179468218Y-223915248D01*
X179513750Y-223971336D01*
X179565190Y-224017669D01*
X179622537Y-224054249D01*
X179685792Y-224081073D01*
X179754955Y-224098144D01*
X179830025Y-224105459D01*
X179849716Y-224105764D01*
X179909651Y-224103008D01*
X179968555Y-224094739D01*
X180026429Y-224080957D01*
X180083273Y-224061663D01*
X180139086Y-224036856D01*
X180162859Y-224023699D01*
X180387539Y-224023699D01*
X180451372Y-223982918D01*
X180513545Y-223939710D01*
X180574058Y-223894074D01*
X180632911Y-223846012D01*
X180690104Y-223795522D01*
X180745637Y-223742606D01*
X180799509Y-223687262D01*
X180851722Y-223629491D01*
X180902275Y-223569292D01*
X180951167Y-223506667D01*
X180998399Y-223441615D01*
X181043972Y-223374135D01*
X181087884Y-223304228D01*
X181130136Y-223231894D01*
X181170728Y-223157133D01*
X181209660Y-223079944D01*
X181247636Y-222999545D01*
X181284994Y-222915515D01*
X181321733Y-222827857D01*
X181357854Y-222736569D01*
X181393357Y-222641652D01*
X181428242Y-222543106D01*
X181462509Y-222440931D01*
X181496157Y-222335126D01*
X181529187Y-222225692D01*
X181561599Y-222112628D01*
X181577573Y-222054735D01*
X181593392Y-221995935D01*
X181609057Y-221936228D01*
X181624568Y-221875613D01*
X181639923Y-221814091D01*
X181655125Y-221751662D01*
X181670171Y-221688325D01*
X181685063Y-221624081D01*
X181699801Y-221558930D01*
X181714384Y-221492871D01*
X181728812Y-221425905D01*
X181743086Y-221358032D01*
X181758714Y-221282149D01*
X181773724Y-221207640D01*
X181788115Y-221134504D01*
X181801888Y-221062743D01*
X181815043Y-220992355D01*
X181827579Y-220923341D01*
X181839497Y-220855701D01*
X181850797Y-220789435D01*
X181861479Y-220724543D01*
X181871543Y-220661024D01*
X181880988Y-220598880D01*
X181889815Y-220538109D01*
X181898024Y-220478712D01*
X181909178Y-220392193D01*
X181918941Y-220308765D01*
X181927549Y-220227668D01*
X181934689Y-220148143D01*
X181940361Y-220070189D01*
X181944564Y-219993806D01*
X181947299Y-219918995D01*
X181948565Y-219845755D01*
X181948363Y-219774086D01*
X181946693Y-219703989D01*
X181943555Y-219635463D01*
X181938948Y-219568509D01*
X181935061Y-219524745D01*
X181928295Y-219460500D01*
X181920086Y-219398006D01*
X181910435Y-219337264D01*
X181899341Y-219278274D01*
X181882305Y-219202345D01*
X181862704Y-219129530D01*
X181840539Y-219059829D01*
X181815810Y-218993242D01*
X181788516Y-218929770D01*
X181758726Y-218869068D01*
X181725776Y-218810793D01*
X181689666Y-218754945D01*
X181650396Y-218701525D01*
X181607967Y-218650532D01*
X181562377Y-218601965D01*
X181513628Y-218555826D01*
X181461719Y-218512115D01*
X181504881Y-218566886D01*
X181544242Y-218624955D01*
X181579802Y-218686321D01*
X181611562Y-218750984D01*
X181639520Y-218818945D01*
X181663677Y-218890202D01*
X181684033Y-218964758D01*
X181696806Y-219022838D01*
X181700588Y-219042610D01*
X181710587Y-219104039D01*
X181718603Y-219169074D01*
X181724635Y-219237716D01*
X181728684Y-219309964D01*
X181730749Y-219385819D01*
X181730830Y-219465280D01*
X181728928Y-219548347D01*
X181725043Y-219635021D01*
X181721351Y-219694807D01*
X181716777Y-219756196D01*
X181711321Y-219819188D01*
X181704984Y-219883782D01*
X181697737Y-219950237D01*
X181689551Y-220019177D01*
X181680427Y-220090601D01*
X181670363Y-220164509D01*
X181659361Y-220240902D01*
X181647420Y-220319779D01*
X181634540Y-220401140D01*
X181620721Y-220484986D01*
X181605963Y-220571316D01*
X181590267Y-220660131D01*
X181573631Y-220751430D01*
X181556057Y-220845214D01*
X181537545Y-220941482D01*
X181518093Y-221040234D01*
X181497702Y-221141471D01*
X181476373Y-221245192D01*
X181455725Y-221343933D01*
X181435180Y-221440487D01*
X181414738Y-221534854D01*
X181394399Y-221627035D01*
X181374163Y-221717029D01*
X181354030Y-221804836D01*
X181334001Y-221890457D01*
X181314074Y-221973891D01*
X181294250Y-222055138D01*
X181274529Y-222134198D01*
X181254912Y-222211071D01*
X181235397Y-222285758D01*
X181215986Y-222358258D01*
X181196677Y-222428572D01*
X181177471Y-222496698D01*
X181158369Y-222562638D01*
X181139186Y-222626654D01*
X181119740Y-222689377D01*
X181100031Y-222750806D01*
X181080059Y-222810941D01*
X181059823Y-222869783D01*
X181039324Y-222927331D01*
X181018561Y-222983585D01*
X180997535Y-223038545D01*
X180965503Y-223118560D01*
X180932878Y-223195664D01*
X180899660Y-223269857D01*
X180865850Y-223341139D01*
X180831448Y-223409510D01*
X180819848Y-223431654D01*
X180784673Y-223496372D01*
X180748390Y-223559183D01*
X180711000Y-223620088D01*
X180672501Y-223679087D01*
X180632895Y-223736180D01*
X180592182Y-223791366D01*
X180550360Y-223844647D01*
X180507431Y-223896021D01*
X180463395Y-223945488D01*
X180418250Y-223993050D01*
X180387539Y-224023699D01*
X180162859Y-224023699D01*
X180193869Y-224006537D01*
X180247622Y-223970705D01*
X180300344Y-223929360D01*
X180352036Y-223882502D01*
X180402697Y-223830132D01*
X180435899Y-223792156D01*
X180485246Y-223730350D01*
X180533821Y-223663082D01*
X180581623Y-223590353D01*
X180613062Y-223538833D01*
X180644157Y-223484886D01*
X180674908Y-223428511D01*
X180705317Y-223369710D01*
X180735381Y-223308481D01*
X180765103Y-223244825D01*
X180794481Y-223178742D01*
X180823515Y-223110232D01*
X180852206Y-223039295D01*
X180880553Y-222965931D01*
X180908557Y-222890139D01*
X180922430Y-222851333D01*
X180950005Y-222771820D01*
X180977408Y-222689721D01*
X181004639Y-222605033D01*
X181031699Y-222517758D01*
X181058586Y-222427896D01*
X181085302Y-222335446D01*
X181111846Y-222240409D01*
X181138219Y-222142784D01*
X181164420Y-222042572D01*
X181190449Y-221939773D01*
X181216306Y-221834386D01*
X181241992Y-221726411D01*
X181267505Y-221615850D01*
X181292848Y-221502700D01*
X181305454Y-221445155D01*
X181318018Y-221386964D01*
X181330539Y-221328125D01*
X181343017Y-221268639D01*
X181361333Y-221179443D01*
X181378915Y-221091737D01*
X181395760Y-221005523D01*
X181411870Y-220920799D01*
X181427245Y-220837567D01*
X181441883Y-220755827D01*
X181455787Y-220675577D01*
X181468954Y-220596819D01*
X181481386Y-220519552D01*
X181493083Y-220443776D01*
X181504044Y-220369491D01*
X181514269Y-220296698D01*
X181523759Y-220225396D01*
X181532513Y-220155585D01*
X181540531Y-220087265D01*
X181547814Y-220020436D01*
X181554362Y-219955099D01*
X181560173Y-219891253D01*
X181565249Y-219828898D01*
X181569590Y-219768034D01*
X181573195Y-219708662D01*
X181578198Y-219594390D01*
X181580259Y-219486084D01*
X181579377Y-219383742D01*
X181575553Y-219287366D01*
X181568787Y-219196954D01*
X181564301Y-219153985D01*
X181553149Y-219072177D01*
X181538747Y-218995647D01*
X181521093Y-218924395D01*
X181500187Y-218858420D01*
X181476030Y-218797724D01*
X181448621Y-218742306D01*
X181417961Y-218692165D01*
X181365874Y-218626851D01*
X181306472Y-218573412D01*
X181239753Y-218531848D01*
X181165719Y-218502160D01*
X181084369Y-218484347D01*
X180995703Y-218478409D01*
X180916362Y-218484476D01*
X180838258Y-218502675D01*
X180761390Y-218533007D01*
X180685759Y-218575473D01*
X180636025Y-218610523D01*
X180586841Y-218650967D01*
X180538206Y-218696802D01*
X180490121Y-218748030D01*
X180442585Y-218804651D01*
X180395599Y-218866664D01*
X180349162Y-218934069D01*
X180303275Y-219006867D01*
X180257937Y-219085057D01*
X180213149Y-219168639D01*
X180169077Y-219257632D01*
X180125519Y-219352050D01*
X180082477Y-219451896D01*
X180039950Y-219557169D01*
X179997939Y-219667868D01*
X179977126Y-219725253D01*
X179956442Y-219783994D01*
X179935887Y-219844092D01*
X179915461Y-219905547D01*
X179895164Y-219968358D01*
X179874995Y-220032526D01*
X179854955Y-220098051D01*
X179835044Y-220164933D01*
X179815262Y-220233171D01*
X179795608Y-220302766D01*
X179776084Y-220373717D01*
X179756688Y-220446026D01*
X179737421Y-220519691D01*
X179718283Y-220594712D01*
X179699273Y-220671091D01*
X179680393Y-220748826D01*
X179661641Y-220827917D01*
X179643018Y-220908366D01*
X179624523Y-220990171D01*
X179606158Y-221073333D01*
X179587921Y-221157851D01*
X179569814Y-221243727D01*
X179557147Y-221305015D01*
X179544792Y-221365600D01*
X179532749Y-221425480D01*
X179521018Y-221484657D01*
X179509600Y-221543129D01*
X179498493Y-221600897D01*
X179477215Y-221714321D01*
X179457185Y-221824929D01*
X179438403Y-221932720D01*
X179420869Y-222037695D01*
X179404583Y-222139854D01*
X179389545Y-222239196D01*
X179375755Y-222335721D01*
X179363213Y-222429430D01*
X179351918Y-222520323D01*
X179341872Y-222608399D01*
X179333074Y-222693659D01*
X179325523Y-222776102D01*
X179319220Y-222855729D01*
X179314223Y-222932723D01*
X179310588Y-223007267D01*
X179308315Y-223079360D01*
X179307405Y-223149004D01*
X178852163Y-223149004D01*
X178848417Y-223131065D01*
X178833593Y-223049084D01*
X178820779Y-222965732D01*
X178809974Y-222881008D01*
X178801178Y-222794914D01*
X178794392Y-222707449D01*
X178789615Y-222618613D01*
X178786847Y-222528406D01*
X178786089Y-222436828D01*
X178787340Y-222343878D01*
X178790600Y-222249558D01*
X178795869Y-222153867D01*
X178803148Y-222056805D01*
X178812436Y-221958372D01*
X178823733Y-221858567D01*
X178837039Y-221757392D01*
X178852355Y-221654846D01*
X178869680Y-221550929D01*
X178889014Y-221445641D01*
X178910358Y-221338981D01*
X178934841Y-221225529D01*
X178960664Y-221113782D01*
X178987827Y-221003741D01*
X179016329Y-220895406D01*
X179046170Y-220788777D01*
X179077351Y-220683853D01*
X179109872Y-220580636D01*
X179143732Y-220479124D01*
X179178931Y-220379319D01*
X179215471Y-220281219D01*
X179253349Y-220184825D01*
X179292567Y-220090137D01*
X179333125Y-219997155D01*
X179375022Y-219905879D01*
X179418259Y-219816308D01*
X179462835Y-219728444D01*
X179508820Y-219642039D01*
X179556281Y-219557214D01*
X179605219Y-219473970D01*
X179655634Y-219392305D01*
X179707526Y-219312220D01*
X179760895Y-219233715D01*
X179815741Y-219156790D01*
X179872064Y-219081445D01*
X179929864Y-219007679D01*
X179989140Y-218935494D01*
X180049894Y-218864889D01*
X180112124Y-218795864D01*
X180175832Y-218728418D01*
X180241016Y-218662553D01*
X180307677Y-218598267D01*
X180375815Y-218535562D01*
X180321627Y-218562787D01*
X180268241Y-218591341D01*
X180215656Y-218621222D01*
X180163873Y-218652432D01*
X180112891Y-218684970D01*
X180062711Y-218718836D01*
X180013332Y-218754029D01*
X179964754Y-218790551D01*
X179916978Y-218828401D01*
X179870003Y-218867579D01*
X179823830Y-218908086D01*
X179778458Y-218949920D01*
X179733887Y-218993082D01*
X179690118Y-219037573D01*
X179647151Y-219083391D01*
X179604984Y-219130537D01*
X179563769Y-219179001D01*
X179523285Y-219228769D01*
X179483535Y-219279842D01*
X179444517Y-219332221D01*
X179406232Y-219385905D01*
X179368680Y-219440894D01*
X179331860Y-219497188D01*
X179295773Y-219554787D01*
X179260419Y-219613692D01*
X179225797Y-219673901D01*
X179191909Y-219735416D01*
X179158753Y-219798236D01*
X179126330Y-219862362D01*
X179094639Y-219927792D01*
X179063681Y-219994527D01*
X179033456Y-220062568D01*
X179003935Y-220131817D01*
X178975090Y-220202542D01*
X178946920Y-220274745D01*
X178919425Y-220348424D01*
X178892606Y-220423580D01*
X178866463Y-220500213D01*
X178840995Y-220578323D01*
X178816202Y-220657910D01*
X178792085Y-220738974D01*
X178768644Y-220821515D01*
X178745877Y-220905532D01*
X178723787Y-220991027D01*
X178702372Y-221077998D01*
X178681632Y-221166447D01*
X178661568Y-221256372D01*
X178642179Y-221347774D01*
X178628973Y-221411928D01*
X178616465Y-221475429D01*
X178604655Y-221538278D01*
X178593544Y-221600474D01*
X178583132Y-221662017D01*
X178573417Y-221722908D01*
X178564401Y-221783146D01*
X178556084Y-221842732D01*
X178548464Y-221901665D01*
X178541543Y-221959946D01*
X178532472Y-222046143D01*
X178524971Y-222130872D01*
X178519042Y-222214132D01*
X178514684Y-222295925D01*
X178511924Y-222376223D01*
X178510786Y-222455001D01*
X178385470Y-222455001D01*
X178385266Y-222414031D01*
X178386159Y-222344044D01*
X178388289Y-222273027D01*
X178391655Y-222200979D01*
X178396257Y-222127901D01*
X178402096Y-222053792D01*
X178409172Y-221978653D01*
X178417483Y-221902484D01*
X178427032Y-221825284D01*
X178437817Y-221747054D01*
X178449838Y-221667793D01*
X178463096Y-221587502D01*
X178477590Y-221506181D01*
X178493321Y-221423829D01*
X178510288Y-221340447D01*
X178522734Y-221281534D01*
X178535527Y-221223130D01*
X178548666Y-221165236D01*
X178562151Y-221107851D01*
X178590161Y-220994610D01*
X178619556Y-220883407D01*
X178650337Y-220774242D01*
X178682502Y-220667115D01*
X178716053Y-220562026D01*
X178750989Y-220458974D01*
X178787311Y-220357961D01*
X178825018Y-220258985D01*
X178864110Y-220162048D01*
X178904588Y-220067148D01*
X178946450Y-219974286D01*
X178989699Y-219883462D01*
X179034332Y-219794676D01*
X179080351Y-219707928D01*
X179127778Y-219623274D01*
X179176270Y-219541140D01*
X179225826Y-219461525D01*
X179276447Y-219384428D01*
X179328133Y-219309850D01*
X179380884Y-219237791D01*
X179434700Y-219168250D01*
X179489580Y-219101228D01*
X179545525Y-219036725D01*
X179602534Y-218974741D01*
X179660609Y-218915276D01*
X179719748Y-218858329D01*
X179779952Y-218803901D01*
X179841221Y-218751992D01*
X179903554Y-218702601D01*
X179966952Y-218655729D01*
X180031118Y-218611542D01*
X180095752Y-218570206D01*
X180160856Y-218531721D01*
X180226430Y-218496086D01*
X180292473Y-218463302D01*
X180358985Y-218433369D01*
X180425967Y-218406287D01*
X180493418Y-218382055D01*
X180561338Y-218360674D01*
X180629728Y-218342144D01*
X180698588Y-218326465D01*
X180767916Y-218313637D01*
X180837714Y-218303659D01*
X180907982Y-218296532D01*
X180978719Y-218292256D01*
X181049925Y-218290831D01*
X181134092Y-218292634D01*
G37*
D11*
X127259286Y-147623419D02*
X127259286Y-146623419D01*
X127259286Y-146623419D02*
X127592619Y-147337704D01*
X127592619Y-147337704D02*
X127925952Y-146623419D01*
X127925952Y-146623419D02*
X127925952Y-147623419D01*
X128306905Y-146623419D02*
X128973571Y-147623419D01*
X128973571Y-146623419D02*
X128306905Y-147623419D01*
X129878333Y-147623419D02*
X129306905Y-147623419D01*
X129592619Y-147623419D02*
X129592619Y-146623419D01*
X129592619Y-146623419D02*
X129497381Y-146766276D01*
X129497381Y-146766276D02*
X129402143Y-146861514D01*
X129402143Y-146861514D02*
X129306905Y-146909133D01*
X153759286Y-130123419D02*
X153759286Y-129123419D01*
X153759286Y-129123419D02*
X154092619Y-129837704D01*
X154092619Y-129837704D02*
X154425952Y-129123419D01*
X154425952Y-129123419D02*
X154425952Y-130123419D01*
X154806905Y-129123419D02*
X155473571Y-130123419D01*
X155473571Y-129123419D02*
X154806905Y-130123419D01*
X155806905Y-129218657D02*
X155854524Y-129171038D01*
X155854524Y-129171038D02*
X155949762Y-129123419D01*
X155949762Y-129123419D02*
X156187857Y-129123419D01*
X156187857Y-129123419D02*
X156283095Y-129171038D01*
X156283095Y-129171038D02*
X156330714Y-129218657D01*
X156330714Y-129218657D02*
X156378333Y-129313895D01*
X156378333Y-129313895D02*
X156378333Y-129409133D01*
X156378333Y-129409133D02*
X156330714Y-129551990D01*
X156330714Y-129551990D02*
X155759286Y-130123419D01*
X155759286Y-130123419D02*
X156378333Y-130123419D01*
X274759286Y-108123419D02*
X274759286Y-107123419D01*
X274759286Y-107123419D02*
X275092619Y-107837704D01*
X275092619Y-107837704D02*
X275425952Y-107123419D01*
X275425952Y-107123419D02*
X275425952Y-108123419D01*
X275806905Y-107123419D02*
X276473571Y-108123419D01*
X276473571Y-107123419D02*
X275806905Y-108123419D01*
X276759286Y-107123419D02*
X277425952Y-107123419D01*
X277425952Y-107123419D02*
X276997381Y-108123419D01*
X293263095Y-81623419D02*
X293263095Y-80623419D01*
X293263095Y-80623419D02*
X293596428Y-81337704D01*
X293596428Y-81337704D02*
X293929761Y-80623419D01*
X293929761Y-80623419D02*
X293929761Y-81623419D01*
X294310714Y-80623419D02*
X294977380Y-81623419D01*
X294977380Y-80623419D02*
X294310714Y-81623419D01*
X295882142Y-81623419D02*
X295310714Y-81623419D01*
X295596428Y-81623419D02*
X295596428Y-80623419D01*
X295596428Y-80623419D02*
X295501190Y-80766276D01*
X295501190Y-80766276D02*
X295405952Y-80861514D01*
X295405952Y-80861514D02*
X295310714Y-80909133D01*
X296739285Y-80956752D02*
X296739285Y-81623419D01*
X296501190Y-80575800D02*
X296263095Y-81290085D01*
X296263095Y-81290085D02*
X296882142Y-81290085D01*
X209759286Y-138123419D02*
X209759286Y-137123419D01*
X209759286Y-137123419D02*
X210092619Y-137837704D01*
X210092619Y-137837704D02*
X210425952Y-137123419D01*
X210425952Y-137123419D02*
X210425952Y-138123419D01*
X210806905Y-137123419D02*
X211473571Y-138123419D01*
X211473571Y-137123419D02*
X210806905Y-138123419D01*
X212283095Y-137456752D02*
X212283095Y-138123419D01*
X212045000Y-137075800D02*
X211806905Y-137790085D01*
X211806905Y-137790085D02*
X212425952Y-137790085D01*
X246759286Y-151623419D02*
X246759286Y-150623419D01*
X246759286Y-150623419D02*
X247092619Y-151337704D01*
X247092619Y-151337704D02*
X247425952Y-150623419D01*
X247425952Y-150623419D02*
X247425952Y-151623419D01*
X247806905Y-150623419D02*
X248473571Y-151623419D01*
X248473571Y-150623419D02*
X247806905Y-151623419D01*
X248997381Y-151051990D02*
X248902143Y-151004371D01*
X248902143Y-151004371D02*
X248854524Y-150956752D01*
X248854524Y-150956752D02*
X248806905Y-150861514D01*
X248806905Y-150861514D02*
X248806905Y-150813895D01*
X248806905Y-150813895D02*
X248854524Y-150718657D01*
X248854524Y-150718657D02*
X248902143Y-150671038D01*
X248902143Y-150671038D02*
X248997381Y-150623419D01*
X248997381Y-150623419D02*
X249187857Y-150623419D01*
X249187857Y-150623419D02*
X249283095Y-150671038D01*
X249283095Y-150671038D02*
X249330714Y-150718657D01*
X249330714Y-150718657D02*
X249378333Y-150813895D01*
X249378333Y-150813895D02*
X249378333Y-150861514D01*
X249378333Y-150861514D02*
X249330714Y-150956752D01*
X249330714Y-150956752D02*
X249283095Y-151004371D01*
X249283095Y-151004371D02*
X249187857Y-151051990D01*
X249187857Y-151051990D02*
X248997381Y-151051990D01*
X248997381Y-151051990D02*
X248902143Y-151099609D01*
X248902143Y-151099609D02*
X248854524Y-151147228D01*
X248854524Y-151147228D02*
X248806905Y-151242466D01*
X248806905Y-151242466D02*
X248806905Y-151432942D01*
X248806905Y-151432942D02*
X248854524Y-151528180D01*
X248854524Y-151528180D02*
X248902143Y-151575800D01*
X248902143Y-151575800D02*
X248997381Y-151623419D01*
X248997381Y-151623419D02*
X249187857Y-151623419D01*
X249187857Y-151623419D02*
X249283095Y-151575800D01*
X249283095Y-151575800D02*
X249330714Y-151528180D01*
X249330714Y-151528180D02*
X249378333Y-151432942D01*
X249378333Y-151432942D02*
X249378333Y-151242466D01*
X249378333Y-151242466D02*
X249330714Y-151147228D01*
X249330714Y-151147228D02*
X249283095Y-151099609D01*
X249283095Y-151099609D02*
X249187857Y-151051990D01*
X274759286Y-141123419D02*
X274759286Y-140123419D01*
X274759286Y-140123419D02*
X275092619Y-140837704D01*
X275092619Y-140837704D02*
X275425952Y-140123419D01*
X275425952Y-140123419D02*
X275425952Y-141123419D01*
X275806905Y-140123419D02*
X276473571Y-141123419D01*
X276473571Y-140123419D02*
X275806905Y-141123419D01*
X276902143Y-141123419D02*
X277092619Y-141123419D01*
X277092619Y-141123419D02*
X277187857Y-141075800D01*
X277187857Y-141075800D02*
X277235476Y-141028180D01*
X277235476Y-141028180D02*
X277330714Y-140885323D01*
X277330714Y-140885323D02*
X277378333Y-140694847D01*
X277378333Y-140694847D02*
X277378333Y-140313895D01*
X277378333Y-140313895D02*
X277330714Y-140218657D01*
X277330714Y-140218657D02*
X277283095Y-140171038D01*
X277283095Y-140171038D02*
X277187857Y-140123419D01*
X277187857Y-140123419D02*
X276997381Y-140123419D01*
X276997381Y-140123419D02*
X276902143Y-140171038D01*
X276902143Y-140171038D02*
X276854524Y-140218657D01*
X276854524Y-140218657D02*
X276806905Y-140313895D01*
X276806905Y-140313895D02*
X276806905Y-140551990D01*
X276806905Y-140551990D02*
X276854524Y-140647228D01*
X276854524Y-140647228D02*
X276902143Y-140694847D01*
X276902143Y-140694847D02*
X276997381Y-140742466D01*
X276997381Y-140742466D02*
X277187857Y-140742466D01*
X277187857Y-140742466D02*
X277283095Y-140694847D01*
X277283095Y-140694847D02*
X277330714Y-140647228D01*
X277330714Y-140647228D02*
X277378333Y-140551990D01*
X246759286Y-118623419D02*
X246759286Y-117623419D01*
X246759286Y-117623419D02*
X247092619Y-118337704D01*
X247092619Y-118337704D02*
X247425952Y-117623419D01*
X247425952Y-117623419D02*
X247425952Y-118623419D01*
X247806905Y-117623419D02*
X248473571Y-118623419D01*
X248473571Y-117623419D02*
X247806905Y-118623419D01*
X249283095Y-117623419D02*
X249092619Y-117623419D01*
X249092619Y-117623419D02*
X248997381Y-117671038D01*
X248997381Y-117671038D02*
X248949762Y-117718657D01*
X248949762Y-117718657D02*
X248854524Y-117861514D01*
X248854524Y-117861514D02*
X248806905Y-118051990D01*
X248806905Y-118051990D02*
X248806905Y-118432942D01*
X248806905Y-118432942D02*
X248854524Y-118528180D01*
X248854524Y-118528180D02*
X248902143Y-118575800D01*
X248902143Y-118575800D02*
X248997381Y-118623419D01*
X248997381Y-118623419D02*
X249187857Y-118623419D01*
X249187857Y-118623419D02*
X249283095Y-118575800D01*
X249283095Y-118575800D02*
X249330714Y-118528180D01*
X249330714Y-118528180D02*
X249378333Y-118432942D01*
X249378333Y-118432942D02*
X249378333Y-118194847D01*
X249378333Y-118194847D02*
X249330714Y-118099609D01*
X249330714Y-118099609D02*
X249283095Y-118051990D01*
X249283095Y-118051990D02*
X249187857Y-118004371D01*
X249187857Y-118004371D02*
X248997381Y-118004371D01*
X248997381Y-118004371D02*
X248902143Y-118051990D01*
X248902143Y-118051990D02*
X248854524Y-118099609D01*
X248854524Y-118099609D02*
X248806905Y-118194847D01*
X325763095Y-87623419D02*
X325763095Y-86623419D01*
X325763095Y-86623419D02*
X326096428Y-87337704D01*
X326096428Y-87337704D02*
X326429761Y-86623419D01*
X326429761Y-86623419D02*
X326429761Y-87623419D01*
X326810714Y-86623419D02*
X327477380Y-87623419D01*
X327477380Y-86623419D02*
X326810714Y-87623419D01*
X328382142Y-87623419D02*
X327810714Y-87623419D01*
X328096428Y-87623419D02*
X328096428Y-86623419D01*
X328096428Y-86623419D02*
X328001190Y-86766276D01*
X328001190Y-86766276D02*
X327905952Y-86861514D01*
X327905952Y-86861514D02*
X327810714Y-86909133D01*
X329286904Y-86623419D02*
X328810714Y-86623419D01*
X328810714Y-86623419D02*
X328763095Y-87099609D01*
X328763095Y-87099609D02*
X328810714Y-87051990D01*
X328810714Y-87051990D02*
X328905952Y-87004371D01*
X328905952Y-87004371D02*
X329144047Y-87004371D01*
X329144047Y-87004371D02*
X329239285Y-87051990D01*
X329239285Y-87051990D02*
X329286904Y-87099609D01*
X329286904Y-87099609D02*
X329334523Y-87194847D01*
X329334523Y-87194847D02*
X329334523Y-87432942D01*
X329334523Y-87432942D02*
X329286904Y-87528180D01*
X329286904Y-87528180D02*
X329239285Y-87575800D01*
X329239285Y-87575800D02*
X329144047Y-87623419D01*
X329144047Y-87623419D02*
X328905952Y-87623419D01*
X328905952Y-87623419D02*
X328810714Y-87575800D01*
X328810714Y-87575800D02*
X328763095Y-87528180D01*
X303283095Y-144123419D02*
X303283095Y-143123419D01*
X303283095Y-143123419D02*
X303616428Y-143837704D01*
X303616428Y-143837704D02*
X303949761Y-143123419D01*
X303949761Y-143123419D02*
X303949761Y-144123419D01*
X304330714Y-143123419D02*
X304997380Y-144123419D01*
X304997380Y-143123419D02*
X304330714Y-144123419D01*
X305902142Y-144123419D02*
X305330714Y-144123419D01*
X305616428Y-144123419D02*
X305616428Y-143123419D01*
X305616428Y-143123419D02*
X305521190Y-143266276D01*
X305521190Y-143266276D02*
X305425952Y-143361514D01*
X305425952Y-143361514D02*
X305330714Y-143409133D01*
X306521190Y-143123419D02*
X306616428Y-143123419D01*
X306616428Y-143123419D02*
X306711666Y-143171038D01*
X306711666Y-143171038D02*
X306759285Y-143218657D01*
X306759285Y-143218657D02*
X306806904Y-143313895D01*
X306806904Y-143313895D02*
X306854523Y-143504371D01*
X306854523Y-143504371D02*
X306854523Y-143742466D01*
X306854523Y-143742466D02*
X306806904Y-143932942D01*
X306806904Y-143932942D02*
X306759285Y-144028180D01*
X306759285Y-144028180D02*
X306711666Y-144075800D01*
X306711666Y-144075800D02*
X306616428Y-144123419D01*
X306616428Y-144123419D02*
X306521190Y-144123419D01*
X306521190Y-144123419D02*
X306425952Y-144075800D01*
X306425952Y-144075800D02*
X306378333Y-144028180D01*
X306378333Y-144028180D02*
X306330714Y-143932942D01*
X306330714Y-143932942D02*
X306283095Y-143742466D01*
X306283095Y-143742466D02*
X306283095Y-143504371D01*
X306283095Y-143504371D02*
X306330714Y-143313895D01*
X306330714Y-143313895D02*
X306378333Y-143218657D01*
X306378333Y-143218657D02*
X306425952Y-143171038D01*
X306425952Y-143171038D02*
X306521190Y-143123419D01*
X303283095Y-111123419D02*
X303283095Y-110123419D01*
X303283095Y-110123419D02*
X303616428Y-110837704D01*
X303616428Y-110837704D02*
X303949761Y-110123419D01*
X303949761Y-110123419D02*
X303949761Y-111123419D01*
X304330714Y-110123419D02*
X304997380Y-111123419D01*
X304997380Y-110123419D02*
X304330714Y-111123419D01*
X305902142Y-111123419D02*
X305330714Y-111123419D01*
X305616428Y-111123419D02*
X305616428Y-110123419D01*
X305616428Y-110123419D02*
X305521190Y-110266276D01*
X305521190Y-110266276D02*
X305425952Y-110361514D01*
X305425952Y-110361514D02*
X305330714Y-110409133D01*
X306854523Y-111123419D02*
X306283095Y-111123419D01*
X306568809Y-111123419D02*
X306568809Y-110123419D01*
X306568809Y-110123419D02*
X306473571Y-110266276D01*
X306473571Y-110266276D02*
X306378333Y-110361514D01*
X306378333Y-110361514D02*
X306283095Y-110409133D01*
X329783095Y-155123419D02*
X329783095Y-154123419D01*
X329783095Y-154123419D02*
X330116428Y-154837704D01*
X330116428Y-154837704D02*
X330449761Y-154123419D01*
X330449761Y-154123419D02*
X330449761Y-155123419D01*
X330830714Y-154123419D02*
X331497380Y-155123419D01*
X331497380Y-154123419D02*
X330830714Y-155123419D01*
X332402142Y-155123419D02*
X331830714Y-155123419D01*
X332116428Y-155123419D02*
X332116428Y-154123419D01*
X332116428Y-154123419D02*
X332021190Y-154266276D01*
X332021190Y-154266276D02*
X331925952Y-154361514D01*
X331925952Y-154361514D02*
X331830714Y-154409133D01*
X332735476Y-154123419D02*
X333354523Y-154123419D01*
X333354523Y-154123419D02*
X333021190Y-154504371D01*
X333021190Y-154504371D02*
X333164047Y-154504371D01*
X333164047Y-154504371D02*
X333259285Y-154551990D01*
X333259285Y-154551990D02*
X333306904Y-154599609D01*
X333306904Y-154599609D02*
X333354523Y-154694847D01*
X333354523Y-154694847D02*
X333354523Y-154932942D01*
X333354523Y-154932942D02*
X333306904Y-155028180D01*
X333306904Y-155028180D02*
X333259285Y-155075800D01*
X333259285Y-155075800D02*
X333164047Y-155123419D01*
X333164047Y-155123419D02*
X332878333Y-155123419D01*
X332878333Y-155123419D02*
X332783095Y-155075800D01*
X332783095Y-155075800D02*
X332735476Y-155028180D01*
X329783095Y-122123419D02*
X329783095Y-121123419D01*
X329783095Y-121123419D02*
X330116428Y-121837704D01*
X330116428Y-121837704D02*
X330449761Y-121123419D01*
X330449761Y-121123419D02*
X330449761Y-122123419D01*
X330830714Y-121123419D02*
X331497380Y-122123419D01*
X331497380Y-121123419D02*
X330830714Y-122123419D01*
X332402142Y-122123419D02*
X331830714Y-122123419D01*
X332116428Y-122123419D02*
X332116428Y-121123419D01*
X332116428Y-121123419D02*
X332021190Y-121266276D01*
X332021190Y-121266276D02*
X331925952Y-121361514D01*
X331925952Y-121361514D02*
X331830714Y-121409133D01*
X332783095Y-121218657D02*
X332830714Y-121171038D01*
X332830714Y-121171038D02*
X332925952Y-121123419D01*
X332925952Y-121123419D02*
X333164047Y-121123419D01*
X333164047Y-121123419D02*
X333259285Y-121171038D01*
X333259285Y-121171038D02*
X333306904Y-121218657D01*
X333306904Y-121218657D02*
X333354523Y-121313895D01*
X333354523Y-121313895D02*
X333354523Y-121409133D01*
X333354523Y-121409133D02*
X333306904Y-121551990D01*
X333306904Y-121551990D02*
X332735476Y-122123419D01*
X332735476Y-122123419D02*
X333354523Y-122123419D01*
X182359286Y-122623419D02*
X182359286Y-121623419D01*
X182359286Y-121623419D02*
X182692619Y-122337704D01*
X182692619Y-122337704D02*
X183025952Y-121623419D01*
X183025952Y-121623419D02*
X183025952Y-122623419D01*
X183406905Y-121623419D02*
X184073571Y-122623419D01*
X184073571Y-121623419D02*
X183406905Y-122623419D01*
X184359286Y-121623419D02*
X184978333Y-121623419D01*
X184978333Y-121623419D02*
X184645000Y-122004371D01*
X184645000Y-122004371D02*
X184787857Y-122004371D01*
X184787857Y-122004371D02*
X184883095Y-122051990D01*
X184883095Y-122051990D02*
X184930714Y-122099609D01*
X184930714Y-122099609D02*
X184978333Y-122194847D01*
X184978333Y-122194847D02*
X184978333Y-122432942D01*
X184978333Y-122432942D02*
X184930714Y-122528180D01*
X184930714Y-122528180D02*
X184883095Y-122575800D01*
X184883095Y-122575800D02*
X184787857Y-122623419D01*
X184787857Y-122623419D02*
X184502143Y-122623419D01*
X184502143Y-122623419D02*
X184406905Y-122575800D01*
X184406905Y-122575800D02*
X184359286Y-122528180D01*
X223583036Y-186623419D02*
X223583036Y-185623419D01*
X223583036Y-185623419D02*
X223916369Y-186337704D01*
X223916369Y-186337704D02*
X224249702Y-185623419D01*
X224249702Y-185623419D02*
X224249702Y-186623419D01*
X224630655Y-185623419D02*
X225297321Y-186623419D01*
X225297321Y-185623419D02*
X224630655Y-186623419D01*
X226154464Y-185623419D02*
X225678274Y-185623419D01*
X225678274Y-185623419D02*
X225630655Y-186099609D01*
X225630655Y-186099609D02*
X225678274Y-186051990D01*
X225678274Y-186051990D02*
X225773512Y-186004371D01*
X225773512Y-186004371D02*
X226011607Y-186004371D01*
X226011607Y-186004371D02*
X226106845Y-186051990D01*
X226106845Y-186051990D02*
X226154464Y-186099609D01*
X226154464Y-186099609D02*
X226202083Y-186194847D01*
X226202083Y-186194847D02*
X226202083Y-186432942D01*
X226202083Y-186432942D02*
X226154464Y-186528180D01*
X226154464Y-186528180D02*
X226106845Y-186575800D01*
X226106845Y-186575800D02*
X226011607Y-186623419D01*
X226011607Y-186623419D02*
X225773512Y-186623419D01*
X225773512Y-186623419D02*
X225678274Y-186575800D01*
X225678274Y-186575800D02*
X225630655Y-186528180D01*
X199263095Y-53885419D02*
X199263095Y-54694942D01*
X199263095Y-54694942D02*
X199310714Y-54790180D01*
X199310714Y-54790180D02*
X199358333Y-54837800D01*
X199358333Y-54837800D02*
X199453571Y-54885419D01*
X199453571Y-54885419D02*
X199644047Y-54885419D01*
X199644047Y-54885419D02*
X199739285Y-54837800D01*
X199739285Y-54837800D02*
X199786904Y-54790180D01*
X199786904Y-54790180D02*
X199834523Y-54694942D01*
X199834523Y-54694942D02*
X199834523Y-53885419D01*
X200834523Y-54885419D02*
X200263095Y-54885419D01*
X200548809Y-54885419D02*
X200548809Y-53885419D01*
X200548809Y-53885419D02*
X200453571Y-54028276D01*
X200453571Y-54028276D02*
X200358333Y-54123514D01*
X200358333Y-54123514D02*
X200263095Y-54171133D01*
X195226360Y-64529419D02*
X194952550Y-64053228D01*
X194654931Y-64529419D02*
X194779931Y-63529419D01*
X194779931Y-63529419D02*
X195160884Y-63529419D01*
X195160884Y-63529419D02*
X195250169Y-63577038D01*
X195250169Y-63577038D02*
X195291836Y-63624657D01*
X195291836Y-63624657D02*
X195327550Y-63719895D01*
X195327550Y-63719895D02*
X195309693Y-63862752D01*
X195309693Y-63862752D02*
X195250169Y-63957990D01*
X195250169Y-63957990D02*
X195196598Y-64005609D01*
X195196598Y-64005609D02*
X195095408Y-64053228D01*
X195095408Y-64053228D02*
X194714455Y-64053228D01*
X195654931Y-64529419D02*
X195779931Y-63529419D01*
X195779931Y-63529419D02*
X196160884Y-63529419D01*
X196160884Y-63529419D02*
X196250169Y-63577038D01*
X196250169Y-63577038D02*
X196291836Y-63624657D01*
X196291836Y-63624657D02*
X196327550Y-63719895D01*
X196327550Y-63719895D02*
X196309693Y-63862752D01*
X196309693Y-63862752D02*
X196250169Y-63957990D01*
X196250169Y-63957990D02*
X196196598Y-64005609D01*
X196196598Y-64005609D02*
X196095408Y-64053228D01*
X196095408Y-64053228D02*
X195714455Y-64053228D01*
X196720408Y-63624657D02*
X196773979Y-63577038D01*
X196773979Y-63577038D02*
X196875169Y-63529419D01*
X196875169Y-63529419D02*
X197113265Y-63529419D01*
X197113265Y-63529419D02*
X197202550Y-63577038D01*
X197202550Y-63577038D02*
X197244217Y-63624657D01*
X197244217Y-63624657D02*
X197279931Y-63719895D01*
X197279931Y-63719895D02*
X197268027Y-63815133D01*
X197268027Y-63815133D02*
X197202550Y-63957990D01*
X197202550Y-63957990D02*
X196559693Y-64529419D01*
X196559693Y-64529419D02*
X197178741Y-64529419D01*
X197922789Y-63529419D02*
X198018027Y-63529419D01*
X198018027Y-63529419D02*
X198107312Y-63577038D01*
X198107312Y-63577038D02*
X198148979Y-63624657D01*
X198148979Y-63624657D02*
X198184693Y-63719895D01*
X198184693Y-63719895D02*
X198208503Y-63910371D01*
X198208503Y-63910371D02*
X198178741Y-64148466D01*
X198178741Y-64148466D02*
X198107312Y-64338942D01*
X198107312Y-64338942D02*
X198047789Y-64434180D01*
X198047789Y-64434180D02*
X197994217Y-64481800D01*
X197994217Y-64481800D02*
X197893027Y-64529419D01*
X197893027Y-64529419D02*
X197797789Y-64529419D01*
X197797789Y-64529419D02*
X197708503Y-64481800D01*
X197708503Y-64481800D02*
X197666836Y-64434180D01*
X197666836Y-64434180D02*
X197631122Y-64338942D01*
X197631122Y-64338942D02*
X197607312Y-64148466D01*
X197607312Y-64148466D02*
X197637074Y-63910371D01*
X197637074Y-63910371D02*
X197708503Y-63719895D01*
X197708503Y-63719895D02*
X197768027Y-63624657D01*
X197768027Y-63624657D02*
X197821598Y-63577038D01*
X197821598Y-63577038D02*
X197922789Y-63529419D01*
X199071598Y-63862752D02*
X198988265Y-64529419D01*
X198881122Y-63481800D02*
X198553741Y-64196085D01*
X198553741Y-64196085D02*
X199172789Y-64196085D01*
X199827551Y-63529419D02*
X199922789Y-63529419D01*
X199922789Y-63529419D02*
X200012074Y-63577038D01*
X200012074Y-63577038D02*
X200053741Y-63624657D01*
X200053741Y-63624657D02*
X200089455Y-63719895D01*
X200089455Y-63719895D02*
X200113265Y-63910371D01*
X200113265Y-63910371D02*
X200083503Y-64148466D01*
X200083503Y-64148466D02*
X200012074Y-64338942D01*
X200012074Y-64338942D02*
X199952551Y-64434180D01*
X199952551Y-64434180D02*
X199898979Y-64481800D01*
X199898979Y-64481800D02*
X199797789Y-64529419D01*
X199797789Y-64529419D02*
X199702551Y-64529419D01*
X199702551Y-64529419D02*
X199613265Y-64481800D01*
X199613265Y-64481800D02*
X199571598Y-64434180D01*
X199571598Y-64434180D02*
X199535884Y-64338942D01*
X199535884Y-64338942D02*
X199512074Y-64148466D01*
X199512074Y-64148466D02*
X199541836Y-63910371D01*
X199541836Y-63910371D02*
X199613265Y-63719895D01*
X199613265Y-63719895D02*
X199672789Y-63624657D01*
X199672789Y-63624657D02*
X199726360Y-63577038D01*
X199726360Y-63577038D02*
X199827551Y-63529419D01*
X200512074Y-64148466D02*
X201273979Y-64148466D01*
X201732312Y-63529419D02*
X202398979Y-63529419D01*
X202398979Y-63529419D02*
X201607312Y-64529419D01*
X201607312Y-64529419D02*
X202273979Y-64529419D01*
X202720408Y-64005609D02*
X203053741Y-64005609D01*
X203131122Y-64529419D02*
X202654931Y-64529419D01*
X202654931Y-64529419D02*
X202779931Y-63529419D01*
X202779931Y-63529419D02*
X203256122Y-63529419D01*
X204131122Y-64529419D02*
X203857312Y-64053228D01*
X203559693Y-64529419D02*
X203684693Y-63529419D01*
X203684693Y-63529419D02*
X204065646Y-63529419D01*
X204065646Y-63529419D02*
X204154931Y-63577038D01*
X204154931Y-63577038D02*
X204196598Y-63624657D01*
X204196598Y-63624657D02*
X204232312Y-63719895D01*
X204232312Y-63719895D02*
X204214455Y-63862752D01*
X204214455Y-63862752D02*
X204154931Y-63957990D01*
X204154931Y-63957990D02*
X204101360Y-64005609D01*
X204101360Y-64005609D02*
X204000170Y-64053228D01*
X204000170Y-64053228D02*
X203619217Y-64053228D01*
X204875170Y-63529419D02*
X204970408Y-63529419D01*
X204970408Y-63529419D02*
X205059693Y-63577038D01*
X205059693Y-63577038D02*
X205101360Y-63624657D01*
X205101360Y-63624657D02*
X205137074Y-63719895D01*
X205137074Y-63719895D02*
X205160884Y-63910371D01*
X205160884Y-63910371D02*
X205131122Y-64148466D01*
X205131122Y-64148466D02*
X205059693Y-64338942D01*
X205059693Y-64338942D02*
X205000170Y-64434180D01*
X205000170Y-64434180D02*
X204946598Y-64481800D01*
X204946598Y-64481800D02*
X204845408Y-64529419D01*
X204845408Y-64529419D02*
X204750170Y-64529419D01*
X204750170Y-64529419D02*
X204660884Y-64481800D01*
X204660884Y-64481800D02*
X204619217Y-64434180D01*
X204619217Y-64434180D02*
X204583503Y-64338942D01*
X204583503Y-64338942D02*
X204559693Y-64148466D01*
X204559693Y-64148466D02*
X204589455Y-63910371D01*
X204589455Y-63910371D02*
X204660884Y-63719895D01*
X204660884Y-63719895D02*
X204720408Y-63624657D01*
X204720408Y-63624657D02*
X204773979Y-63577038D01*
X204773979Y-63577038D02*
X204875170Y-63529419D01*
%TO.C,U1*%
X192985000Y-45538000D02*
X207035000Y-45538000D01*
X193005000Y-67128000D02*
X207055000Y-67128000D01*
X198414217Y-45538000D02*
G75*
G03*
X201605783Y-45538000I1595783J0D01*
G01*
%TD*%
%LPC*%
D12*
%TO.C,MX1*%
X123045000Y-137006000D03*
D13*
X123325000Y-141206000D03*
D14*
X128545000Y-131106000D03*
D15*
X128545000Y-137006000D03*
D14*
X133545000Y-133206000D03*
D12*
X134045000Y-137006000D03*
%TD*%
%TO.C,MX2*%
X149545000Y-119506000D03*
D13*
X149825000Y-123706000D03*
D14*
X155045000Y-113606000D03*
D15*
X155045000Y-119506000D03*
D14*
X160045000Y-115706000D03*
D12*
X160545000Y-119506000D03*
%TD*%
%TO.C,MX7*%
X270545000Y-97506000D03*
D13*
X270825000Y-101706000D03*
D14*
X276045000Y-91606000D03*
D15*
X276045000Y-97506000D03*
D14*
X281045000Y-93706000D03*
D12*
X281545000Y-97506000D03*
%TD*%
%TO.C,MX14*%
X289525000Y-71006000D03*
D13*
X289805000Y-75206000D03*
D14*
X295025000Y-65106000D03*
D15*
X295025000Y-71006000D03*
D14*
X300025000Y-67206000D03*
D12*
X300525000Y-71006000D03*
%TD*%
%TO.C,MX4*%
X205545000Y-127506000D03*
D13*
X205825000Y-131706000D03*
D14*
X211045000Y-121606000D03*
D15*
X211045000Y-127506000D03*
D14*
X216045000Y-123706000D03*
D12*
X216545000Y-127506000D03*
%TD*%
%TO.C,MX8*%
X242545000Y-141006000D03*
D13*
X242825000Y-145206000D03*
D14*
X248045000Y-135106000D03*
D15*
X248045000Y-141006000D03*
D14*
X253045000Y-137206000D03*
D12*
X253545000Y-141006000D03*
%TD*%
%TO.C,MX9*%
X270545000Y-130506000D03*
D13*
X270825000Y-134706000D03*
D14*
X276045000Y-124606000D03*
D15*
X276045000Y-130506000D03*
D14*
X281045000Y-126706000D03*
D12*
X281545000Y-130506000D03*
%TD*%
%TO.C,MX6*%
X242545000Y-108006000D03*
D13*
X242825000Y-112206000D03*
D14*
X248045000Y-102106000D03*
D15*
X248045000Y-108006000D03*
D14*
X253045000Y-104206000D03*
D12*
X253545000Y-108006000D03*
%TD*%
%TO.C,MX15*%
X322025000Y-77006000D03*
D13*
X322305000Y-81206000D03*
D14*
X327525000Y-71106000D03*
D15*
X327525000Y-77006000D03*
D14*
X332525000Y-73206000D03*
D12*
X333025000Y-77006000D03*
%TD*%
%TO.C,MX10*%
X299545000Y-133506000D03*
D13*
X299825000Y-137706000D03*
D14*
X305045000Y-127606000D03*
D15*
X305045000Y-133506000D03*
D14*
X310045000Y-129706000D03*
D12*
X310545000Y-133506000D03*
%TD*%
%TO.C,MX11*%
X299545000Y-100506000D03*
D13*
X299825000Y-104706000D03*
D14*
X305045000Y-94606000D03*
D15*
X305045000Y-100506000D03*
D14*
X310045000Y-96706000D03*
D12*
X310545000Y-100506000D03*
%TD*%
%TO.C,MX16*%
X126025000Y-58726000D03*
D13*
X126305000Y-62926000D03*
D14*
X131525000Y-52826000D03*
D15*
X131525000Y-58726000D03*
D14*
X136525000Y-54926000D03*
D12*
X137025000Y-58726000D03*
%TD*%
%TO.C,MX13*%
X326045000Y-144506000D03*
D13*
X326325000Y-148706000D03*
D14*
X331545000Y-138606000D03*
D15*
X331545000Y-144506000D03*
D14*
X336545000Y-140706000D03*
D12*
X337045000Y-144506000D03*
%TD*%
%TO.C,MX12*%
X326045000Y-111506000D03*
D13*
X326325000Y-115706000D03*
D14*
X331545000Y-105606000D03*
D15*
X331545000Y-111506000D03*
D14*
X336545000Y-107706000D03*
D12*
X337045000Y-111506000D03*
%TD*%
%TO.C,MX17*%
X147525000Y-58726000D03*
D13*
X147805000Y-62926000D03*
D14*
X153025000Y-52826000D03*
D15*
X153025000Y-58726000D03*
D14*
X158025000Y-54926000D03*
D12*
X158525000Y-58726000D03*
%TD*%
%TO.C,MX3*%
X178145000Y-112006000D03*
D13*
X178425000Y-116206000D03*
D14*
X183645000Y-106106000D03*
D15*
X183645000Y-112006000D03*
D14*
X188645000Y-108206000D03*
D12*
X189145000Y-112006000D03*
%TD*%
%TO.C,MX5*%
X219368750Y-176006000D03*
D13*
X219648750Y-180206000D03*
D14*
X224868750Y-170106000D03*
D15*
X224868750Y-176006000D03*
D14*
X229868750Y-172206000D03*
D12*
X230368750Y-176006000D03*
%TD*%
%TO.C,MX18*%
X169025000Y-58726000D03*
D13*
X169305000Y-62926000D03*
D14*
X174525000Y-52826000D03*
D15*
X174525000Y-58726000D03*
D14*
X179525000Y-54926000D03*
D12*
X180025000Y-58726000D03*
%TD*%
D16*
%TO.C,U1*%
X209025000Y-46808000D03*
X209025000Y-49348000D03*
X209025000Y-51888000D03*
X209025000Y-54428000D03*
X209025000Y-56968000D03*
X209025000Y-59508000D03*
X209025000Y-62048000D03*
X209025000Y-64588000D03*
X209025000Y-67128000D03*
D17*
X205105000Y-68718000D03*
X202565000Y-68718000D03*
X200025000Y-68718000D03*
X197485000Y-68718000D03*
X194945000Y-68718000D03*
D16*
X191025000Y-67128000D03*
X191025000Y-64588000D03*
X191025000Y-62048000D03*
X191025000Y-59508000D03*
X191025000Y-56968000D03*
X191025000Y-54428000D03*
X191025000Y-51888000D03*
X191025000Y-49348000D03*
X191025000Y-46808000D03*
%TD*%
%LPD*%
M02*
