%TF.GenerationSoftware,KiCad,Pcbnew,7.0.7*%
%TF.CreationDate,2024-03-04T21:22:26-05:00*%
%TF.ProjectId,AngelsBox_PCB,416e6765-6c73-4426-9f78-5f5043422e6b,rev?*%
%TF.SameCoordinates,Original*%
%TF.FileFunction,Copper,L1,Top*%
%TF.FilePolarity,Positive*%
%FSLAX46Y46*%
G04 Gerber Fmt 4.6, Leading zero omitted, Abs format (unit mm)*
G04 Created by KiCad (PCBNEW 7.0.7) date 2024-03-04 21:22:26*
%MOMM*%
%LPD*%
G01*
G04 APERTURE LIST*
G04 Aperture macros list*
%AMRoundRect*
0 Rectangle with rounded corners*
0 $1 Rounding radius*
0 $2 $3 $4 $5 $6 $7 $8 $9 X,Y pos of 4 corners*
0 Add a 4 corners polygon primitive as box body*
4,1,4,$2,$3,$4,$5,$6,$7,$8,$9,$2,$3,0*
0 Add four circle primitives for the rounded corners*
1,1,$1+$1,$2,$3*
1,1,$1+$1,$4,$5*
1,1,$1+$1,$6,$7*
1,1,$1+$1,$8,$9*
0 Add four rect primitives between the rounded corners*
20,1,$1+$1,$2,$3,$4,$5,0*
20,1,$1+$1,$4,$5,$6,$7,0*
20,1,$1+$1,$6,$7,$8,$9,0*
20,1,$1+$1,$8,$9,$2,$3,0*%
G04 Aperture macros list end*
%TA.AperFunction,SMDPad,CuDef*%
%ADD10RoundRect,0.381000X-0.999000X-0.381000X0.999000X-0.381000X0.999000X0.381000X-0.999000X0.381000X0*%
%TD*%
%TA.AperFunction,SMDPad,CuDef*%
%ADD11RoundRect,0.381000X-0.381000X0.999000X-0.381000X-0.999000X0.381000X-0.999000X0.381000X0.999000X0*%
%TD*%
%TA.AperFunction,ViaPad*%
%ADD12C,0.800000*%
%TD*%
%TA.AperFunction,Conductor*%
%ADD13C,0.254000*%
%TD*%
G04 APERTURE END LIST*
D10*
%TO.P,U1,0,GP0*%
%TO.N,COL13*%
X209025000Y-46808000D03*
%TO.P,U1,1,GP1*%
%TO.N,COL14*%
X209025000Y-49348000D03*
%TO.P,U1,2,GP2*%
%TO.N,COL10*%
X209025000Y-51888000D03*
%TO.P,U1,3,GP3*%
%TO.N,COL11*%
X209025000Y-54428000D03*
%TO.P,U1,4,GP4*%
%TO.N,COL12*%
X209025000Y-56968000D03*
%TO.P,U1,5,GP5*%
%TO.N,COL9*%
X209025000Y-59508000D03*
%TO.P,U1,6,GP6*%
%TO.N,COL6*%
X209025000Y-62048000D03*
%TO.P,U1,7,GP7*%
%TO.N,COL8*%
X209025000Y-64588000D03*
%TO.P,U1,8,GP8*%
%TO.N,COL5*%
X209025000Y-67128000D03*
D11*
%TO.P,U1,9,GP9*%
%TO.N,COL7*%
X205105000Y-68718000D03*
%TO.P,U1,10,GP10*%
%TO.N,COL3*%
X202565000Y-68718000D03*
%TO.P,U1,11,GP11*%
%TO.N,COL4*%
X200025000Y-68718000D03*
%TO.P,U1,12,GP12*%
%TO.N,COL2*%
X197485000Y-68718000D03*
%TO.P,U1,13,GP13*%
%TO.N,COL1*%
X194945000Y-68718000D03*
D10*
%TO.P,U1,14,GP14*%
%TO.N,COL0*%
X191025000Y-67128000D03*
%TO.P,U1,15,GP15*%
%TO.N,COL17*%
X191025000Y-64588000D03*
%TO.P,U1,26,GP26*%
%TO.N,COL16*%
X191025000Y-62048000D03*
%TO.P,U1,27,GP27*%
%TO.N,COL15*%
X191025000Y-59508000D03*
%TO.P,U1,28,GP28*%
%TO.N,unconnected-(U1-GP28-Pad28)*%
X191025000Y-56968000D03*
%TO.P,U1,29,GP29*%
%TO.N,unconnected-(U1-GP29-Pad29)*%
X191025000Y-54428000D03*
%TO.P,U1,30,3V3*%
%TO.N,+3.3V*%
X191025000Y-51888000D03*
%TO.P,U1,31,GND*%
%TO.N,GND*%
X191025000Y-49348000D03*
%TO.P,U1,32,5V*%
%TO.N,+5V*%
X191025000Y-46808000D03*
%TD*%
D12*
%TO.N,COL0*%
X188595000Y-67056000D03*
%TO.N,COL1*%
X194945000Y-71374000D03*
%TO.N,COL2*%
X197485000Y-71374000D03*
%TO.N,COL3*%
X202565000Y-71374000D03*
%TO.N,COL4*%
X200152000Y-71374000D03*
%TO.N,COL5*%
X211455000Y-67183000D03*
%TO.N,COL6*%
X211455000Y-62103000D03*
%TO.N,COL7*%
X205105000Y-71374000D03*
%TO.N,COL8*%
X211455000Y-64770000D03*
%TO.N,COL9*%
X211455000Y-59563000D03*
%TO.N,COL10*%
X211455000Y-51943000D03*
%TO.N,COL11*%
X211455000Y-54356000D03*
%TO.N,COL12*%
X211455000Y-57023000D03*
%TO.N,COL13*%
X211629000Y-46877000D03*
%TO.N,COL14*%
X211455000Y-49276000D03*
%TO.N,COL15*%
X188722000Y-59563000D03*
%TO.N,GND*%
X188849000Y-49276000D03*
%TO.N,COL16*%
X188725336Y-61897554D03*
%TO.N,COL17*%
X188595000Y-64643000D03*
%TD*%
D13*
%TO.N,unconnected-(U1-GP28-Pad28)*%
X190953000Y-56896000D02*
X191025000Y-56968000D01*
%TO.N,unconnected-(U1-GP29-Pad29)*%
X190970000Y-54483000D02*
X191025000Y-54428000D01*
%TO.N,COL0*%
X188595000Y-67056000D02*
X190953000Y-67056000D01*
X190953000Y-67056000D02*
X191025000Y-67128000D01*
%TO.N,COL1*%
X194945000Y-71374000D02*
X194945000Y-68718000D01*
%TO.N,COL2*%
X197485000Y-71374000D02*
X197485000Y-68718000D01*
%TO.N,COL3*%
X202565000Y-71374000D02*
X202565000Y-68718000D01*
%TO.N,COL4*%
X200152000Y-68845000D02*
X200025000Y-68718000D01*
X200152000Y-71374000D02*
X200152000Y-68845000D01*
%TO.N,COL5*%
X211455000Y-67183000D02*
X209080000Y-67183000D01*
X209080000Y-67183000D02*
X209025000Y-67128000D01*
%TO.N,COL6*%
X209080000Y-62103000D02*
X209025000Y-62048000D01*
X211455000Y-62103000D02*
X209080000Y-62103000D01*
%TO.N,COL7*%
X205105000Y-71374000D02*
X205105000Y-68718000D01*
%TO.N,COL8*%
X209207000Y-64770000D02*
X209025000Y-64588000D01*
X211455000Y-64770000D02*
X209207000Y-64770000D01*
%TO.N,COL9*%
X211455000Y-59563000D02*
X209080000Y-59563000D01*
X209080000Y-59563000D02*
X209025000Y-59508000D01*
%TO.N,COL10*%
X211455000Y-51943000D02*
X209080000Y-51943000D01*
X209080000Y-51943000D02*
X209025000Y-51888000D01*
%TO.N,COL11*%
X209097000Y-54356000D02*
X209025000Y-54428000D01*
X211455000Y-54356000D02*
X209097000Y-54356000D01*
%TO.N,COL12*%
X209080000Y-57023000D02*
X209025000Y-56968000D01*
X211455000Y-57023000D02*
X209080000Y-57023000D01*
%TO.N,COL13*%
X209094000Y-46877000D02*
X209025000Y-46808000D01*
X211629000Y-46877000D02*
X209094000Y-46877000D01*
%TO.N,COL14*%
X211455000Y-49276000D02*
X209097000Y-49276000D01*
X209097000Y-49276000D02*
X209025000Y-49348000D01*
%TO.N,COL15*%
X188777000Y-59508000D02*
X188722000Y-59563000D01*
X191025000Y-59508000D02*
X188777000Y-59508000D01*
%TO.N,GND*%
X188921000Y-49348000D02*
X188849000Y-49276000D01*
X191025000Y-49348000D02*
X188921000Y-49348000D01*
%TO.N,COL16*%
X190843000Y-62230000D02*
X191025000Y-62048000D01*
X190874554Y-61897554D02*
X191025000Y-62048000D01*
X188725336Y-61897554D02*
X190874554Y-61897554D01*
%TO.N,COL17*%
X188595000Y-64643000D02*
X190970000Y-64643000D01*
X190970000Y-64643000D02*
X191025000Y-64588000D01*
%TD*%
M02*
