%TF.GenerationSoftware,KiCad,Pcbnew,7.0.7*%
%TF.CreationDate,2024-03-04T21:22:26-05:00*%
%TF.ProjectId,AngelsBox_PCB,416e6765-6c73-4426-9f78-5f5043422e6b,rev?*%
%TF.SameCoordinates,Original*%
%TF.FileFunction,Soldermask,Bot*%
%TF.FilePolarity,Negative*%
%FSLAX46Y46*%
G04 Gerber Fmt 4.6, Leading zero omitted, Abs format (unit mm)*
G04 Created by KiCad (PCBNEW 7.0.7) date 2024-03-04 21:22:26*
%MOMM*%
%LPD*%
G01*
G04 APERTURE LIST*
%ADD10C,1.900000*%
%ADD11C,1.200000*%
%ADD12C,2.950000*%
%ADD13C,3.400000*%
%ADD14R,2.600000X2.600000*%
G04 APERTURE END LIST*
D10*
%TO.C,MX1*%
X123045000Y-137006000D03*
D11*
X123325000Y-141206000D03*
D12*
X128545000Y-131106000D03*
D13*
X128545000Y-137006000D03*
D12*
X133545000Y-133206000D03*
D10*
X134045000Y-137006000D03*
D14*
X124878914Y-131006000D03*
X137275000Y-133306000D03*
%TD*%
D10*
%TO.C,MX2*%
X149545000Y-119506000D03*
D11*
X149825000Y-123706000D03*
D12*
X155045000Y-113606000D03*
D13*
X155045000Y-119506000D03*
D12*
X160045000Y-115706000D03*
D10*
X160545000Y-119506000D03*
D14*
X151378914Y-113506000D03*
X163775000Y-115806000D03*
%TD*%
D10*
%TO.C,MX7*%
X270545000Y-97506000D03*
D11*
X270825000Y-101706000D03*
D12*
X276045000Y-91606000D03*
D13*
X276045000Y-97506000D03*
D12*
X281045000Y-93706000D03*
D10*
X281545000Y-97506000D03*
D14*
X272378914Y-91506000D03*
X284775000Y-93806000D03*
%TD*%
D10*
%TO.C,MX14*%
X289525000Y-71006000D03*
D11*
X289805000Y-75206000D03*
D12*
X295025000Y-65106000D03*
D13*
X295025000Y-71006000D03*
D12*
X300025000Y-67206000D03*
D10*
X300525000Y-71006000D03*
D14*
X291358914Y-65006000D03*
X303755000Y-67306000D03*
%TD*%
D10*
%TO.C,MX4*%
X205545000Y-127506000D03*
D11*
X205825000Y-131706000D03*
D12*
X211045000Y-121606000D03*
D13*
X211045000Y-127506000D03*
D12*
X216045000Y-123706000D03*
D10*
X216545000Y-127506000D03*
D14*
X207378914Y-121506000D03*
X219775000Y-123806000D03*
%TD*%
D10*
%TO.C,MX8*%
X242545000Y-141006000D03*
D11*
X242825000Y-145206000D03*
D12*
X248045000Y-135106000D03*
D13*
X248045000Y-141006000D03*
D12*
X253045000Y-137206000D03*
D10*
X253545000Y-141006000D03*
D14*
X244378914Y-135006000D03*
X256775000Y-137306000D03*
%TD*%
D10*
%TO.C,MX9*%
X270545000Y-130506000D03*
D11*
X270825000Y-134706000D03*
D12*
X276045000Y-124606000D03*
D13*
X276045000Y-130506000D03*
D12*
X281045000Y-126706000D03*
D10*
X281545000Y-130506000D03*
D14*
X272378914Y-124506000D03*
X284775000Y-126806000D03*
%TD*%
D10*
%TO.C,MX6*%
X242545000Y-108006000D03*
D11*
X242825000Y-112206000D03*
D12*
X248045000Y-102106000D03*
D13*
X248045000Y-108006000D03*
D12*
X253045000Y-104206000D03*
D10*
X253545000Y-108006000D03*
D14*
X244378914Y-102006000D03*
X256775000Y-104306000D03*
%TD*%
D10*
%TO.C,MX15*%
X322025000Y-77006000D03*
D11*
X322305000Y-81206000D03*
D12*
X327525000Y-71106000D03*
D13*
X327525000Y-77006000D03*
D12*
X332525000Y-73206000D03*
D10*
X333025000Y-77006000D03*
D14*
X323858914Y-71006000D03*
X336255000Y-73306000D03*
%TD*%
D10*
%TO.C,MX10*%
X299545000Y-133506000D03*
D11*
X299825000Y-137706000D03*
D12*
X305045000Y-127606000D03*
D13*
X305045000Y-133506000D03*
D12*
X310045000Y-129706000D03*
D10*
X310545000Y-133506000D03*
D14*
X301378914Y-127506000D03*
X313775000Y-129806000D03*
%TD*%
D10*
%TO.C,MX11*%
X299545000Y-100506000D03*
D11*
X299825000Y-104706000D03*
D12*
X305045000Y-94606000D03*
D13*
X305045000Y-100506000D03*
D12*
X310045000Y-96706000D03*
D10*
X310545000Y-100506000D03*
D14*
X301378914Y-94506000D03*
X313775000Y-96806000D03*
%TD*%
D10*
%TO.C,MX16*%
X126025000Y-58726000D03*
D11*
X126305000Y-62926000D03*
D12*
X131525000Y-52826000D03*
D13*
X131525000Y-58726000D03*
D12*
X136525000Y-54926000D03*
D10*
X137025000Y-58726000D03*
D14*
X127858914Y-52726000D03*
X140255000Y-55026000D03*
%TD*%
D10*
%TO.C,MX13*%
X326045000Y-144506000D03*
D11*
X326325000Y-148706000D03*
D12*
X331545000Y-138606000D03*
D13*
X331545000Y-144506000D03*
D12*
X336545000Y-140706000D03*
D10*
X337045000Y-144506000D03*
D14*
X327878914Y-138506000D03*
X340275000Y-140806000D03*
%TD*%
D10*
%TO.C,MX12*%
X326045000Y-111506000D03*
D11*
X326325000Y-115706000D03*
D12*
X331545000Y-105606000D03*
D13*
X331545000Y-111506000D03*
D12*
X336545000Y-107706000D03*
D10*
X337045000Y-111506000D03*
D14*
X327878914Y-105506000D03*
X340275000Y-107806000D03*
%TD*%
D10*
%TO.C,MX17*%
X147525000Y-58726000D03*
D11*
X147805000Y-62926000D03*
D12*
X153025000Y-52826000D03*
D13*
X153025000Y-58726000D03*
D12*
X158025000Y-54926000D03*
D10*
X158525000Y-58726000D03*
D14*
X149358914Y-52726000D03*
X161755000Y-55026000D03*
%TD*%
D10*
%TO.C,MX3*%
X178145000Y-112006000D03*
D11*
X178425000Y-116206000D03*
D12*
X183645000Y-106106000D03*
D13*
X183645000Y-112006000D03*
D12*
X188645000Y-108206000D03*
D10*
X189145000Y-112006000D03*
D14*
X179978914Y-106006000D03*
X192375000Y-108306000D03*
%TD*%
D10*
%TO.C,MX5*%
X219368750Y-176006000D03*
D11*
X219648750Y-180206000D03*
D12*
X224868750Y-170106000D03*
D13*
X224868750Y-176006000D03*
D12*
X229868750Y-172206000D03*
D10*
X230368750Y-176006000D03*
D14*
X221202664Y-170006000D03*
X233598750Y-172306000D03*
%TD*%
D10*
%TO.C,MX18*%
X169025000Y-58726000D03*
D11*
X169305000Y-62926000D03*
D12*
X174525000Y-52826000D03*
D13*
X174525000Y-58726000D03*
D12*
X179525000Y-54926000D03*
D10*
X180025000Y-58726000D03*
D14*
X170858914Y-52726000D03*
X183255000Y-55026000D03*
%TD*%
M02*
