%TF.GenerationSoftware,KiCad,Pcbnew,7.0.7*%
%TF.CreationDate,2024-03-12T09:27:44-04:00*%
%TF.ProjectId,AngelsBox_PCB,416e6765-6c73-4426-9f78-5f5043422e6b,rev?*%
%TF.SameCoordinates,Original*%
%TF.FileFunction,Profile,NP*%
%FSLAX46Y46*%
G04 Gerber Fmt 4.6, Leading zero omitted, Abs format (unit mm)*
G04 Created by KiCad (PCBNEW 7.0.7) date 2024-03-12 09:27:44*
%MOMM*%
%LPD*%
G01*
G04 APERTURE LIST*
%TA.AperFunction,Profile*%
%ADD10C,0.100000*%
%TD*%
%TA.AperFunction,Profile*%
%ADD11C,0.120000*%
%TD*%
G04 APERTURE END LIST*
D10*
X112911025Y-45234664D02*
X193277000Y-45228000D01*
X349805000Y-230646000D02*
G75*
G03*
X351075000Y-229376000I0J1270000D01*
G01*
X351075000Y-46496000D02*
X351075000Y-229376000D01*
X111045000Y-229376000D02*
G75*
G03*
X112315000Y-230646000I1270000J0D01*
G01*
X111045000Y-229376000D02*
X111022708Y-46830609D01*
X349805000Y-230646000D02*
X112315000Y-230646000D01*
X121130000Y-222377000D02*
G75*
G03*
X121130000Y-222377000I-1750000J0D01*
G01*
X232382000Y-120777000D02*
G75*
G03*
X232382000Y-120777000I-1750000J0D01*
G01*
X344650000Y-222250000D02*
G75*
G03*
X344650000Y-222250000I-1750000J0D01*
G01*
X349805000Y-45226000D02*
X205373000Y-45228000D01*
X112911021Y-45234711D02*
G75*
G03*
X111022708Y-46830609I-146221J-1742089D01*
G01*
X118590000Y-51435000D02*
G75*
G03*
X118590000Y-51435000I-1750000J0D01*
G01*
X346555000Y-51435000D02*
G75*
G03*
X346555000Y-51435000I-1750000J0D01*
G01*
X351075000Y-46496000D02*
G75*
G03*
X349805000Y-45226000I-1270000J0D01*
G01*
D11*
%TO.C,U1*%
X193277000Y-51460000D02*
X193277000Y-45228000D01*
X193277000Y-64414000D02*
X194039000Y-64414000D01*
X193277000Y-66228000D02*
X193277000Y-64414000D01*
X193277000Y-66228000D02*
X205373000Y-66228000D01*
X194039000Y-51460000D02*
X193277000Y-51460000D01*
X194039000Y-64414000D02*
X194039000Y-51460000D01*
X205373000Y-66228000D02*
X205373000Y-45228000D01*
%TD*%
M02*
