M48
; DRILL file {KiCad 7.0.7} date Tue Mar 12 09:28:16 2024
; FORMAT={-:-/ absolute / inch / decimal}
; #@! TF.CreationDate,2024-03-12T09:28:16-04:00
; #@! TF.GenerationSoftware,Kicad,Pcbnew,7.0.7
; #@! TF.FileFunction,Plated,1,2,PTH
FMAT,2
INCH
; #@! TA.AperFunction,Plated,PTH,ViaDrill
T1C0.0157
; #@! TA.AperFunction,Plated,PTH,ComponentDrill
T2C0.0315
%
G90
G05
T1
X7.425Y-2.545
X7.425Y-2.64
X7.43Y-2.345
X7.4301Y-2.4369
X7.4401Y-1.9419
X7.6451Y-2.8119
X7.7451Y-2.8119
X7.8501Y-2.8119
X7.9451Y-2.8119
X8.0451Y-2.8119
X8.325Y-1.94
X8.325Y-2.045
X8.325Y-2.1414
X8.325Y-2.2419
X8.325Y-2.345
X8.325Y-2.445
X8.325Y-2.55
X8.325Y-2.645
X8.3319Y-1.8419
T2
X7.6093Y-2.056
X7.6093Y-2.106
X7.6093Y-2.156
X7.6093Y-2.206
X7.6093Y-2.256
X7.6093Y-2.306
X7.6093Y-2.356
X7.6093Y-2.406
X7.6093Y-2.456
X7.6093Y-2.506
T0
M30
