M48
; DRILL file {KiCad 7.0.7} date Tue Mar 12 09:28:16 2024
; FORMAT={-:-/ absolute / inch / decimal}
; #@! TF.CreationDate,2024-03-12T09:28:16-04:00
; #@! TF.GenerationSoftware,Kicad,Pcbnew,7.0.7
; #@! TF.FileFunction,NonPlated,1,2,NPTH
FMAT,2
INCH
; #@! TA.AperFunction,NonPlated,NPTH,ComponentDrill
T1C0.0472
; #@! TA.AperFunction,NonPlated,NPTH,ComponentDrill
T2C0.0748
; #@! TA.AperFunction,NonPlated,NPTH,ComponentDrill
T3C0.1161
; #@! TA.AperFunction,NonPlated,NPTH,ComponentDrill
T4C0.1339
%
G90
G05
T1
X4.8553Y-5.5593
X4.9726Y-2.4774
X5.8191Y-2.4774
X5.8986Y-4.8703
X6.6656Y-2.4774
X7.0246Y-4.575
X8.1033Y-5.1853
X8.6476Y-7.0947
X9.56Y-4.4176
X9.56Y-5.7168
X10.6624Y-4.0042
X10.6624Y-5.3034
X11.4096Y-2.9609
X11.8041Y-4.1223
X11.8041Y-5.4215
X12.6892Y-3.1971
X12.8474Y-4.5554
X12.8474Y-5.8546
T2
X4.8443Y-5.3939
X4.9616Y-2.312
X5.2774Y-5.3939
X5.3947Y-2.312
X5.8081Y-2.312
X5.8876Y-4.705
X6.2411Y-2.312
X6.3207Y-4.705
X6.6545Y-2.312
X7.0136Y-4.4097
X7.0876Y-2.312
X7.4467Y-4.4097
X8.0923Y-5.0199
X8.5254Y-5.0199
X8.6366Y-6.9294
X9.0696Y-6.9294
X9.549Y-4.2522
X9.549Y-5.5514
X9.9821Y-4.2522
X9.9821Y-5.5514
X10.6514Y-3.8388
X10.6514Y-5.138
X11.0844Y-3.8388
X11.0844Y-5.138
X11.3986Y-2.7955
X11.7931Y-3.9569
X11.7931Y-5.2561
X11.8317Y-2.7955
X12.2262Y-3.9569
X12.2262Y-5.2561
X12.6781Y-3.0317
X12.8364Y-4.39
X12.8364Y-5.6892
X13.1112Y-3.0317
X13.2695Y-4.39
X13.2695Y-5.6892
T3
X5.0608Y-5.1617
X5.1781Y-2.0798
X5.2577Y-5.2443
X5.375Y-2.1624
X6.0246Y-2.0798
X6.1041Y-4.4727
X6.2215Y-2.1624
X6.301Y-4.5554
X6.8711Y-2.0798
X7.0679Y-2.1624
X7.2301Y-4.1774
X7.427Y-4.2601
X8.3089Y-4.7876
X8.5057Y-4.8703
X8.8531Y-6.6971
X9.05Y-6.7798
X9.7656Y-4.0199
X9.7656Y-5.3191
X9.9624Y-4.1026
X9.9624Y-5.4018
X10.8679Y-3.6065
X10.8679Y-4.9057
X11.0648Y-3.6892
X11.0648Y-4.9884
X11.6152Y-2.5632
X11.812Y-2.6459
X12.0096Y-3.7246
X12.0096Y-5.0239
X12.2065Y-3.8073
X12.2065Y-5.1065
X12.8947Y-2.7994
X13.053Y-4.1577
X13.053Y-5.4569
X13.0915Y-2.8821
X13.2498Y-4.2404
X13.2498Y-5.5396
T4
X5.0608Y-5.3939
X5.1781Y-2.312
X6.0246Y-2.312
X6.1041Y-4.705
X6.8711Y-2.312
X7.2301Y-4.4097
X8.3089Y-5.0199
X8.8531Y-6.9294
X9.7656Y-4.2522
X9.7656Y-5.5514
X10.8679Y-3.8388
X10.8679Y-5.138
X11.6152Y-2.7955
X12.0096Y-3.9569
X12.0096Y-5.2561
X12.8947Y-3.0317
X13.053Y-4.39
X13.053Y-5.6892
T0
M30
